<svg width="832" height="448"  xmlns="http://www.w3.org/2000/svg" xmlns:xlink="http://www.w3.org/1999/xlink" version="1.1"><rect x="0" y="0" width="832" height="448" fill-opacity="0" stroke="#000000" stroke-width="1" /><g stroke="#000000" stroke-width="1" ><rect x="688" y="400" width="32" height="32" fill="#808080" /><g stroke="#000000" stroke-width="2" ><line x1="704" y1="400" x2="720" y2="416" /><line x1="688" y1="400" x2="720" y2="432" /><line x1="688" y1="416" x2="704" y2="432" /></g><rect x="432" y="48" width="32" height="32" fill="#808080" /><rect x="624" y="16" width="32" height="32" fill="#808080" /><rect x="592" y="16" width="32" height="32" fill="#808080" /><rect x="240" y="144" width="32" height="32" fill="#808080" /><rect x="720" y="400" width="32" height="32" fill="#808080" /><g stroke="#000000" stroke-width="2" ><line x1="736" y1="400" x2="752" y2="416" /><line x1="720" y1="400" x2="752" y2="432" /><line x1="720" y1="416" x2="736" y2="432" /></g><rect x="208" y="16" width="32" height="32" fill="#808080" /><rect x="304" y="16" width="32" height="32" fill="#808080" /><rect x="752" y="400" width="32" height="32" fill="#808080" /><g stroke="#000000" stroke-width="2" ><line x1="768" y1="400" x2="784" y2="416" /><line x1="752" y1="400" x2="784" y2="432" /><line x1="752" y1="416" x2="768" y2="432" /></g><rect x="592" y="272" width="32" height="32" fill="#808080" /><rect x="560" y="80" width="32" height="32" fill="#808080" /><rect x="176" y="48" width="32" height="32" fill="#808080" /><rect x="304" y="48" width="32" height="32" fill="#808080" /><rect x="496" y="48" width="32" height="32" fill="#808080" /><rect x="208" y="80" width="32" height="32" fill="#808080" /><rect x="144" y="400" width="32" height="32" fill="#808080" /><g stroke="#000000" stroke-width="2" ><line x1="160" y1="400" x2="176" y2="416" /><line x1="144" y1="400" x2="176" y2="432" /><line x1="144" y1="416" x2="160" y2="432" /></g><rect x="272" y="16" width="32" height="32" fill="#808080" /><rect x="784" y="400" width="32" height="32" fill="#808080" /><g stroke="#000000" stroke-width="2" ><line x1="800" y1="400" x2="816" y2="416" /><line x1="784" y1="400" x2="816" y2="432" /><line x1="784" y1="416" x2="800" y2="432" /></g><rect x="432" y="80" width="32" height="32" fill="#808080" /><rect x="560" y="16" width="32" height="32" fill="#808080" /><rect x="368" y="16" width="32" height="32" fill="#808080" /><rect x="624" y="48" width="32" height="32" fill="#808080" /><rect x="144" y="240" width="32" height="32" fill="#808080" /><rect x="16" y="400" width="32" height="32" fill="#808080" /><g stroke="#000000" stroke-width="2" ><line x1="32" y1="400" x2="48" y2="416" /><line x1="16" y1="400" x2="48" y2="432" /><line x1="16" y1="416" x2="32" y2="432" /></g><rect x="656" y="368" width="32" height="32" fill="#808080" /><rect x="208" y="112" width="32" height="32" fill="#808080" /><rect x="240" y="80" width="32" height="32" fill="#808080" /><rect x="400" y="48" width="32" height="32" fill="#808080" /><rect x="176" y="272" width="32" height="32" fill="#808080" /><rect x="144" y="208" width="32" height="32" fill="#808080" /><rect x="336" y="112" width="32" height="32" fill="#808080" /><rect x="336" y="80" width="32" height="32" fill="#808080" /><rect x="368" y="144" width="32" height="32" fill="#808080" /><rect x="400" y="16" width="32" height="32" fill="#808080" /><rect x="496" y="80" width="32" height="32" fill="#808080" /><rect x="624" y="272" width="32" height="32" fill="#808080" /><rect x="112" y="272" width="32" height="32" fill="#808080" /><rect x="304" y="80" width="32" height="32" fill="#808080" /><rect x="240" y="16" width="32" height="32" fill="#808080" /><rect x="240" y="208" width="32" height="32" fill="#808080" /><rect x="176" y="144" width="32" height="32" fill="#808080" /><rect x="208" y="48" width="32" height="32" fill="#808080" /><rect x="400" y="80" width="32" height="32" fill="#808080" /><rect x="464" y="16" width="32" height="32" fill="#808080" /><rect x="368" y="80" width="32" height="32" fill="#808080" /><rect x="496" y="16" width="32" height="32" fill="#808080" /><rect x="304" y="144" width="32" height="32" fill="#808080" /><rect x="112" y="304" width="32" height="32" fill="#808080" /><rect x="112" y="368" width="32" height="32" fill="#808080" /><rect x="464" y="80" width="32" height="32" fill="#808080" /><rect x="688" y="272" width="32" height="32" fill="#808080" /><rect x="400" y="144" width="32" height="32" fill="#808080" /><rect x="336" y="16" width="32" height="32" fill="#808080" /><rect x="272" y="80" width="32" height="32" fill="#808080" /><rect x="336" y="144" width="32" height="32" fill="#808080" /><rect x="208" y="144" width="32" height="32" fill="#808080" /><rect x="528" y="16" width="32" height="32" fill="#808080" /><rect x="464" y="112" width="32" height="32" fill="#808080" /><rect x="624" y="208" width="32" height="32" fill="#808080" /><rect x="592" y="112" width="32" height="32" fill="#808080" /><rect x="432" y="16" width="32" height="32" fill="#808080" /><rect x="272" y="48" width="32" height="32" fill="#808080" /><rect x="688" y="368" width="32" height="32" fill="#808080" /><rect x="336" y="48" width="32" height="32" fill="#808080" /><rect x="624" y="400" width="32" height="32" fill="#808080" /><g stroke="#000000" stroke-width="2" ><line x1="640" y1="400" x2="656" y2="416" /><line x1="624" y1="400" x2="656" y2="432" /><line x1="624" y1="416" x2="640" y2="432" /></g><rect x="560" y="112" width="32" height="32" fill="#808080" /><rect x="176" y="16" width="32" height="32" fill="#808080" /><rect x="656" y="400" width="32" height="32" fill="#808080" /><g stroke="#000000" stroke-width="2" ><line x1="672" y1="400" x2="688" y2="416" /><line x1="656" y1="400" x2="688" y2="432" /><line x1="656" y1="416" x2="672" y2="432" /></g><rect x="624" y="336" width="32" height="32" fill="#808080" /><rect x="688" y="336" width="32" height="32" fill="#808080" /><rect x="80" y="368" width="32" height="32" fill="#808080" /><rect x="368" y="48" width="32" height="32" fill="#808080" /><rect x="400" y="112" width="32" height="32" fill="#808080" /><rect x="464" y="48" width="32" height="32" fill="#808080" /><rect x="528" y="48" width="32" height="32" fill="#808080" /><rect x="240" y="112" width="32" height="32" fill="#808080" /><rect x="528" y="112" width="32" height="32" fill="#808080" /><rect x="656" y="208" width="32" height="32" fill="#808080" /><rect x="592" y="48" width="32" height="32" fill="#808080" /><rect x="432" y="144" width="32" height="32" fill="#808080" /><rect x="464" y="144" width="32" height="32" fill="#808080" /><rect x="624" y="144" width="32" height="32" fill="#808080" /><rect x="528" y="80" width="32" height="32" fill="#808080" /><rect x="592" y="144" width="32" height="32" fill="#808080" /><rect x="176" y="176" width="32" height="32" fill="#808080" /><rect x="272" y="176" width="32" height="32" fill="#808080" /><rect x="304" y="176" width="32" height="32" fill="#808080" /><rect x="560" y="144" width="32" height="32" fill="#808080" /><rect x="656" y="240" width="32" height="32" fill="#808080" /><rect x="752" y="368" width="32" height="32" fill="#808080" /><rect x="528" y="176" width="32" height="32" fill="#808080" /><rect x="560" y="48" width="32" height="32" fill="#808080" /><rect x="560" y="176" width="32" height="32" fill="#808080" /><rect x="624" y="176" width="32" height="32" fill="#808080" /><rect x="176" y="208" width="32" height="32" fill="#808080" /><rect x="176" y="400" width="32" height="32" fill="#808080" /><g stroke="#000000" stroke-width="2" ><line x1="192" y1="400" x2="208" y2="416" /><line x1="176" y1="400" x2="208" y2="432" /><line x1="176" y1="416" x2="192" y2="432" /></g><rect x="208" y="208" width="32" height="32" fill="#808080" /><rect x="624" y="304" width="32" height="32" fill="#808080" /><rect x="560" y="208" width="32" height="32" fill="#808080" /><rect x="592" y="80" width="32" height="32" fill="#808080" /><rect x="496" y="144" width="32" height="32" fill="#808080" /><rect x="592" y="208" width="32" height="32" fill="#808080" /><rect x="208" y="240" width="32" height="32" fill="#808080" /><rect x="272" y="112" width="32" height="32" fill="#808080" /><rect x="144" y="272" width="32" height="32" fill="#808080" /><rect x="144" y="336" width="32" height="32" fill="#808080" /><rect x="656" y="336" width="32" height="32" fill="#808080" /><rect x="208" y="272" width="32" height="32" fill="#808080" /><rect x="592" y="240" width="32" height="32" fill="#808080" /><rect x="496" y="176" width="32" height="32" fill="#808080" /><rect x="656" y="272" width="32" height="32" fill="#808080" /><rect x="176" y="368" width="32" height="32" fill="#808080" /><rect x="176" y="304" width="32" height="32" fill="#808080" /><rect x="688" y="304" width="32" height="32" fill="#808080" /><rect x="112" y="336" width="32" height="32" fill="#808080" /><rect x="720" y="336" width="32" height="32" fill="#808080" /><rect x="80" y="336" width="32" height="32" fill="#808080" /><rect x="176" y="336" width="32" height="32" fill="#808080" /><rect x="48" y="368" width="32" height="32" fill="#808080" /><rect x="144" y="368" width="32" height="32" fill="#808080" /><rect x="48" y="400" width="32" height="32" fill="#808080" /><g stroke="#000000" stroke-width="2" ><line x1="64" y1="400" x2="80" y2="416" /><line x1="48" y1="400" x2="80" y2="432" /><line x1="48" y1="416" x2="64" y2="432" /></g><rect x="240" y="48" width="32" height="32" fill="#808080" /><rect x="240" y="176" width="32" height="32" fill="#808080" /><rect x="112" y="400" width="32" height="32" fill="#808080" /><g stroke="#000000" stroke-width="2" ><line x1="128" y1="400" x2="144" y2="416" /><line x1="112" y1="400" x2="144" y2="432" /><line x1="112" y1="416" x2="128" y2="432" /></g><rect x="208" y="400" width="32" height="32" fill="#808080" /><g stroke="#000000" stroke-width="2" ><line x1="224" y1="400" x2="240" y2="416" /><line x1="208" y1="400" x2="240" y2="432" /><line x1="208" y1="416" x2="224" y2="432" /></g><rect x="624" y="368" width="32" height="32" fill="#808080" /><rect x="720" y="368" width="32" height="32" fill="#808080" /><rect x="80" y="400" width="32" height="32" fill="#808080" /><g stroke="#000000" stroke-width="2" ><line x1="96" y1="400" x2="112" y2="416" /><line x1="80" y1="400" x2="112" y2="432" /><line x1="80" y1="416" x2="96" y2="432" /></g><rect x="592" y="400" width="32" height="32" fill="#808080" /><g stroke="#000000" stroke-width="2" ><line x1="608" y1="400" x2="624" y2="416" /><line x1="592" y1="400" x2="624" y2="432" /><line x1="592" y1="416" x2="608" y2="432" /></g></g><g stroke="#FFFFFF" stroke-width="1" ><path d="M698 404.757 L704 410.757 L710 404.757 L707 404.757 L707 400 L701 400 L701 404.757 Z" fill="#E2FF00" /><path d="M464.463 58 L470.463 64 L464.463 70 L464.463 67 L464 67 L464 61 L464.463 61 Z" fill="#16FF00" /><path d="M442 48.1205 L448 54.1205 L454 48.1205 L451 48.1205 L451 48 L445 48 L445 48.1205 Z" fill="#06FF00" /><path d="M623.863 26 L617.863 32 L623.863 38 L623.863 35 L624 35 L624 29 L623.863 29 Z" fill="#06FF00" /><path d="M250 148.115 L256 154.115 L262 148.115 L259 148.115 L259 144 L253 144 L253 148.115 Z" fill="#C3FF00" /><path d="M730 403.493 L736 409.493 L742 403.493 L739 403.493 L739 400 L733 400 L733 403.493 Z" fill="#A6FF00" /><path d="M239.794 26 L233.794 32 L239.794 38 L239.794 35 L240 35 L240 29 L239.794 29 Z" fill="#0AFF00" /><path d="M335.431 26 L329.431 32 L335.431 38 L335.431 35 L336 35 L336 29 L335.431 29 Z" fill="#1BFF00" /><path d="M762 401.934 L768 407.934 L774 401.934 L771 401.934 L771 400 L765 400 L765 401.934 Z" fill="#5CFF00" /><path d="M632.399 282 L638.399 288 L632.399 294 L632.399 291 L624 291 L624 285 L632.399 285 Z" fill="#FFB700" /><path d="M602 280.023 L608 286.023 L614 280.023 L611 280.023 L611 272 L605 272 L605 280.023 Z" fill="#FFC000" /><path d="M592.596 90 L598.596 96 L592.596 102 L592.596 99 L592 99 L592 93 L592.596 93 Z" fill="#1CFF00" /><path d="M570 81.5668 L576 87.5668 L582 81.5668 L579 81.5668 L579 80 L573 80 L573 81.5668 Z" fill="#4AFF00" /><path d="M208.616 58 L214.616 64 L208.616 70 L208.616 67 L208 67 L208 61 L208.616 61 Z" fill="#1DFF00" /><path d="M186 48.2396 L192 54.2396 L198 48.2396 L195 48.2396 L195 48 L189 48 L189 48.2396 Z" fill="#0BFF00" /><path d="M335.343 58 L329.343 64 L335.343 70 L335.343 67 L336 67 L336 61 L335.343 61 Z" fill="#1FFF00" /><path d="M314 48.2834 L320 54.2834 L326 48.2834 L323 48.2834 L323 48 L317 48 L317 48.2834 Z" fill="#0DFF00" /><path d="M528.888 58 L534.888 64 L528.888 70 L528.888 67 L528 67 L528 61 L528.888 61 Z" fill="#2AFF00" /><path d="M506 48.2833 L512 54.2833 L518 48.2833 L515 48.2833 L515 48 L509 48 L509 48.2833 Z" fill="#0DFF00" /><path d="M239.404 90 L233.404 96 L239.404 102 L239.404 99 L240 99 L240 93 L239.404 93 Z" fill="#1CFF00" /><path d="M218 81.9369 L224 87.9369 L230 81.9369 L227 81.9369 L227 80 L221 80 L221 81.9369 Z" fill="#5CFF00" /><path d="M154 405.222 L160 411.222 L166 405.222 L163 405.222 L163 400 L157 400 L157 405.222 Z" fill="#F8FF00" /><path d="M303.338 26 L297.338 32 L303.338 38 L303.338 35 L304 35 L304 29 L303.338 29 Z" fill="#1FFF00" /><path d="M464.664 90 L470.664 96 L464.664 102 L464.664 99 L464 99 L464 93 L464.664 93 Z" fill="#20FF00" /><path d="M442 80.1753 L448 86.1753 L454 80.1753 L451 80.1753 L451 80 L445 80 L445 80.1753 Z" fill="#08FF00" /><path d="M592.206 26 L598.206 32 L592.206 38 L592.206 35 L592 35 L592 29 L592.206 29 Z" fill="#0AFF00" /><path d="M399.868 26 L393.868 32 L399.868 38 L399.868 35 L400 35 L400 29 L399.868 29 Z" fill="#06FF00" /><path d="M634 48.2396 L640 54.2396 L646 48.2396 L643 48.2396 L643 48 L637 48 L637 48.2396 Z" fill="#0BFF00" /><path d="M154 247.586 L160 253.586 L166 247.586 L163 247.586 L163 240 L157 240 L157 247.586 Z" fill="#FFCA00" /><path d="M688.465 378 L694.465 384 L688.465 390 L688.465 387 L688 387 L688 381 L688.465 381 Z" fill="#16FF00" /><path d="M666 372.312 L672 378.312 L678 372.312 L675 372.312 L675 368 L669 368 L669 372.312 Z" fill="#CDFF00" /><path d="M239.071 122 L233.071 128 L239.071 134 L239.071 131 L240 131 L240 125 L239.071 125 Z" fill="#2CFF00" /><path d="M218 114.909 L224 120.909 L230 114.909 L227 114.909 L227 112 L221 112 L221 114.909 Z" fill="#8AFF00" /><path d="M270.77 90 L264.77 96 L270.77 102 L270.77 99 L272 99 L272 93 L270.77 93 Z" fill="#3AFF00" /><path d="M250 81.5668 L256 87.5668 L262 81.5668 L259 81.5668 L259 80 L253 80 L253 81.5668 Z" fill="#4AFF00" /><path d="M432.142 58 L438.142 64 L432.142 70 L432.142 67 L432 67 L432 61 L432.142 61 Z" fill="#07FF00" /><path d="M410 48.1113 L416 54.1113 L422 48.1113 L419 48.1113 L419 48 L413 48 L413 48.1113 Z" fill="#05FF00" /><path d="M199.601 282 L193.601 288 L199.601 294 L199.601 291 L208 291 L208 285 L199.601 285 Z" fill="#FFB700" /><path d="M168.79 218 L162.79 224 L168.79 230 L168.79 227 L176 227 L176 221 L168.79 221 Z" fill="#FFD300" /><path d="M346 112.708 L352 118.708 L358 112.708 L355 112.708 L355 112 L349 112 L349 112.708 Z" fill="#22FF00" /><path d="M367.336 90 L361.336 96 L367.336 102 L367.336 99 L368 99 L368 93 L367.336 93 Z" fill="#20FF00" /><path d="M346 80.377 L352 86.377 L358 80.377 L355 80.377 L355 80 L349 80 L349 80.377 Z" fill="#12FF00" /><path d="M399.446 154 L393.446 160 L399.446 166 L399.446 163 L400 163 L400 157 L399.446 157 Z" fill="#1AFF00" /><path d="M432.133 26 L438.133 32 L432.133 38 L432.133 35 L432 35 L432 29 L432.133 29 Z" fill="#06FF00" /><path d="M529.514 90 L535.514 96 L529.514 102 L529.514 99 L528 99 L528 93 L529.514 93 Z" fill="#48FF00" /><path d="M506 80.4288 L512 86.4288 L518 80.4288 L515 80.4288 L515 80 L509 80 L509 80.4288 Z" fill="#14FF00" /><path d="M655.152 282 L649.152 288 L655.152 294 L655.152 291 L656 291 L656 285 L655.152 285 Z" fill="#28FF00" /><path d="M136.51 282 L130.51 288 L136.51 294 L136.51 291 L144 291 L144 285 L136.51 285 Z" fill="#FFCD00" /><path d="M335.291 90 L329.291 96 L335.291 102 L335.291 99 L336 99 L336 93 L335.291 93 Z" fill="#22FF00" /><path d="M314 80.4288 L320 86.4288 L326 80.4288 L323 80.4288 L323 80 L317 80 L317 80.4288 Z" fill="#14FF00" /><path d="M271.471 26 L265.471 32 L271.471 38 L271.471 35 L272 35 L272 29 L271.471 29 Z" fill="#19FF00" /><path d="M250 215.357 L256 221.357 L262 215.357 L259 215.357 L259 208 L253 208 L253 215.357 Z" fill="#FFD000" /><path d="M202.381 154 L196.381 160 L202.381 166 L202.381 163 L208 163 L208 157 L202.381 157 Z" fill="#FFF900" /><path d="M239.774 58 L233.774 64 L239.774 70 L239.774 67 L240 67 L240 61 L239.774 61 Z" fill="#0BFF00" /><path d="M218 48.7188 L224 54.7188 L230 48.7188 L227 48.7188 L227 48 L221 48 L221 48.7188 Z" fill="#22FF00" /><path d="M432.113 90 L438.113 96 L432.113 102 L432.113 99 L432 99 L432 93 L432.113 93 Z" fill="#05FF00" /><path d="M410 80.2042 L416 86.2042 L422 80.2042 L419 80.2042 L419 80 L413 80 L413 80.2042 Z" fill="#0AFF00" /><path d="M496.569 26 L502.569 32 L496.569 38 L496.569 35 L496 35 L496 29 L496.569 29 Z" fill="#1BFF00" /><path d="M399.887 90 L393.887 96 L399.887 102 L399.887 99 L400 99 L400 93 L399.887 93 Z" fill="#05FF00" /><path d="M378 80.1754 L384 86.1754 L390 80.1754 L387 80.1754 L387 80 L381 80 L381 80.1754 Z" fill="#08FF00" /><path d="M528.662 26 L534.662 32 L528.662 38 L528.662 35 L528 35 L528 29 L528.662 29 Z" fill="#1FFF00" /><path d="M333.61 154 L327.61 160 L333.61 166 L333.61 163 L336 163 L336 157 L333.61 157 Z" fill="#71FF00" /><path d="M122 311.867 L128 317.867 L134 311.867 L131 311.867 L131 304 L125 304 L125 311.867 Z" fill="#FFC400" /><path d="M143.535 378 L137.535 384 L143.535 390 L143.535 387 L144 387 L144 381 L143.535 381 Z" fill="#16FF00" /><path d="M122 373.181 L128 379.181 L134 373.181 L131 373.181 L131 368 L125 368 L125 373.181 Z" fill="#F6FF00" /><path d="M496.709 90 L502.709 96 L496.709 102 L496.709 99 L496 99 L496 93 L496.709 93 Z" fill="#22FF00" /><path d="M474 80.3769 L480 86.3769 L486 80.3769 L483 80.3769 L483 80 L477 80 L477 80.3769 Z" fill="#12FF00" /><path d="M432.554 154 L438.554 160 L432.554 166 L432.554 163 L432 163 L432 157 L432.554 157 Z" fill="#1AFF00" /><path d="M410 144.731 L416 150.731 L422 144.731 L419 144.731 L419 144 L413 144 L413 144.731 Z" fill="#23FF00" /><path d="M367.612 26 L361.612 32 L367.612 38 L367.612 35 L368 35 L368 29 L367.612 29 Z" fill="#12FF00" /><path d="M302.486 90 L296.486 96 L302.486 102 L302.486 99 L304 99 L304 93 L302.486 93 Z" fill="#48FF00" /><path d="M282 81.055 L288 87.055 L294 81.055 L291 81.055 L291 80 L285 80 L285 81.055 Z" fill="#32FF00" /><path d="M367.07 154 L361.07 160 L367.07 166 L367.07 163 L368 163 L368 157 L367.07 157 Z" fill="#2CFF00" /><path d="M346 145.084 L352 151.084 L358 145.084 L355 145.084 L355 144 L349 144 L349 145.084 Z" fill="#33FF00" /><path d="M238.972 154 L232.972 160 L238.972 166 L238.972 163 L240 163 L240 157 L238.972 157 Z" fill="#31FF00" /><path d="M218 148.215 L224 154.215 L230 148.215 L227 148.215 L227 144 L221 144 L221 148.215 Z" fill="#C8FF00" /><path d="M560.529 26 L566.529 32 L560.529 38 L560.529 35 L560 35 L560 29 L560.529 29 Z" fill="#19FF00" /><path d="M474 112.708 L480 118.708 L486 112.708 L483 112.708 L483 112 L477 112 L477 112.708 Z" fill="#22FF00" /><path d="M663.21 218 L669.21 224 L663.21 230 L663.21 227 L656 227 L656 221 L663.21 221 Z" fill="#FFD300" /><path d="M634 214.372 L640 220.372 L646 214.372 L643 214.372 L643 208 L637 208 L637 214.372 Z" fill="#FFE700" /><path d="M602 114.909 L608 120.909 L614 114.909 L611 114.909 L611 112 L605 112 L605 114.909 Z" fill="#8AFF00" /><path d="M464.388 26 L470.388 32 L464.388 38 L464.388 35 L464 35 L464 29 L464.388 29 Z" fill="#12FF00" /><path d="M303.112 58 L297.112 64 L303.112 70 L303.112 67 L304 67 L304 61 L303.112 61 Z" fill="#2AFF00" /><path d="M282 48.5093 L288 54.5093 L294 48.5093 L291 48.5093 L291 48 L285 48 L285 48.5093 Z" fill="#18FF00" /><path d="M721.264 378 L727.264 384 L721.264 390 L721.264 387 L720 387 L720 381 L721.264 381 Z" fill="#3CFF00" /><path d="M698 373.18 L704 379.18 L710 373.18 L707 373.18 L707 368 L701 368 L701 373.18 Z" fill="#F6FF00" /><path d="M367.537 58 L361.537 64 L367.537 70 L367.537 67 L368 67 L368 61 L367.537 61 Z" fill="#16FF00" /><path d="M346 48.1952 L352 54.1952 L358 48.1952 L355 48.1952 L355 48 L349 48 L349 48.1952 Z" fill="#09FF00" /><path d="M634 406.221 L640 412.221 L646 406.221 L643 406.221 L643 400 L637 400 L637 406.221 Z" fill="#FFEB00" /><path d="M592.929 122 L598.929 128 L592.929 134 L592.929 131 L592 131 L592 125 L592.929 125 Z" fill="#2CFF00" /><path d="M570 114.577 L576 120.577 L582 114.577 L579 114.577 L579 112 L573 112 L573 114.577 Z" fill="#7AFF00" /><path d="M208.137 26 L214.137 32 L208.137 38 L208.137 35 L208 35 L208 29 L208.137 29 Z" fill="#06FF00" /><path d="M666 405.222 L672 411.222 L678 405.222 L675 405.222 L675 400 L669 400 L669 405.222 Z" fill="#F8FF00" /><path d="M659.532 346 L665.532 352 L659.532 358 L659.532 355 L656 355 L656 349 L659.532 349 Z" fill="#A8FF00" /><path d="M634 346 L640 352 L646 346 L643 346 L643 336 L637 336 L637 346 Z" fill="#FF9100" /><path d="M723.034 346 L729.034 352 L723.034 358 L723.034 355 L720 355 L720 349 L723.034 349 Z" fill="#90FF00" /><path d="M698 344.243 L704 350.243 L710 344.243 L707 344.243 L707 336 L701 336 L701 344.243 Z" fill="#FFBB00" /><path d="M110.736 378 L104.736 384 L110.736 390 L110.736 387 L112 387 L112 381 L110.736 381 Z" fill="#3CFF00" /><path d="M90 371.411 L96 377.411 L102 371.411 L99 371.411 L99 368 L93 368 L93 371.411 Z" fill="#A2FF00" /><path d="M399.858 58 L393.858 64 L399.858 70 L399.858 67 L400 67 L400 61 L399.858 61 Z" fill="#07FF00" /><path d="M378 48.1205 L384 54.1205 L390 48.1205 L387 48.1205 L387 48 L381 48 L381 48.1205 Z" fill="#06FF00" /><path d="M410 112.355 L416 118.355 L422 112.355 L419 112.355 L419 112 L413 112 L413 112.355 Z" fill="#11FF00" /><path d="M496.657 58 L502.657 64 L496.657 70 L496.657 67 L496 67 L496 61 L496.657 61 Z" fill="#1FFF00" /><path d="M474 48.1952 L480 54.1952 L486 48.1952 L483 48.1952 L483 48 L477 48 L477 48.1952 Z" fill="#09FF00" /><path d="M560.718 58 L566.718 64 L560.718 70 L560.718 67 L560 67 L560 61 L560.718 61 Z" fill="#22FF00" /><path d="M538 48.5093 L544 54.5093 L550 48.5093 L547 48.5093 L547 48 L541 48 L541 48.5093 Z" fill="#18FF00" /><path d="M269.909 122 L263.909 128 L269.909 134 L269.909 131 L272 131 L272 125 L269.909 125 Z" fill="#63FF00" /><path d="M250 114.577 L256 120.577 L262 114.577 L259 114.577 L259 112 L253 112 L253 114.577 Z" fill="#7AFF00" /><path d="M562.091 122 L568.091 128 L562.091 134 L562.091 131 L560 131 L560 125 L562.091 125 Z" fill="#63FF00" /><path d="M538 113.715 L544 119.715 L550 113.715 L547 113.715 L547 112 L541 112 L541 113.715 Z" fill="#51FF00" /><path d="M623.384 58 L617.384 64 L623.384 70 L623.384 67 L624 67 L624 61 L623.384 61 Z" fill="#1DFF00" /><path d="M602 48.7188 L608 54.7188 L614 48.7188 L611 48.7188 L611 48 L605 48 L605 48.7188 Z" fill="#22FF00" /><path d="M464.93 154 L470.93 160 L464.93 166 L464.93 163 L464 163 L464 157 L464.93 157 Z" fill="#2CFF00" /><path d="M498.39 154 L504.39 160 L498.39 166 L498.39 163 L496 163 L496 157 L498.39 157 Z" fill="#71FF00" /><path d="M474 145.084 L480 151.084 L486 145.084 L483 145.084 L483 144 L477 144 L477 145.084 Z" fill="#33FF00" /><path d="M561.23 90 L567.23 96 L561.23 102 L561.23 99 L560 99 L560 93 L561.23 93 Z" fill="#3AFF00" /><path d="M538 81.0551 L544 87.0551 L550 81.0551 L547 81.0551 L547 80 L541 80 L541 81.0551 Z" fill="#32FF00" /><path d="M629.62 154 L635.62 160 L629.62 166 L629.62 163 L624 163 L624 157 L629.62 157 Z" fill="#FFF900" /><path d="M602 148.215 L608 154.215 L614 148.215 L611 148.215 L611 144 L605 144 L605 148.215 Z" fill="#C8FF00" /><path d="M186 181.996 L192 187.996 L198 181.996 L195 181.996 L195 176 L189 176 L189 181.996 Z" fill="#FFF000" /><path d="M300.858 186 L294.858 192 L300.858 198 L300.858 195 L304 195 L304 189 L300.858 189 Z" fill="#95FF00" /><path d="M314 178.766 L320 184.766 L326 178.766 L323 178.766 L323 176 L317 176 L317 178.766 Z" fill="#83FF00" /><path d="M593.028 154 L599.028 160 L593.028 166 L593.028 163 L592 163 L592 157 L593.028 157 Z" fill="#31FF00" /><path d="M570 148.115 L576 154.115 L582 148.115 L579 148.115 L579 144 L573 144 L573 148.115 Z" fill="#C3FF00" /><path d="M666 247.586 L672 253.586 L678 247.586 L675 247.586 L675 240 L669 240 L669 247.586 Z" fill="#FFCA00" /><path d="M563.518 186 L569.518 192 L563.518 198 L563.518 195 L560 195 L560 189 L563.518 189 Z" fill="#A7FF00" /><path d="M592.226 58 L598.226 64 L592.226 70 L592.226 67 L592 67 L592 61 L592.226 61 Z" fill="#0BFF00" /><path d="M570 48.6987 L576 54.6987 L582 48.6987 L579 48.6987 L579 48 L573 48 L573 48.6987 Z" fill="#21FF00" /><path d="M570 179.463 L576 185.463 L582 179.463 L579 179.463 L579 176 L573 176 L573 179.463 Z" fill="#A4FF00" /><path d="M634 181.996 L640 187.996 L646 181.996 L643 181.996 L643 176 L637 176 L637 181.996 Z" fill="#FFF000" /><path d="M207.538 218 L201.538 224 L207.538 230 L207.538 227 L208 227 L208 221 L207.538 221 Z" fill="#16FF00" /><path d="M186 214.372 L192 220.372 L198 214.372 L195 214.372 L195 208 L189 208 L189 214.372 Z" fill="#FFE700" /><path d="M186 406.221 L192 412.221 L198 406.221 L195 406.221 L195 400 L189 400 L189 406.221 Z" fill="#FFEB00" /><path d="M232.267 218 L226.267 224 L232.267 230 L232.267 227 L240 227 L240 221 L232.267 221 Z" fill="#FFC700" /><path d="M634 313.623 L640 319.623 L646 313.623 L643 313.623 L643 304 L637 304 L637 313.623 Z" fill="#FF9A00" /><path d="M599.733 218 L605.733 224 L599.733 230 L599.733 227 L592 227 L592 221 L599.733 221 Z" fill="#FFC700" /><path d="M570 215.357 L576 221.357 L582 215.357 L579 215.357 L579 208 L573 208 L573 215.357 Z" fill="#FFD000" /><path d="M602 81.937 L608 87.937 L614 81.937 L611 81.937 L611 80 L605 80 L605 81.937 Z" fill="#5CFF00" /><path d="M624.462 218 L630.462 224 L624.462 230 L624.462 227 L624 227 L624 221 L624.462 221 Z" fill="#16FF00" /><path d="M218 247.647 L224 253.647 L230 247.647 L227 247.647 L227 240 L221 240 L221 247.647 Z" fill="#FFC900" /><path d="M282 113.715 L288 119.715 L294 113.715 L291 113.715 L291 112 L285 112 L285 113.715 Z" fill="#51FF00" /><path d="M176.848 282 L182.848 288 L176.848 294 L176.848 291 L176 291 L176 285 L176.848 285 Z" fill="#28FF00" /><path d="M154 279.963 L160 285.963 L166 279.963 L163 279.963 L163 272 L157 272 L157 279.963 Z" fill="#FFC200" /><path d="M172.468 346 L166.468 352 L172.468 358 L172.468 355 L176 355 L176 349 L172.468 349 Z" fill="#A8FF00" /><path d="M687.596 346 L681.596 352 L687.596 358 L687.596 355 L688 355 L688 349 L687.596 349 Z" fill="#13FF00" /><path d="M218 280.023 L224 286.023 L230 280.023 L227 280.023 L227 272 L221 272 L221 280.023 Z" fill="#FFC000" /><path d="M602 247.647 L608 253.647 L614 247.647 L611 247.647 L611 240 L605 240 L605 247.647 Z" fill="#FFC900" /><path d="M531.142 186 L537.142 192 L531.142 198 L531.142 195 L528 195 L528 189 L531.142 189 Z" fill="#95FF00" /><path d="M506 178.766 L512 184.766 L518 178.766 L515 178.766 L515 176 L509 176 L509 178.766 Z" fill="#83FF00" /><path d="M695.49 282 L701.49 288 L695.49 294 L695.49 291 L688 291 L688 285 L695.49 285 Z" fill="#FFCD00" /><path d="M666 279.962 L672 285.962 L678 279.962 L675 279.962 L675 272 L669 272 L669 279.962 Z" fill="#FFC200" /><path d="M186 374.844 L192 380.844 L198 374.844 L195 374.844 L195 368 L189 368 L189 374.844 Z" fill="#FFDC00" /><path d="M186 313.624 L192 319.624 L198 313.624 L195 313.624 L195 304 L189 304 L189 313.624 Z" fill="#FF9A00" /><path d="M698 311.866 L704 317.866 L710 311.866 L707 311.866 L707 304 L701 304 L701 311.866 Z" fill="#FFC400" /><path d="M144.404 346 L150.404 352 L144.404 358 L144.404 355 L144 355 L144 349 L144.404 349 Z" fill="#13FF00" /><path d="M122 344.243 L128 350.243 L134 344.243 L131 344.243 L131 336 L125 336 L125 344.243 Z" fill="#FFBB00" /><path d="M108.966 346 L102.966 352 L108.966 358 L108.966 355 L112 355 L112 349 L108.966 349 Z" fill="#90FF00" /><path d="M186 346 L192 352 L198 346 L195 346 L195 336 L189 336 L189 346 Z" fill="#FF9100" /><path d="M78.4417 378 L72.4417 384 L78.4417 390 L78.4417 387 L80 387 L80 381 L78.4417 381 Z" fill="#4AFF00" /><path d="M175.001 378 L169.001 384 L175.001 390 L175.001 387 L176 387 L176 381 L175.001 381 Z" fill="#2FFF00" /><path d="M154 372.312 L160 378.312 L166 372.312 L163 372.312 L163 368 L157 368 L157 372.312 Z" fill="#CDFF00" /><path d="M58 401.934 L64 407.934 L70 401.934 L67 401.934 L67 400 L61 400 L61 401.934 Z" fill="#5CFF00" /><path d="M271.282 58 L265.282 64 L271.282 70 L271.282 67 L272 67 L272 61 L271.282 61 Z" fill="#22FF00" /><path d="M250 48.6987 L256 54.6987 L262 48.6987 L259 48.6987 L259 48 L253 48 L253 48.6987 Z" fill="#21FF00" /><path d="M268.482 186 L262.482 192 L268.482 198 L268.482 195 L272 195 L272 189 L268.482 189 Z" fill="#A7FF00" /><path d="M250 179.463 L256 185.463 L262 179.463 L259 179.463 L259 176 L253 176 L253 179.463 Z" fill="#A4FF00" /><path d="M122 404.757 L128 410.757 L134 404.757 L131 404.757 L131 400 L125 400 L125 404.757 Z" fill="#E2FF00" /><path d="M656.999 378 L662.999 384 L656.999 390 L656.999 387 L656 387 L656 381 L656.999 381 Z" fill="#2FFF00" /><path d="M634 374.844 L640 380.844 L646 374.844 L643 374.844 L643 368 L637 368 L637 374.844 Z" fill="#FFDC00" /><path d="M753.558 378 L759.558 384 L753.558 390 L753.558 387 L752 387 L752 381 L753.558 381 Z" fill="#4AFF00" /><path d="M730 371.41 L736 377.41 L742 371.41 L739 371.41 L739 368 L733 368 L733 371.41 Z" fill="#A2FF00" /><path d="M90 403.493 L96 409.493 L102 403.493 L99 403.493 L99 400 L93 400 L93 403.493 Z" fill="#A6FF00" /></g></svg>
