<svg width="592.0000228881836" height="1020"  xmlns="http://www.w3.org/2000/svg" xmlns:xlink="http://www.w3.org/1999/xlink" version="1.1"><rect x="0" y="0" width="320" height="416" fill-opacity="0" stroke="#000000" stroke-width="1" /><g stroke="#000000" stroke-width="1" ><rect x="80" y="48" width="32" height="32" fill="#CCCCCC" /><rect x="16" y="368" width="32" height="32" fill="#1A661A" /><g stroke="#000000" stroke-width="2" ><line x1="32" y1="368" x2="48" y2="384" /><line x1="16" y1="368" x2="48" y2="400" /><line x1="16" y1="384" x2="32" y2="400" /></g><rect x="240" y="16" width="32" height="32" fill="#661A1A" /><g stroke="#000000" stroke-width="2" ><line x1="256" y1="16" x2="272" y2="32" /><line x1="240" y1="16" x2="272" y2="48" /><line x1="240" y1="32" x2="256" y2="48" /></g><rect x="80" y="80" width="32" height="32" fill="#CCCCCC" /><rect x="80" y="112" width="32" height="32" fill="#CCCCCC" /><rect x="80" y="16" width="32" height="32" fill="#661A1A" /><g stroke="#000000" stroke-width="2" ><line x1="96" y1="16" x2="112" y2="32" /><line x1="80" y1="16" x2="112" y2="48" /><line x1="80" y1="32" x2="96" y2="48" /></g><rect x="80" y="240" width="32" height="32" fill="#CCCCCC" /><rect x="144" y="176" width="32" height="32" fill="#808080" /><rect x="80" y="272" width="32" height="32" fill="#CCCCCC" /><rect x="80" y="304" width="32" height="32" fill="#CCCCCC" /><rect x="144" y="336" width="32" height="32" fill="#808080" /><rect x="80" y="336" width="32" height="32" fill="#CCCCCC" /><rect x="272" y="16" width="32" height="32" fill="#661A1A" /><g stroke="#000000" stroke-width="2" ><line x1="288" y1="16" x2="304" y2="32" /><line x1="272" y1="16" x2="304" y2="48" /><line x1="272" y1="32" x2="288" y2="48" /></g><rect x="208" y="16" width="32" height="32" fill="#661A1A" /><g stroke="#000000" stroke-width="2" ><line x1="224" y1="16" x2="240" y2="32" /><line x1="208" y1="16" x2="240" y2="48" /><line x1="208" y1="32" x2="224" y2="48" /></g><rect x="80" y="144" width="32" height="32" fill="#CCCCCC" /><rect x="176" y="368" width="32" height="32" fill="#1A661A" /><g stroke="#000000" stroke-width="2" ><line x1="192" y1="368" x2="208" y2="384" /><line x1="176" y1="368" x2="208" y2="400" /><line x1="176" y1="384" x2="192" y2="400" /></g><rect x="48" y="368" width="32" height="32" fill="#1A661A" /><g stroke="#000000" stroke-width="2" ><line x1="64" y1="368" x2="80" y2="384" /><line x1="48" y1="368" x2="80" y2="400" /><line x1="48" y1="384" x2="64" y2="400" /></g><rect x="16" y="16" width="32" height="32" fill="#661A1A" /><g stroke="#000000" stroke-width="2" ><line x1="32" y1="16" x2="48" y2="32" /><line x1="16" y1="16" x2="48" y2="48" /><line x1="16" y1="32" x2="32" y2="48" /></g><rect x="208" y="112" width="32" height="32" fill="#333333" /><rect x="144" y="304" width="32" height="32" fill="#808080" /><rect x="208" y="80" width="32" height="32" fill="#333333" /><rect x="144" y="240" width="32" height="32" fill="#808080" /><rect x="240" y="368" width="32" height="32" fill="#1A661A" /><g stroke="#000000" stroke-width="2" ><line x1="256" y1="368" x2="272" y2="384" /><line x1="240" y1="368" x2="272" y2="400" /><line x1="240" y1="384" x2="256" y2="400" /></g><rect x="144" y="208" width="32" height="32" fill="#808080" /><rect x="144" y="144" width="32" height="32" fill="#808080" /><rect x="208" y="240" width="32" height="32" fill="#333333" /><rect x="208" y="304" width="32" height="32" fill="#333333" /><rect x="208" y="48" width="32" height="32" fill="#333333" /><rect x="48" y="16" width="32" height="32" fill="#661A1A" /><g stroke="#000000" stroke-width="2" ><line x1="64" y1="16" x2="80" y2="32" /><line x1="48" y1="16" x2="80" y2="48" /><line x1="48" y1="32" x2="64" y2="48" /></g><rect x="144" y="272" width="32" height="32" fill="#808080" /><rect x="144" y="80" width="32" height="32" fill="#808080" /><rect x="208" y="272" width="32" height="32" fill="#333333" /><rect x="112" y="16" width="32" height="32" fill="#661A1A" /><g stroke="#000000" stroke-width="2" ><line x1="128" y1="16" x2="144" y2="32" /><line x1="112" y1="16" x2="144" y2="48" /><line x1="112" y1="32" x2="128" y2="48" /></g><rect x="144" y="112" width="32" height="32" fill="#808080" /><rect x="208" y="144" width="32" height="32" fill="#333333" /><rect x="272" y="368" width="32" height="32" fill="#1A661A" /><g stroke="#000000" stroke-width="2" ><line x1="288" y1="368" x2="304" y2="384" /><line x1="272" y1="368" x2="304" y2="400" /><line x1="272" y1="384" x2="288" y2="400" /></g><rect x="144" y="16" width="32" height="32" fill="#661A1A" /><g stroke="#000000" stroke-width="2" ><line x1="160" y1="16" x2="176" y2="32" /><line x1="144" y1="16" x2="176" y2="48" /><line x1="144" y1="32" x2="160" y2="48" /></g><rect x="80" y="208" width="32" height="32" fill="#CCCCCC" /><rect x="208" y="176" width="32" height="32" fill="#333333" /><rect x="112" y="368" width="32" height="32" fill="#1A661A" /><g stroke="#000000" stroke-width="2" ><line x1="128" y1="368" x2="144" y2="384" /><line x1="112" y1="368" x2="144" y2="400" /><line x1="112" y1="384" x2="128" y2="400" /></g><rect x="144" y="368" width="32" height="32" fill="#1A661A" /><g stroke="#000000" stroke-width="2" ><line x1="160" y1="368" x2="176" y2="384" /><line x1="144" y1="368" x2="176" y2="400" /><line x1="144" y1="384" x2="160" y2="400" /></g><rect x="80" y="176" width="32" height="32" fill="#CCCCCC" /><rect x="208" y="336" width="32" height="32" fill="#333333" /><rect x="144" y="48" width="32" height="32" fill="#808080" /><rect x="208" y="208" width="32" height="32" fill="#333333" /><rect x="80" y="368" width="32" height="32" fill="#1A661A" /><g stroke="#000000" stroke-width="2" ><line x1="96" y1="368" x2="112" y2="384" /><line x1="80" y1="368" x2="112" y2="400" /><line x1="80" y1="384" x2="96" y2="400" /></g><rect x="176" y="16" width="32" height="32" fill="#661A1A" /><g stroke="#000000" stroke-width="2" ><line x1="192" y1="16" x2="208" y2="32" /><line x1="176" y1="16" x2="208" y2="48" /><line x1="176" y1="32" x2="192" y2="48" /></g><rect x="208" y="368" width="32" height="32" fill="#1A661A" /><g stroke="#000000" stroke-width="2" ><line x1="224" y1="368" x2="240" y2="384" /><line x1="208" y1="368" x2="240" y2="400" /><line x1="208" y1="384" x2="224" y2="400" /></g></g><text x="8" y="448" fill="#000000" font-size="24" >Block color (type/material):</text><g stroke="#000000" stroke-width="1" ><rect x="8" y="456" width="32" height="32" fill="#1A661A" /><rect x="8" y="496" width="32" height="32" fill="#661A1A" /><rect x="8" y="536" width="32" height="32" fill="#808080" /><rect x="8" y="576" width="32" height="32" fill="#333333" /><rect x="8" y="616" width="32" height="32" fill="#CCCCCC" /></g><g fill="#000000" font-size="12" ><text x="48" y="478" >Cave floor</text><text x="48" y="518" >Cave ceiling</text><text x="48" y="558" >Balanced compression/tensile</text><text x="48" y="598" >High tensile strength</text><text x="48" y="638" >High compression strength</text></g><text x="8" y="680" font-size="24" fill="#000000" >Block hatching:</text><rect x="8" y="688" width="32" height="32" fill-opacity="0" stroke="#000000" stroke-width="1" /><g stroke="#000000" stroke-width="2" ><line x1="24" y1="688" x2="40" y2="704" /><line x1="8" y1="688" x2="40" y2="720" /><line x1="8" y1="704" x2="24" y2="720" /></g><text x="48" y="710" font-size="12" fill="#000000" >Foundation</text><g stroke="#FFFFFF" stroke-width="1" ><path d="M90 45.2483 L96 39.2483 L102 45.2483 L99 45.2483 L99 48 L93 48 L93 45.2483 Z" fill="#F90000" /><path d="M90 78.5235 L96 72.5235 L102 78.5235 L99 78.5235 L99 80 L93 80 L93 78.5235 Z" fill="#FFEB00" /><path d="M90 111.799 L96 105.799 L102 111.799 L99 111.799 L99 112 L93 112 L93 111.799 Z" fill="#28FF00" /><path d="M90 244.9 L96 250.9 L102 244.9 L99 244.9 L99 240 L93 240 L93 244.9 Z" fill="#62FF00" /><path d="M154 174.725 L160 168.725 L166 174.725 L163 174.725 L163 176 L157 176 L157 174.725 Z" fill="#33FF00" /><path d="M90 278.174 L96 284.174 L102 278.174 L99 278.174 L99 272 L93 272 L93 278.174 Z" fill="#7BFF00" /><path d="M90 311.45 L96 317.45 L102 311.45 L99 311.45 L99 304 L93 304 L93 311.45 Z" fill="#95FF00" /><path d="M154 341.101 L160 347.101 L166 341.101 L163 341.101 L163 336 L157 336 L157 341.101 Z" fill="#CCFF00" /><path d="M90 344.725 L96 350.725 L102 344.725 L99 344.725 L99 336 L93 336 L93 344.725 Z" fill="#AEFF00" /><path d="M90 145.073 L96 151.073 L102 145.073 L99 145.073 L99 144 L93 144 L93 145.073 Z" fill="#15FF00" /><path d="M218 104.55 L224 98.5503 L230 104.55 L227 104.55 L227 112 L221 112 L221 104.55 Z" fill="#95FF00" /><path d="M154 307.825 L160 313.825 L166 307.825 L163 307.825 L163 304 L157 304 L157 307.825 Z" fill="#99FF00" /><path d="M218 71.2752 L224 65.2752 L230 71.2752 L227 71.2752 L227 80 L221 80 L221 71.2752 Z" fill="#AEFF00" /><path d="M154 241.275 L160 247.275 L166 241.275 L163 241.275 L163 240 L157 240 L157 241.275 Z" fill="#33FF00" /><path d="M154 208 L160 202 L166 208 L163 208 L163 208 L157 208 L157 208 Z" fill="#00FF00" /><path d="M154 141.45 L160 135.45 L166 141.45 L163 141.45 L163 144 L157 144 L157 141.45 Z" fill="#66FF00" /><path d="M218 237.65 L224 231.65 L230 237.65 L227 237.65 L227 240 L221 240 L221 237.65 Z" fill="#2FFF00" /><path d="M218 304.201 L224 310.201 L230 304.201 L227 304.201 L227 304 L221 304 L221 304.201 Z" fill="#28FF00" /><path d="M218 38 L224 32 L230 38 L227 38 L227 48 L221 48 L221 38 Z" fill="#C8FF00" /><path d="M154 274.55 L160 280.55 L166 274.55 L163 274.55 L163 272 L157 272 L157 274.55 Z" fill="#66FF00" /><path d="M154 74.8993 L160 68.8993 L166 74.8993 L163 74.8993 L163 80 L157 80 L157 74.8993 Z" fill="#CCFF00" /><path d="M218 270.927 L224 264.927 L230 270.927 L227 270.927 L227 272 L221 272 L221 270.927 Z" fill="#15FF00" /><path d="M154 108.175 L160 102.175 L166 108.175 L163 108.175 L163 112 L157 112 L157 108.175 Z" fill="#99FF00" /><path d="M218 137.826 L224 131.826 L230 137.826 L227 137.826 L227 144 L221 144 L221 137.826 Z" fill="#7BFF00" /><path d="M90 211.624 L96 217.624 L102 211.624 L99 211.624 L99 208 L93 208 L93 211.624 Z" fill="#48FF00" /><path d="M218 171.1 L224 165.1 L230 171.1 L227 171.1 L227 176 L221 176 L221 171.1 Z" fill="#62FF00" /><path d="M154 374.376 L160 380.376 L166 374.376 L163 374.376 L163 368 L157 368 L157 374.376 Z" fill="#FFFF00" /><path d="M90 178.35 L96 184.35 L102 178.35 L99 178.35 L99 176 L93 176 L93 178.35 Z" fill="#2FFF00" /><path d="M218 337.477 L224 343.477 L230 337.477 L227 337.477 L227 336 L221 336 L221 337.477 Z" fill="#FFEB00" /><path d="M154 41.6242 L160 35.6242 L166 41.6242 L163 41.6242 L163 48 L157 48 L157 41.6242 Z" fill="#FFFF00" /><path d="M218 204.376 L224 198.376 L230 204.376 L227 204.376 L227 208 L221 208 L221 204.376 Z" fill="#48FF00" /><path d="M90 378 L96 384 L102 378 L99 378 L99 368 L93 368 L93 378 Z" fill="#C8FF00" /><path d="M218 370.752 L224 376.752 L230 370.752 L227 370.752 L227 368 L221 368 L221 370.752 Z" fill="#F90000" /></g><text x="8" y="752" font-size="24" fill="#000000" >Contact arrow color (max stress ratio):</text><g stroke="#000000" stroke-width="1" ><line x1="8" y1="766" x2="48" y2="766" /><line x1="8" y1="782" x2="48" y2="782" /><line x1="8" y1="798" x2="48" y2="798" /><line x1="8" y1="894" x2="48" y2="894" /></g><rect x="8" y="760" width="32" height="6" fill="#00FF00" /><defs><linearGradient id="linGrad_0" x1="0" x2="0" y1="0" y2="1"><stop offset="0" stop-color="#00FF00" /><stop offset="1" stop-color="#FFFF00" /></linearGradient></defs><rect x="8" y="766" width="32" height="16" fill="url(#linGrad_0)" /><defs><linearGradient id="linGrad_1" x1="0" x2="0" y1="0" y2="1"><stop offset="0" stop-color="#FFFF00" /><stop offset="1" stop-color="#FF8000" /></linearGradient></defs><rect x="8" y="782" width="32" height="16" fill="url(#linGrad_1)" /><defs><linearGradient id="linGrad_2" x1="0" x2="0" y1="0" y2="1"><stop offset="0" stop-color="#FF0000" /><stop offset="1" stop-color="#1A0000" /></linearGradient></defs><rect x="8" y="798" width="32" height="96" fill="url(#linGrad_2)" /><rect x="8" y="894" width="32" height="6" fill="#1A0000" /><g font-size="12" fill="#000000" ><text x="56" y="772" >0.00%</text><text x="56" y="788" >50.00%</text><text x="56" y="804" >100.00%</text><text x="56" y="900" >400.00%</text></g><text x="8" y="932" font-size="24" fill="#000000" >Contact arrow length (weight transfert):</text><g stroke-width="1" stroke="#000000" fill-opacity="0" ><rect x="8" y="940" width="32" height="32" /><rect x="8" y="980" width="32" height="32" /></g><g stroke-width="1" stroke="#FFFFFF" fill="#00FF00" ><path d="M8 950 L14 956 L8 962 L8 959 L8 959 L8 953 L8 953 Z" /><path d="M18 990 L24 996 L18 1002 L18 999 L8 999 L8 993 L18 993 Z" /></g><g font-size="12" fill="#000000" ><text x="48" y="962" >0 N</text><text x="48" y="1002" >392106 N</text></g></svg>
