<svg width="462.4000177383423" height="548"  xmlns="http://www.w3.org/2000/svg" xmlns:xlink="http://www.w3.org/1999/xlink" version="1.1"><rect x="0" y="0" width="128" height="288" fill-opacity="0" stroke="#000000" stroke-width="1" /><g stroke="#000000" stroke-width="1" ><rect x="16" y="240" width="32" height="32" fill="#00FF00" /><g stroke="#000000" stroke-width="2" ><line x1="32" y1="240" x2="48" y2="256" /><line x1="16" y1="240" x2="48" y2="272" /><line x1="16" y1="256" x2="32" y2="272" /></g><rect x="48" y="112" width="32" height="32" fill="#FFA300" /><rect x="48" y="240" width="32" height="32" fill="#DD0000" /><g stroke="#000000" stroke-width="2" ><line x1="64" y1="240" x2="80" y2="256" /><line x1="48" y1="240" x2="80" y2="272" /><line x1="48" y1="256" x2="64" y2="272" /></g><rect x="48" y="208" width="32" height="32" fill="#DD0000" /><rect x="80" y="240" width="32" height="32" fill="#00FF00" /><g stroke="#000000" stroke-width="2" ><line x1="96" y1="240" x2="112" y2="256" /><line x1="80" y1="240" x2="112" y2="272" /><line x1="80" y1="256" x2="96" y2="272" /></g><rect x="48" y="176" width="32" height="32" fill="#EE0000" /><rect x="48" y="48" width="32" height="32" fill="#CCFF00" /><rect x="48" y="144" width="32" height="32" fill="#FF6600" /><rect x="48" y="80" width="32" height="32" fill="#FFE000" /><rect x="48" y="16" width="32" height="32" fill="#66FF00" /></g><text x="8" y="320" font-size="24" fill="#000000" >Block color (max stress ratio):</text><g stroke="#000000" stroke-width="1" ><line x1="8" y1="334" x2="48" y2="334" /><line x1="8" y1="350" x2="48" y2="350" /><line x1="8" y1="366" x2="48" y2="366" /><line x1="8" y1="462" x2="48" y2="462" /></g><rect x="8" y="328" width="32" height="6" fill="#00FF00" /><defs><linearGradient id="linGrad_0" x1="0" x2="0" y1="0" y2="1"><stop offset="0" stop-color="#00FF00" /><stop offset="1" stop-color="#FFFF00" /></linearGradient></defs><rect x="8" y="334" width="32" height="16" fill="url(#linGrad_0)" /><defs><linearGradient id="linGrad_1" x1="0" x2="0" y1="0" y2="1"><stop offset="0" stop-color="#FFFF00" /><stop offset="1" stop-color="#FF6600" /></linearGradient></defs><rect x="8" y="350" width="32" height="16" fill="url(#linGrad_1)" /><defs><linearGradient id="linGrad_2" x1="0" x2="0" y1="0" y2="1"><stop offset="0" stop-color="#FF0000" /><stop offset="1" stop-color="#000000" /></linearGradient></defs><rect x="8" y="366" width="32" height="96" fill="url(#linGrad_2)" /><rect x="8" y="462" width="32" height="6" fill="#000000" /><g font-size="12" fill="#000000" ><text x="56" y="340" >0.00%</text><text x="56" y="356" >50.00%</text><text x="56" y="372" >100.00%</text><text x="56" y="468" >400.00%</text></g><text x="8" y="500" font-size="24" fill="#000000" >Block hatching:</text><rect x="8" y="508" width="32" height="32" fill-opacity="0" stroke="#000000" stroke-width="1" /><g stroke="#000000" stroke-width="2" ><line x1="24" y1="508" x2="40" y2="524" /><line x1="8" y1="508" x2="40" y2="540" /><line x1="8" y1="524" x2="24" y2="540" /></g><text x="48" y="530" font-size="12" fill="#000000" >Foundation</text></svg>
