<svg width="128" height="128"  xmlns="http://www.w3.org/2000/svg" xmlns:xlink="http://www.w3.org/1999/xlink" version="1.1"><rect x="0" y="0" width="128" height="128" fill-opacity="0" stroke="#000000" stroke-width="1" /><g stroke="#000000" stroke-width="1" ><rect x="16" y="80" width="32" height="32" fill="#4D4D4D" /><g stroke="#000000" stroke-width="2" ><line x1="32" y1="80" x2="48" y2="96" /><line x1="16" y1="80" x2="48" y2="112" /><line x1="16" y1="96" x2="32" y2="112" /></g><rect x="16" y="48" width="32" height="32" fill="#4D4D4D" /><rect x="80" y="16" width="32" height="32" fill="#4D4D4D" /><rect x="16" y="16" width="32" height="32" fill="#4D4D4D" /><rect x="80" y="80" width="32" height="32" fill="#4D4D4D" /><g stroke="#000000" stroke-width="2" ><line x1="96" y1="80" x2="112" y2="96" /><line x1="80" y1="80" x2="112" y2="112" /><line x1="80" y1="96" x2="96" y2="112" /></g><rect x="80" y="48" width="32" height="32" fill="#4D4D4D" /><rect x="48" y="16" width="32" height="32" fill="#B3B3B3" /></g><g stroke="#FFFFFF" stroke-width="1" ><path d="M90 90 L96 96 L102 90 L99 90 L99 80 L93 80 L93 90 Z" fill="#26FF00" /><path d="M90 54 L96 60 L102 54 L99 54 L99 48 L93 48 L93 54 Z" fill="#17FF00" /><path d="M82 26 L88 32 L82 38 L82 35 L80 35 L80 29 L82 29 Z" fill="#0FFF00" /><path d="M46 26 L40 32 L46 38 L46 35 L48 35 L48 29 L46 29 Z" fill="#0FFF00" /><path d="M26 90 L32 96 L38 90 L35 90 L35 80 L29 80 L29 90 Z" fill="#26FF00" /><path d="M26 54 L32 60 L38 54 L35 54 L35 48 L29 48 L29 54 Z" fill="#17FF00" /></g></svg>
