<svg width="320" height="128"  xmlns="http://www.w3.org/2000/svg" xmlns:xlink="http://www.w3.org/1999/xlink" version="1.1"><rect x="0" y="0" width="320" height="128" fill-opacity="0" stroke="#000000" stroke-width="1" /><g stroke="#000000" stroke-width="1" ><rect x="16" y="80" width="32" height="32" fill="#808080" /><g stroke="#000000" stroke-width="2" ><line x1="32" y1="80" x2="48" y2="96" /><line x1="16" y1="80" x2="48" y2="112" /><line x1="16" y1="96" x2="32" y2="112" /></g><rect x="16" y="48" width="32" height="32" fill="#FF0000" /><rect x="16" y="16" width="32" height="32" fill="#FF0000" /><rect x="48" y="80" width="32" height="32" fill="#00FF00" /><rect x="80" y="80" width="32" height="32" fill="#00FF00" /><rect x="112" y="80" width="32" height="32" fill="#00FF00" /><rect x="144" y="80" width="32" height="32" fill="#808080" /><g stroke="#000000" stroke-width="2" ><line x1="160" y1="80" x2="176" y2="96" /><line x1="144" y1="80" x2="176" y2="112" /><line x1="144" y1="96" x2="160" y2="112" /></g><rect x="240" y="80" width="32" height="32" fill="#0000FF" /><rect x="272" y="80" width="32" height="32" fill="#0000FF" /></g><g stroke="#FFFFFF" stroke-width="1" ><path d="M154 90 L160 96 L154 102 L154 99 L144 99 L144 93 L154 93 Z" fill="#FFE000" /><path d="M115.333 90 L121.333 96 L115.333 102 L115.333 99 L112 99 L112 93 L115.333 93 Z" fill="#66FF00" /><path d="M38 90 L32 96 L38 102 L38 99 L48 99 L48 93 L38 93 Z" fill="#FFE000" /><path d="M76.6667 90 L70.6667 96 L76.6667 102 L76.6667 99 L80 99 L80 93 L76.6667 93 Z" fill="#66FF00" /><path d="M26 86.6667 L32 92.6667 L38 86.6667 L35 86.6667 L35 80 L29 80 L29 86.6667 Z" fill="#66FF00" /><path d="M26 51.3333 L32 57.3333 L38 51.3333 L35 51.3333 L35 48 L29 48 L29 51.3333 Z" fill="#33FF00" /></g></svg>
