<svg width="992" height="1356"  xmlns="http://www.w3.org/2000/svg" xmlns:xlink="http://www.w3.org/1999/xlink" version="1.1"><rect x="0" y="0" width="992" height="832" fill-opacity="0" stroke="#000000" stroke-width="1" /><g stroke="#000000" stroke-width="1" ><rect x="656" y="720" width="32" height="32" fill="#B3B3B3" /><rect x="464" y="336" width="32" height="32" fill="#4D4D4D" /><rect x="272" y="784" width="32" height="32" fill="#808080" /><g stroke="#000000" stroke-width="2" ><line x1="288" y1="784" x2="304" y2="800" /><line x1="272" y1="784" x2="304" y2="816" /><line x1="272" y1="800" x2="288" y2="816" /></g><rect x="304" y="336" width="32" height="32" fill="#4D4D4D" /><rect x="496" y="336" width="32" height="32" fill="#4D4D4D" /><rect x="560" y="16" width="32" height="32" fill="#B3B3B3" /><rect x="336" y="336" width="32" height="32" fill="#4D4D4D" /><rect x="624" y="784" width="32" height="32" fill="#808080" /><g stroke="#000000" stroke-width="2" ><line x1="640" y1="784" x2="656" y2="800" /><line x1="624" y1="784" x2="656" y2="816" /><line x1="624" y1="800" x2="640" y2="816" /></g><rect x="464" y="656" width="32" height="32" fill="#4D4D4D" /><rect x="272" y="144" width="32" height="32" fill="#808080" /><g stroke="#000000" stroke-width="2" ><line x1="288" y1="144" x2="304" y2="160" /><line x1="272" y1="144" x2="304" y2="176" /><line x1="272" y1="160" x2="288" y2="176" /></g><rect x="336" y="656" width="32" height="32" fill="#4D4D4D" /><rect x="848" y="656" width="32" height="32" fill="#4D4D4D" /><rect x="16" y="16" width="32" height="32" fill="#808080" /><g stroke="#000000" stroke-width="2" ><line x1="32" y1="16" x2="48" y2="32" /><line x1="16" y1="16" x2="48" y2="48" /><line x1="16" y1="32" x2="32" y2="48" /></g><rect x="304" y="400" width="32" height="32" fill="#4D4D4D" /><rect x="528" y="336" width="32" height="32" fill="#4D4D4D" /><rect x="176" y="16" width="32" height="32" fill="#B3B3B3" /><rect x="912" y="16" width="32" height="32" fill="#B3B3B3" /><rect x="784" y="656" width="32" height="32" fill="#4D4D4D" /><rect x="656" y="400" width="32" height="32" fill="#4D4D4D" /><rect x="80" y="16" width="32" height="32" fill="#B3B3B3" /><rect x="304" y="80" width="32" height="32" fill="#B3B3B3" /><rect x="336" y="144" width="32" height="32" fill="#808080" /><g stroke="#000000" stroke-width="2" ><line x1="352" y1="144" x2="368" y2="160" /><line x1="336" y1="144" x2="368" y2="176" /><line x1="336" y1="160" x2="352" y2="176" /></g><rect x="848" y="16" width="32" height="32" fill="#B3B3B3" /><rect x="144" y="16" width="32" height="32" fill="#B3B3B3" /><rect x="176" y="656" width="32" height="32" fill="#4D4D4D" /><rect x="624" y="16" width="32" height="32" fill="#B3B3B3" /><rect x="208" y="16" width="32" height="32" fill="#B3B3B3" /><rect x="464" y="16" width="32" height="32" fill="#B3B3B3" /><rect x="16" y="336" width="32" height="32" fill="#808080" /><g stroke="#000000" stroke-width="2" ><line x1="32" y1="336" x2="48" y2="352" /><line x1="16" y1="336" x2="48" y2="368" /><line x1="16" y1="352" x2="32" y2="368" /></g><rect x="336" y="784" width="32" height="32" fill="#808080" /><g stroke="#000000" stroke-width="2" ><line x1="352" y1="784" x2="368" y2="800" /><line x1="336" y1="784" x2="368" y2="816" /><line x1="336" y1="800" x2="352" y2="816" /></g><rect x="656" y="656" width="32" height="32" fill="#4D4D4D" /><rect x="176" y="336" width="32" height="32" fill="#4D4D4D" /><rect x="144" y="336" width="32" height="32" fill="#4D4D4D" /><rect x="400" y="336" width="32" height="32" fill="#4D4D4D" /><rect x="656" y="16" width="32" height="32" fill="#B3B3B3" /><rect x="272" y="656" width="32" height="32" fill="#4D4D4D" /><rect x="432" y="336" width="32" height="32" fill="#4D4D4D" /><rect x="528" y="16" width="32" height="32" fill="#B3B3B3" /><rect x="48" y="336" width="32" height="32" fill="#4D4D4D" /><rect x="752" y="16" width="32" height="32" fill="#B3B3B3" /><rect x="208" y="336" width="32" height="32" fill="#4D4D4D" /><rect x="752" y="656" width="32" height="32" fill="#4D4D4D" /><rect x="336" y="464" width="32" height="32" fill="#808080" /><g stroke="#000000" stroke-width="2" ><line x1="352" y1="464" x2="368" y2="480" /><line x1="336" y1="464" x2="368" y2="496" /><line x1="336" y1="480" x2="352" y2="496" /></g><rect x="656" y="112" width="32" height="32" fill="#B3B3B3" /><rect x="656" y="784" width="32" height="32" fill="#808080" /><g stroke="#000000" stroke-width="2" ><line x1="672" y1="784" x2="688" y2="800" /><line x1="656" y1="784" x2="688" y2="816" /><line x1="656" y1="800" x2="672" y2="816" /></g><rect x="816" y="16" width="32" height="32" fill="#B3B3B3" /><rect x="80" y="336" width="32" height="32" fill="#4D4D4D" /><rect x="112" y="336" width="32" height="32" fill="#4D4D4D" /><rect x="304" y="464" width="32" height="32" fill="#808080" /><g stroke="#000000" stroke-width="2" ><line x1="320" y1="464" x2="336" y2="480" /><line x1="304" y1="464" x2="336" y2="496" /><line x1="304" y1="480" x2="320" y2="496" /></g><rect x="784" y="16" width="32" height="32" fill="#B3B3B3" /><rect x="48" y="16" width="32" height="32" fill="#B3B3B3" /><rect x="880" y="336" width="32" height="32" fill="#4D4D4D" /><rect x="688" y="784" width="32" height="32" fill="#808080" /><g stroke="#000000" stroke-width="2" ><line x1="704" y1="784" x2="720" y2="800" /><line x1="688" y1="784" x2="720" y2="816" /><line x1="688" y1="800" x2="704" y2="816" /></g><rect x="944" y="16" width="32" height="32" fill="#808080" /><g stroke="#000000" stroke-width="2" ><line x1="960" y1="16" x2="976" y2="32" /><line x1="944" y1="16" x2="976" y2="48" /><line x1="944" y1="32" x2="960" y2="48" /></g><rect x="624" y="144" width="32" height="32" fill="#808080" /><g stroke="#000000" stroke-width="2" ><line x1="640" y1="144" x2="656" y2="160" /><line x1="624" y1="144" x2="656" y2="176" /><line x1="624" y1="160" x2="640" y2="176" /></g><rect x="656" y="48" width="32" height="32" fill="#B3B3B3" /><rect x="144" y="656" width="32" height="32" fill="#4D4D4D" /><rect x="304" y="144" width="32" height="32" fill="#808080" /><g stroke="#000000" stroke-width="2" ><line x1="320" y1="144" x2="336" y2="160" /><line x1="304" y1="144" x2="336" y2="176" /><line x1="304" y1="160" x2="320" y2="176" /></g><rect x="304" y="432" width="32" height="32" fill="#4D4D4D" /><rect x="304" y="112" width="32" height="32" fill="#B3B3B3" /><rect x="240" y="16" width="32" height="32" fill="#B3B3B3" /><rect x="304" y="48" width="32" height="32" fill="#B3B3B3" /><rect x="592" y="16" width="32" height="32" fill="#B3B3B3" /><rect x="688" y="144" width="32" height="32" fill="#808080" /><g stroke="#000000" stroke-width="2" ><line x1="704" y1="144" x2="720" y2="160" /><line x1="688" y1="144" x2="720" y2="176" /><line x1="688" y1="160" x2="704" y2="176" /></g><rect x="688" y="16" width="32" height="32" fill="#B3B3B3" /><rect x="912" y="336" width="32" height="32" fill="#4D4D4D" /><rect x="880" y="16" width="32" height="32" fill="#B3B3B3" /><rect x="304" y="784" width="32" height="32" fill="#808080" /><g stroke="#000000" stroke-width="2" ><line x1="320" y1="784" x2="336" y2="800" /><line x1="304" y1="784" x2="336" y2="816" /><line x1="304" y1="800" x2="320" y2="816" /></g><rect x="560" y="336" width="32" height="32" fill="#4D4D4D" /><rect x="688" y="688" width="32" height="32" fill="#B3B3B3" /><rect x="496" y="16" width="32" height="32" fill="#B3B3B3" /><rect x="496" y="656" width="32" height="32" fill="#4D4D4D" /><rect x="368" y="16" width="32" height="32" fill="#B3B3B3" /><rect x="368" y="656" width="32" height="32" fill="#4D4D4D" /><rect x="272" y="688" width="32" height="32" fill="#B3B3B3" /><rect x="656" y="336" width="32" height="32" fill="#4D4D4D" /><rect x="368" y="336" width="32" height="32" fill="#4D4D4D" /><rect x="688" y="336" width="32" height="32" fill="#4D4D4D" /><rect x="336" y="688" width="32" height="32" fill="#B3B3B3" /><rect x="720" y="336" width="32" height="32" fill="#4D4D4D" /><rect x="752" y="336" width="32" height="32" fill="#4D4D4D" /><rect x="304" y="16" width="32" height="32" fill="#B3B3B3" /><rect x="656" y="688" width="32" height="32" fill="#B3B3B3" /><rect x="848" y="336" width="32" height="32" fill="#4D4D4D" /><rect x="784" y="336" width="32" height="32" fill="#4D4D4D" /><rect x="816" y="336" width="32" height="32" fill="#4D4D4D" /><rect x="112" y="656" width="32" height="32" fill="#4D4D4D" /><rect x="720" y="16" width="32" height="32" fill="#B3B3B3" /><rect x="944" y="336" width="32" height="32" fill="#808080" /><g stroke="#000000" stroke-width="2" ><line x1="960" y1="336" x2="976" y2="352" /><line x1="944" y1="336" x2="976" y2="368" /><line x1="944" y1="352" x2="960" y2="368" /></g><rect x="240" y="336" width="32" height="32" fill="#4D4D4D" /><rect x="272" y="336" width="32" height="32" fill="#4D4D4D" /><rect x="304" y="368" width="32" height="32" fill="#4D4D4D" /><rect x="272" y="464" width="32" height="32" fill="#808080" /><g stroke="#000000" stroke-width="2" ><line x1="288" y1="464" x2="304" y2="480" /><line x1="272" y1="464" x2="304" y2="496" /><line x1="272" y1="480" x2="288" y2="496" /></g><rect x="48" y="656" width="32" height="32" fill="#4D4D4D" /><rect x="624" y="656" width="32" height="32" fill="#4D4D4D" /><rect x="656" y="432" width="32" height="32" fill="#4D4D4D" /><rect x="720" y="656" width="32" height="32" fill="#4D4D4D" /><rect x="400" y="656" width="32" height="32" fill="#4D4D4D" /><rect x="656" y="464" width="32" height="32" fill="#808080" /><g stroke="#000000" stroke-width="2" ><line x1="672" y1="464" x2="688" y2="480" /><line x1="656" y1="464" x2="688" y2="496" /><line x1="656" y1="480" x2="672" y2="496" /></g><rect x="80" y="656" width="32" height="32" fill="#4D4D4D" /><rect x="400" y="16" width="32" height="32" fill="#B3B3B3" /><rect x="432" y="16" width="32" height="32" fill="#B3B3B3" /><rect x="688" y="464" width="32" height="32" fill="#808080" /><g stroke="#000000" stroke-width="2" ><line x1="704" y1="464" x2="720" y2="480" /><line x1="688" y1="464" x2="720" y2="496" /><line x1="688" y1="480" x2="704" y2="496" /></g><rect x="336" y="16" width="32" height="32" fill="#B3B3B3" /><rect x="16" y="656" width="32" height="32" fill="#808080" /><g stroke="#000000" stroke-width="2" ><line x1="32" y1="656" x2="48" y2="672" /><line x1="16" y1="656" x2="48" y2="688" /><line x1="16" y1="672" x2="32" y2="688" /></g><rect x="112" y="16" width="32" height="32" fill="#B3B3B3" /><rect x="592" y="336" width="32" height="32" fill="#4D4D4D" /><rect x="528" y="656" width="32" height="32" fill="#4D4D4D" /><rect x="208" y="656" width="32" height="32" fill="#4D4D4D" /><rect x="304" y="720" width="32" height="32" fill="#B3B3B3" /><rect x="240" y="656" width="32" height="32" fill="#4D4D4D" /><rect x="304" y="656" width="32" height="32" fill="#4D4D4D" /><rect x="944" y="656" width="32" height="32" fill="#808080" /><g stroke="#000000" stroke-width="2" ><line x1="960" y1="656" x2="976" y2="672" /><line x1="944" y1="656" x2="976" y2="688" /><line x1="944" y1="672" x2="960" y2="688" /></g><rect x="656" y="80" width="32" height="32" fill="#B3B3B3" /><rect x="912" y="656" width="32" height="32" fill="#4D4D4D" /><rect x="432" y="656" width="32" height="32" fill="#4D4D4D" /><rect x="560" y="656" width="32" height="32" fill="#4D4D4D" /><rect x="656" y="368" width="32" height="32" fill="#4D4D4D" /><rect x="656" y="752" width="32" height="32" fill="#B3B3B3" /><rect x="592" y="656" width="32" height="32" fill="#4D4D4D" /><rect x="624" y="336" width="32" height="32" fill="#4D4D4D" /><rect x="624" y="464" width="32" height="32" fill="#808080" /><g stroke="#000000" stroke-width="2" ><line x1="640" y1="464" x2="656" y2="480" /><line x1="624" y1="464" x2="656" y2="496" /><line x1="624" y1="480" x2="640" y2="496" /></g><rect x="688" y="656" width="32" height="32" fill="#4D4D4D" /><rect x="816" y="656" width="32" height="32" fill="#4D4D4D" /><rect x="656" y="144" width="32" height="32" fill="#808080" /><g stroke="#000000" stroke-width="2" ><line x1="672" y1="144" x2="688" y2="160" /><line x1="656" y1="144" x2="688" y2="176" /><line x1="656" y1="160" x2="672" y2="176" /></g><rect x="880" y="656" width="32" height="32" fill="#4D4D4D" /><rect x="304" y="688" width="32" height="32" fill="#B3B3B3" /><rect x="304" y="752" width="32" height="32" fill="#B3B3B3" /><rect x="272" y="16" width="32" height="32" fill="#B3B3B3" /><rect x="624" y="688" width="32" height="32" fill="#B3B3B3" /></g><text x="8" y="864" fill="#000000" font-size="24" >Block color (type/material):</text><g stroke="#000000" stroke-width="1" ><rect x="8" y="872" width="32" height="32" fill="#808080" /><rect x="8" y="912" width="32" height="32" fill="#4D4D4D" /><rect x="8" y="952" width="32" height="32" fill="#B3B3B3" /></g><g fill="#000000" font-size="12" ><text x="48" y="894" >Foundation</text><text x="48" y="934" >High shear strength</text><text x="48" y="974" >High compression strength</text></g><text x="8" y="1016" font-size="24" fill="#000000" >Block hatching:</text><rect x="8" y="1024" width="32" height="32" fill-opacity="0" stroke="#000000" stroke-width="1" /><g stroke="#000000" stroke-width="2" ><line x1="24" y1="1024" x2="40" y2="1040" /><line x1="8" y1="1024" x2="40" y2="1056" /><line x1="8" y1="1040" x2="24" y2="1056" /></g><text x="48" y="1046" font-size="12" fill="#000000" >Foundation</text><g stroke="#FFFFFF" stroke-width="1" ><path d="M666 725.497 L672 731.497 L678 725.497 L675 725.497 L675 720 L669 720 L669 725.497 Z" fill="#4BFF00" /><path d="M496 346 L502 352 L496 358 L496 355 L496 355 L496 349 L496 349 Z" fill="#00FF00" /><path d="M332.265 346 L326.265 352 L332.265 358 L332.265 355 L336 355 L336 349 L332.265 349 Z" fill="#33FF00" /><path d="M528.747 346 L534.747 352 L528.747 358 L528.747 355 L528 355 L528 349 L528.747 349 Z" fill="#0AFF00" /><path d="M594.241 26 L600.241 32 L594.241 38 L594.241 35 L592 35 L592 29 L594.241 29 Z" fill="#FFE500" /><path d="M365.012 346 L359.012 352 L365.012 358 L365.012 355 L368 355 L368 349 L365.012 349 Z" fill="#29FF00" /><path d="M496 666 L502 672 L496 678 L496 675 L496 675 L496 669 L496 669 Z" fill="#00FF00" /><path d="M365.012 666 L359.012 672 L365.012 678 L365.012 675 L368 675 L368 669 L365.012 669 Z" fill="#29FF00" /><path d="M885.707 666 L891.707 672 L885.707 678 L885.707 675 L880 675 L880 669 L885.707 669 Z" fill="#4EFF00" /><path d="M44.6482 26 L38.6482 32 L44.6482 38 L44.6482 35 L48 35 L48 29 L44.6482 29 Z" fill="#FF9A00" /><path d="M314 401.204 L320 407.204 L326 401.204 L323 401.204 L323 400 L317 400 L317 401.204 Z" fill="#A4FF00" /><path d="M561.494 346 L567.494 352 L561.494 358 L561.494 355 L560 355 L560 349 L561.494 349 Z" fill="#14FF00" /><path d="M208.381 26 L214.381 32 L208.381 38 L208.381 35 L208 35 L208 29 L208.381 29 Z" fill="#34FF00" /><path d="M947.352 26 L953.352 32 L947.352 38 L947.352 35 L944 35 L944 29 L947.352 29 Z" fill="#FF9A00" /><path d="M820.213 666 L826.213 672 L820.213 678 L820.213 675 L816 675 L816 669 L820.213 669 Z" fill="#3AFF00" /><path d="M666 401.204 L672 407.204 L678 401.204 L675 401.204 L675 400 L669 400 L669 401.204 Z" fill="#A4FF00" /><path d="M110.141 26 L104.141 32 L110.141 38 L110.141 35 L112 35 L112 29 L110.141 29 Z" fill="#FEFF00" /><path d="M314 87.8514 L320 93.8514 L326 87.8514 L323 87.8514 L323 80 L317 80 L317 87.8514 Z" fill="#6BFF00" /><path d="M881.859 26 L887.859 32 L881.859 38 L881.859 35 L880 35 L880 29 L881.859 29 Z" fill="#FEFF00" /><path d="M175.634 26 L169.634 32 L175.634 38 L175.634 35 L176 35 L176 29 L175.634 29 Z" fill="#32FF00" /><path d="M204.534 666 L198.534 672 L204.534 678 L204.534 675 L208 675 L208 669 L204.534 669 Z" fill="#2FFF00" /><path d="M659.735 26 L665.735 32 L659.735 38 L659.735 35 L656 35 L656 29 L659.735 29 Z" fill="#FF8000" /><path d="M241.127 26 L247.127 32 L241.127 38 L241.127 35 L240 35 L240 29 L241.127 29 Z" fill="#9AFF00" /><path d="M496 26 L490 32 L496 38 L496 35 L496 35 L496 29 L496 29 Z" fill="#00FF00" /><path d="M38 346 L32 352 L38 358 L38 355 L48 355 L48 349 L38 349 Z" fill="#89FF00" /><path d="M689.749 666 L695.749 672 L689.749 678 L689.749 675 L688 675 L688 669 L689.749 669 Z" fill="#18FF00" /><path d="M201.736 346 L195.736 352 L201.736 358 L201.736 355 L208 355 L208 349 L201.736 349 Z" fill="#56FF00" /><path d="M168.989 346 L162.989 352 L168.989 358 L168.989 355 L176 355 L176 349 L168.989 349 Z" fill="#60FF00" /><path d="M430.506 346 L424.506 352 L430.506 358 L430.506 355 L432 355 L432 349 L430.506 349 Z" fill="#14FF00" /><path d="M685.378 26 L679.378 32 L685.378 38 L685.378 35 L688 35 L688 29 L685.378 29 Z" fill="#FFCB00" /><path d="M302.251 666 L296.251 672 L302.251 678 L302.251 675 L304 675 L304 669 L302.251 669 Z" fill="#18FF00" /><path d="M463.253 346 L457.253 352 L463.253 358 L463.253 355 L464 355 L464 349 L463.253 349 Z" fill="#0AFF00" /><path d="M561.494 26 L567.494 32 L561.494 38 L561.494 35 L560 35 L560 29 L561.494 29 Z" fill="#CCFF00" /><path d="M70.747 346 L64.747 352 L70.747 358 L70.747 355 L80 355 L80 349 L70.747 349 Z" fill="#7EFF00" /><path d="M783.619 26 L777.619 32 L783.619 38 L783.619 35 L784 35 L784 29 L783.619 29 Z" fill="#34FF00" /><path d="M234.483 346 L228.483 352 L234.483 358 L234.483 355 L240 355 L240 349 L234.483 349 Z" fill="#4BFF00" /><path d="M787.466 666 L793.466 672 L787.466 678 L787.466 675 L784 675 L784 669 L787.466 669 Z" fill="#2FFF00" /><path d="M666 120.599 L672 126.599 L678 120.599 L675 120.599 L675 112 L669 112 L669 120.599 Z" fill="#75FF00" /><path d="M666 790.99 L672 796.99 L678 790.99 L675 790.99 L675 784 L669 784 L669 790.99 Z" fill="#5FFF00" /><path d="M849.112 26 L855.112 32 L849.112 38 L849.112 35 L848 35 L848 29 L849.112 29 Z" fill="#98FF00" /><path d="M103.494 346 L97.494 352 L103.494 358 L103.494 355 L112 355 L112 349 L103.494 349 Z" fill="#74FF00" /><path d="M136.241 346 L130.241 352 L136.241 358 L136.241 355 L144 355 L144 349 L136.241 349 Z" fill="#6AFF00" /><path d="M314 466.698 L320 472.698 L326 466.698 L323 466.698 L323 464 L317 464 L317 466.698 Z" fill="#FFC600" /><path d="M816.366 26 L822.366 32 L816.366 38 L816.366 35 L816 35 L816 29 L816.366 29 Z" fill="#32FF00" /><path d="M77.3949 26 L71.3949 32 L77.3949 38 L77.3949 35 L80 35 L80 29 L77.3949 29 Z" fill="#FFCD00" /><path d="M921.253 346 L927.253 352 L921.253 358 L921.253 355 L912 355 L912 349 L921.253 349 Z" fill="#7EFF00" /><path d="M666 55.1039 L672 61.1039 L678 55.1039 L675 55.1039 L675 48 L669 48 L669 55.1039 Z" fill="#61FF00" /><path d="M171.787 666 L165.787 672 L171.787 678 L171.787 675 L176 675 L176 669 L171.787 669 Z" fill="#3AFF00" /><path d="M314 153.346 L320 159.346 L326 153.346 L323 153.346 L323 144 L317 144 L317 153.346 Z" fill="#80FF00" /><path d="M314 433.951 L320 439.951 L326 433.951 L323 433.951 L323 432 L317 432 L317 433.951 Z" fill="#FFF900" /><path d="M314 120.599 L320 126.599 L326 120.599 L323 120.599 L323 112 L317 112 L317 120.599 Z" fill="#75FF00" /><path d="M273.874 26 L279.874 32 L273.874 38 L273.874 35 L272 35 L272 29 L273.874 29 Z" fill="#FFFF00" /><path d="M314 55.1039 L320 61.1039 L326 55.1039 L323 55.1039 L323 48 L317 48 L317 55.1039 Z" fill="#61FF00" /><path d="M626.988 26 L632.988 32 L626.988 38 L626.988 35 L624 35 L624 29 L626.988 29 Z" fill="#FFB300" /><path d="M718.126 26 L712.126 32 L718.126 38 L718.126 35 L720 35 L720 29 L718.126 29 Z" fill="#FFFF00" /><path d="M954 346 L960 352 L954 358 L954 355 L944 355 L944 349 L954 349 Z" fill="#89FF00" /><path d="M914.605 26 L920.605 32 L914.605 38 L914.605 35 L912 35 L912 29 L914.605 29 Z" fill="#FFCD00" /><path d="M314 790.99 L320 796.99 L326 790.99 L323 790.99 L323 784 L317 784 L317 790.99 Z" fill="#5FFF00" /><path d="M594.241 346 L600.241 352 L594.241 358 L594.241 355 L592 355 L592 349 L594.241 349 Z" fill="#1FFF00" /><path d="M698 688.525 L704 694.525 L710 688.525 L707 688.525 L707 688 L701 688 L701 688.525 Z" fill="#48FF00" /><path d="M528.747 26 L534.747 32 L528.747 38 L528.747 35 L528 35 L528 29 L528.747 29 Z" fill="#66FF00" /><path d="M528.747 666 L534.747 672 L528.747 678 L528.747 675 L528 675 L528 669 L528.747 669 Z" fill="#0AFF00" /><path d="M397.759 26 L391.759 32 L397.759 38 L397.759 35 L400 35 L400 29 L397.759 29 Z" fill="#FFE600" /><path d="M397.759 666 L391.759 672 L397.759 678 L397.759 675 L400 675 L400 669 L397.759 669 Z" fill="#1FFF00" /><path d="M305.271 698 L311.271 704 L305.271 710 L305.271 707 L304 707 L304 701 L305.271 701 Z" fill="#AEFF00" /><path d="M282 688.525 L288 694.525 L294 688.525 L291 688.525 L291 688 L285 688 L285 688.525 Z" fill="#48FF00" /><path d="M692.024 346 L698.024 352 L692.024 358 L692.024 355 L688 355 L688 349 L692.024 349 Z" fill="#37FF00" /><path d="M397.759 346 L391.759 352 L397.759 358 L397.759 355 L400 355 L400 349 L397.759 349 Z" fill="#1FFF00" /><path d="M724.77 346 L730.77 352 L724.77 358 L724.77 355 L720 355 L720 349 L724.77 349 Z" fill="#41FF00" /><path d="M346 688.761 L352 694.761 L358 688.761 L355 688.761 L355 688 L349 688 L349 688.761 Z" fill="#68FF00" /><path d="M757.517 346 L763.517 352 L757.517 358 L757.517 355 L752 355 L752 349 L757.517 349 Z" fill="#4BFF00" /><path d="M790.264 346 L796.264 352 L790.264 358 L790.264 355 L784 355 L784 349 L790.264 349 Z" fill="#56FF00" /><path d="M332.265 26 L326.265 32 L332.265 38 L332.265 35 L336 35 L336 29 L332.265 29 Z" fill="#FF8000" /><path d="M686.729 698 L680.729 704 L686.729 710 L686.729 707 L688 707 L688 701 L686.729 701 Z" fill="#AEFF00" /><path d="M666 689.971 L672 695.971 L678 689.971 L675 689.971 L675 688 L669 688 L669 689.971 Z" fill="#FFF800" /><path d="M888.506 346 L894.506 352 L888.506 358 L888.506 355 L880 355 L880 349 L888.506 349 Z" fill="#74FF00" /><path d="M823.011 346 L829.011 352 L823.011 358 L823.011 355 L816 355 L816 349 L823.011 349 Z" fill="#60FF00" /><path d="M855.759 346 L861.759 352 L855.759 358 L855.759 355 L848 355 L848 349 L855.759 349 Z" fill="#6AFF00" /><path d="M139.04 666 L133.04 672 L139.04 678 L139.04 675 L144 675 L144 669 L139.04 669 Z" fill="#44FF00" /><path d="M750.873 26 L744.873 32 L750.873 38 L750.873 35 L752 35 L752 29 L750.873 29 Z" fill="#9AFF00" /><path d="M267.23 346 L261.23 352 L267.23 358 L267.23 355 L272 355 L272 349 L267.23 349 Z" fill="#41FF00" /><path d="M299.976 346 L293.976 352 L299.976 358 L299.976 355 L304 355 L304 349 L299.976 349 Z" fill="#37FF00" /><path d="M314 368.457 L320 374.457 L326 368.457 L323 368.457 L323 368 L317 368 L317 368.457 Z" fill="#3EFF00" /><path d="M73.5457 666 L67.5457 672 L73.5457 678 L73.5457 675 L80 675 L80 669 L73.5457 669 Z" fill="#58FF00" /><path d="M658.974 666 L664.974 672 L658.974 678 L658.974 675 L656 675 L656 669 L658.974 669 Z" fill="#29FF00" /><path d="M666 433.951 L672 439.951 L678 433.951 L675 433.951 L675 432 L669 432 L669 433.951 Z" fill="#FFF900" /><path d="M754.718 666 L760.718 672 L754.718 678 L754.718 675 L752 675 L752 669 L754.718 669 Z" fill="#25FF00" /><path d="M430.506 666 L424.506 672 L430.506 678 L430.506 675 L432 675 L432 669 L430.506 669 Z" fill="#14FF00" /><path d="M666 466.698 L672 472.698 L678 466.698 L675 466.698 L675 464 L669 464 L669 466.698 Z" fill="#FFC600" /><path d="M106.293 666 L100.293 672 L106.293 678 L106.293 675 L112 675 L112 669 L106.293 669 Z" fill="#4EFF00" /><path d="M430.506 26 L424.506 32 L430.506 38 L430.506 35 L432 35 L432 29 L430.506 29 Z" fill="#CCFF00" /><path d="M463.253 26 L457.253 32 L463.253 38 L463.253 35 L464 35 L464 29 L463.253 29 Z" fill="#66FF00" /><path d="M365.012 26 L359.012 32 L365.012 38 L365.012 35 L368 35 L368 29 L365.012 29 Z" fill="#FFB200" /><path d="M40.7987 666 L34.7987 672 L40.7987 678 L40.7987 675 L48 675 L48 669 L40.7987 669 Z" fill="#62FF00" /><path d="M142.888 26 L136.888 32 L142.888 38 L142.888 35 L144 35 L144 29 L142.888 29 Z" fill="#98FF00" /><path d="M626.988 346 L632.988 352 L626.988 358 L626.988 355 L624 355 L624 349 L626.988 349 Z" fill="#29FF00" /><path d="M561.494 666 L567.494 672 L561.494 678 L561.494 675 L560 675 L560 669 L561.494 669 Z" fill="#14FF00" /><path d="M237.282 666 L231.282 672 L237.282 678 L237.282 675 L240 675 L240 669 L237.282 669 Z" fill="#25FF00" /><path d="M314 725.497 L320 731.497 L326 725.497 L323 725.497 L323 720 L317 720 L317 725.497 Z" fill="#4BFF00" /><path d="M270.028 666 L264.028 672 L270.028 678 L270.028 675 L272 675 L272 669 L270.028 669 Z" fill="#1BFF00" /><path d="M333.026 666 L327.026 672 L333.026 678 L333.026 675 L336 675 L336 669 L333.026 669 Z" fill="#29FF00" /><path d="M666 87.8514 L672 93.8514 L678 87.8514 L675 87.8514 L675 80 L669 80 L669 87.8514 Z" fill="#6BFF00" /><path d="M951.201 666 L957.201 672 L951.201 678 L951.201 675 L944 675 L944 669 L951.201 669 Z" fill="#62FF00" /><path d="M463.253 666 L457.253 672 L463.253 678 L463.253 675 L464 675 L464 669 L463.253 669 Z" fill="#0AFF00" /><path d="M594.241 666 L600.241 672 L594.241 678 L594.241 675 L592 675 L592 669 L594.241 669 Z" fill="#1FFF00" /><path d="M666 368.457 L672 374.457 L678 368.457 L675 368.457 L675 368 L669 368 L669 368.457 Z" fill="#3EFF00" /><path d="M666 758.243 L672 764.243 L678 758.243 L675 758.243 L675 752 L669 752 L669 758.243 Z" fill="#55FF00" /><path d="M626.988 666 L632.988 672 L626.988 678 L626.988 675 L624 675 L624 669 L626.988 669 Z" fill="#29FF00" /><path d="M659.735 346 L665.735 352 L659.735 358 L659.735 355 L656 355 L656 349 L659.735 349 Z" fill="#33FF00" /><path d="M721.972 666 L727.972 672 L721.972 678 L721.972 675 L720 675 L720 669 L721.972 669 Z" fill="#1BFF00" /><path d="M852.96 666 L858.96 672 L852.96 678 L852.96 675 L848 675 L848 669 L852.96 669 Z" fill="#44FF00" /><path d="M666 153.346 L672 159.346 L678 153.346 L675 153.346 L675 144 L669 144 L669 153.346 Z" fill="#80FF00" /><path d="M918.454 666 L924.454 672 L918.454 678 L918.454 675 L912 675 L912 669 L918.454 669 Z" fill="#58FF00" /><path d="M334.492 698 L328.492 704 L334.492 710 L334.492 707 L336 707 L336 701 L334.492 701 Z" fill="#CEFF00" /><path d="M314 689.971 L320 695.971 L326 689.971 L323 689.971 L323 688 L317 688 L317 689.971 Z" fill="#FFF800" /><path d="M314 758.243 L320 764.243 L326 758.243 L323 758.243 L323 752 L317 752 L317 758.243 Z" fill="#55FF00" /><path d="M306.622 26 L312.622 32 L306.622 38 L306.622 35 L304 35 L304 29 L306.622 29 Z" fill="#FFCB00" /><path d="M657.508 698 L663.508 704 L657.508 710 L657.508 707 L656 707 L656 701 L657.508 701 Z" fill="#CEFF00" /><path d="M634 688.761 L640 694.761 L646 688.761 L643 688.761 L643 688 L637 688 L637 688.761 Z" fill="#68FF00" /></g><text x="8" y="1088" font-size="24" fill="#000000" >Contact arrow color (max stress ratio):</text><g stroke="#000000" stroke-width="1" ><line x1="8" y1="1102" x2="48" y2="1102" /><line x1="8" y1="1118" x2="48" y2="1118" /><line x1="8" y1="1134" x2="48" y2="1134" /><line x1="8" y1="1230" x2="48" y2="1230" /></g><rect x="8" y="1096" width="32" height="6" fill="#00FF00" /><defs><linearGradient id="linGrad_0" x1="0" x2="0" y1="0" y2="1"><stop offset="0" stop-color="#00FF00" /><stop offset="1" stop-color="#FFFF00" /></linearGradient></defs><rect x="8" y="1102" width="32" height="16" fill="url(#linGrad_0)" /><defs><linearGradient id="linGrad_1" x1="0" x2="0" y1="0" y2="1"><stop offset="0" stop-color="#FFFF00" /><stop offset="1" stop-color="#FF8000" /></linearGradient></defs><rect x="8" y="1118" width="32" height="16" fill="url(#linGrad_1)" /><defs><linearGradient id="linGrad_2" x1="0" x2="0" y1="0" y2="1"><stop offset="0" stop-color="#FF0000" /><stop offset="1" stop-color="#1A0000" /></linearGradient></defs><rect x="8" y="1134" width="32" height="96" fill="url(#linGrad_2)" /><rect x="8" y="1230" width="32" height="6" fill="#1A0000" /><g font-size="12" fill="#000000" ><text x="56" y="1108" >0.00%</text><text x="56" y="1124" >50.00%</text><text x="56" y="1140" >100.00%</text><text x="56" y="1236" >400.00%</text></g><text x="8" y="1268" font-size="24" fill="#000000" >Contact arrow length (weight transfert):</text><g stroke-width="1" stroke="#000000" fill-opacity="0" ><rect x="8" y="1276" width="32" height="32" /><rect x="8" y="1316" width="32" height="32" /></g><g stroke-width="1" stroke="#FFFFFF" fill="#00FF00" ><path d="M8 1286 L14 1292 L8 1298 L8 1295 L8 1295 L8 1289 L8 1289 Z" /><path d="M18 1326 L24 1332 L18 1338 L18 1335 L8 1335 L8 1329 L18 1329 Z" /></g><g font-size="12" fill="#000000" ><text x="48" y="1298" >0 N</text><text x="48" y="1338" >2.67762e+06 N</text></g></svg>
