<svg width="592.0000228881836" height="892"  xmlns="http://www.w3.org/2000/svg" xmlns:xlink="http://www.w3.org/1999/xlink" version="1.1"><rect x="0" y="0" width="352" height="448" fill-opacity="0" stroke="#000000" stroke-width="1" /><g stroke="#000000" stroke-width="1" ><rect x="240" y="144" width="32" height="32" fill="#808080" /><rect x="240" y="208" width="32" height="32" fill="#808080" /><rect x="240" y="112" width="32" height="32" fill="#808080" /><rect x="240" y="304" width="32" height="32" fill="#808080" /><rect x="208" y="240" width="32" height="32" fill="#808080" /><rect x="80" y="400" width="32" height="32" fill="#808080" /><g stroke="#000000" stroke-width="2" ><line x1="96" y1="400" x2="112" y2="416" /><line x1="80" y1="400" x2="112" y2="432" /><line x1="80" y1="416" x2="96" y2="432" /></g><rect x="208" y="304" width="32" height="32" fill="#808080" /><rect x="272" y="336" width="32" height="32" fill="#808080" /><rect x="240" y="16" width="32" height="32" fill="#808080" /><rect x="240" y="336" width="32" height="32" fill="#808080" /><rect x="208" y="272" width="32" height="32" fill="#808080" /><rect x="208" y="336" width="32" height="32" fill="#808080" /><rect x="80" y="112" width="32" height="32" fill="#808080" /><rect x="272" y="304" width="32" height="32" fill="#808080" /><rect x="80" y="368" width="32" height="32" fill="#808080" /><rect x="272" y="368" width="32" height="32" fill="#808080" /><rect x="240" y="368" width="32" height="32" fill="#808080" /><rect x="208" y="400" width="32" height="32" fill="#808080" /><g stroke="#000000" stroke-width="2" ><line x1="224" y1="400" x2="240" y2="416" /><line x1="208" y1="400" x2="240" y2="432" /><line x1="208" y1="416" x2="224" y2="432" /></g><rect x="240" y="80" width="32" height="32" fill="#808080" /><rect x="48" y="400" width="32" height="32" fill="#808080" /><g stroke="#000000" stroke-width="2" ><line x1="64" y1="400" x2="80" y2="416" /><line x1="48" y1="400" x2="80" y2="432" /><line x1="48" y1="416" x2="64" y2="432" /></g><rect x="176" y="400" width="32" height="32" fill="#808080" /><g stroke="#000000" stroke-width="2" ><line x1="192" y1="400" x2="208" y2="416" /><line x1="176" y1="400" x2="208" y2="432" /><line x1="176" y1="416" x2="192" y2="432" /></g><rect x="80" y="176" width="32" height="32" fill="#808080" /><rect x="240" y="272" width="32" height="32" fill="#808080" /><rect x="112" y="400" width="32" height="32" fill="#808080" /><g stroke="#000000" stroke-width="2" ><line x1="128" y1="400" x2="144" y2="416" /><line x1="112" y1="400" x2="144" y2="432" /><line x1="112" y1="416" x2="128" y2="432" /></g><rect x="240" y="400" width="32" height="32" fill="#808080" /><g stroke="#000000" stroke-width="2" ><line x1="256" y1="400" x2="272" y2="416" /><line x1="240" y1="400" x2="272" y2="432" /><line x1="240" y1="416" x2="256" y2="432" /></g><rect x="272" y="400" width="32" height="32" fill="#808080" /><g stroke="#000000" stroke-width="2" ><line x1="288" y1="400" x2="304" y2="416" /><line x1="272" y1="400" x2="304" y2="432" /><line x1="272" y1="416" x2="288" y2="432" /></g><rect x="304" y="400" width="32" height="32" fill="#808080" /><g stroke="#000000" stroke-width="2" ><line x1="320" y1="400" x2="336" y2="416" /><line x1="304" y1="400" x2="336" y2="432" /><line x1="304" y1="416" x2="320" y2="432" /></g><rect x="240" y="48" width="32" height="32" fill="#808080" /><rect x="16" y="400" width="32" height="32" fill="#808080" /><g stroke="#000000" stroke-width="2" ><line x1="32" y1="400" x2="48" y2="416" /><line x1="16" y1="400" x2="48" y2="432" /><line x1="16" y1="416" x2="32" y2="432" /></g><rect x="80" y="80" width="32" height="32" fill="#808080" /><rect x="240" y="240" width="32" height="32" fill="#808080" /><rect x="272" y="240" width="32" height="32" fill="#808080" /><rect x="240" y="176" width="32" height="32" fill="#808080" /><rect x="80" y="144" width="32" height="32" fill="#808080" /><rect x="80" y="240" width="32" height="32" fill="#808080" /><rect x="80" y="208" width="32" height="32" fill="#808080" /><rect x="144" y="400" width="32" height="32" fill="#808080" /><g stroke="#000000" stroke-width="2" ><line x1="160" y1="400" x2="176" y2="416" /><line x1="144" y1="400" x2="176" y2="432" /><line x1="144" y1="416" x2="160" y2="432" /></g><rect x="208" y="368" width="32" height="32" fill="#808080" /><rect x="80" y="304" width="32" height="32" fill="#808080" /><rect x="80" y="336" width="32" height="32" fill="#808080" /><rect x="272" y="272" width="32" height="32" fill="#808080" /><rect x="80" y="272" width="32" height="32" fill="#808080" /></g><text x="8" y="480" fill="#000000" font-size="24" >Block color (type/material):</text><g stroke="#000000" stroke-width="1" ><rect x="8" y="488" width="32" height="32" fill="#808080" /></g><g fill="#000000" font-size="12" ><text x="48" y="510" >Demo block</text></g><text x="8" y="552" font-size="24" fill="#000000" >Block hatching:</text><rect x="8" y="560" width="32" height="32" fill-opacity="0" stroke="#000000" stroke-width="1" /><g stroke="#000000" stroke-width="2" ><line x1="24" y1="560" x2="40" y2="576" /><line x1="8" y1="560" x2="40" y2="592" /><line x1="8" y1="576" x2="24" y2="592" /></g><text x="48" y="582" font-size="12" fill="#000000" >Foundation</text><g stroke="#FFFFFF" stroke-width="1" ><path d="M250 148 L256 154 L262 148 L259 148 L259 144 L253 144 L253 148 Z" fill="#FFFF00" /><path d="M250 214 L256 220 L262 214 L259 214 L259 208 L253 208 L253 214 Z" fill="#FFBF00" /><path d="M250 115 L256 121 L262 115 L259 115 L259 112 L253 112 L253 115 Z" fill="#BFFF00" /><path d="M272.081 314 L278.081 320 L272.081 326 L272.081 323 L272 323 L272 317 L272.081 317 Z" fill="#05FF00" /><path d="M250 308.536 L256 314.536 L262 308.536 L259 308.536 L259 304 L253 304 L253 308.536 Z" fill="#FFEE00" /><path d="M238.154 250 L232.154 256 L238.154 262 L238.154 259 L240 259 L240 253 L238.154 253 Z" fill="#76FF00" /><path d="M90 410 L96 416 L102 410 L99 410 L99 400 L93 400 L93 410 Z" fill="#EC0000" /><path d="M239.919 314 L233.919 320 L239.919 326 L239.919 323 L240 323 L240 317 L239.919 317 Z" fill="#05FF00" /><path d="M218 308.232 L224 314.232 L230 308.232 L227 308.232 L227 304 L221 304 L221 308.232 Z" fill="#FFF800" /><path d="M282 341.312 L288 347.312 L294 341.312 L291 341.312 L291 336 L285 336 L285 341.312 Z" fill="#FFD500" /><path d="M272.017 346 L278.017 352 L272.017 358 L272.017 355 L272 355 L272 349 L272.017 349 Z" fill="#01FF00" /><path d="M250 341.376 L256 347.376 L262 341.376 L259 341.376 L259 336 L253 336 L253 341.376 Z" fill="#FFD300" /><path d="M239.615 282 L233.615 288 L239.615 294 L239.615 291 L240 291 L240 285 L239.615 285 Z" fill="#19FF00" /><path d="M218 274.846 L224 280.846 L230 274.846 L227 274.846 L227 272 L221 272 L221 274.846 Z" fill="#B5FF00" /><path d="M239.983 346 L233.983 352 L239.983 358 L239.983 355 L240 355 L240 349 L239.983 349 Z" fill="#01FF00" /><path d="M218 341.312 L224 347.312 L230 341.312 L227 341.312 L227 336 L221 336 L221 341.312 Z" fill="#FFD500" /><path d="M90 113 L96 119 L102 113 L99 113 L99 112 L93 112 L93 113 Z" fill="#40FF00" /><path d="M282 308.232 L288 314.232 L294 308.232 L291 308.232 L291 304 L285 304 L285 308.232 Z" fill="#FFF800" /><path d="M90 377 L96 383 L102 377 L99 377 L99 368 L93 368 L93 377 Z" fill="#F50000" /><path d="M282 374.329 L288 380.329 L294 374.329 L291 374.329 L291 368 L285 368 L285 374.329 Z" fill="#FFB500" /><path d="M272.003 378 L278.003 384 L272.003 390 L272.003 387 L272 387 L272 381 L272.003 381 Z" fill="#00FF00" /><path d="M250 374.342 L256 380.342 L262 374.342 L259 374.342 L259 368 L253 368 L253 374.342 Z" fill="#FFB400" /><path d="M218 407.332 L224 413.332 L230 407.332 L227 407.332 L227 400 L221 400 L221 407.332 Z" fill="#FF9500" /><path d="M250 82 L256 88 L262 82 L259 82 L259 80 L253 80 L253 82 Z" fill="#80FF00" /><path d="M90 179 L96 185 L102 179 L99 179 L99 176 L93 176 L93 179 Z" fill="#BFFF00" /><path d="M272.385 282 L278.385 288 L272.385 294 L272.385 291 L272 291 L272 285 L272.385 285 Z" fill="#19FF00" /><path d="M250 276.308 L256 282.308 L262 276.308 L259 276.308 L259 272 L253 272 L253 276.308 Z" fill="#FFF500" /><path d="M250 407.336 L256 413.336 L262 407.336 L259 407.336 L259 400 L253 400 L253 407.336 Z" fill="#FF9500" /><path d="M282 407.332 L288 413.332 L294 407.332 L291 407.332 L291 400 L285 400 L285 407.332 Z" fill="#FF9500" /><path d="M250 49 L256 55 L262 49 L259 49 L259 48 L253 48 L253 49 Z" fill="#40FF00" /><path d="M273.846 250 L279.846 256 L273.846 262 L273.846 259 L272 259 L272 253 L273.846 253 Z" fill="#76FF00" /><path d="M250 247 L256 253 L262 247 L259 247 L259 240 L253 240 L253 247 Z" fill="#FF9F00" /><path d="M250 181 L256 187 L262 181 L259 181 L259 176 L253 176 L253 181 Z" fill="#FFDF00" /><path d="M90 146 L96 152 L102 146 L99 146 L99 144 L93 144 L93 146 Z" fill="#80FF00" /><path d="M90 245 L96 251 L102 245 L99 245 L99 240 L93 240 L93 245 Z" fill="#FFDF00" /><path d="M90 212 L96 218 L102 212 L99 212 L99 208 L93 208 L93 212 Z" fill="#FFFF00" /><path d="M239.997 378 L233.997 384 L239.997 390 L239.997 387 L240 387 L240 381 L239.997 381 Z" fill="#00FF00" /><path d="M218 374.329 L224 380.329 L230 374.329 L227 374.329 L227 368 L221 368 L221 374.329 Z" fill="#FFB500" /><path d="M90 311 L96 317 L102 311 L99 311 L99 304 L93 304 L93 311 Z" fill="#FF9F00" /><path d="M90 344 L96 350 L102 344 L99 344 L99 336 L93 336 L93 344 Z" fill="#FF8000" /><path d="M282 274.846 L288 280.846 L294 274.846 L291 274.846 L291 272 L285 272 L285 274.846 Z" fill="#B5FF00" /><path d="M90 278 L96 284 L102 278 L99 278 L99 272 L93 272 L93 278 Z" fill="#FFBF00" /></g><text x="8" y="624" font-size="24" fill="#000000" >Contact arrow color (max stress ratio):</text><g stroke="#000000" stroke-width="1" ><line x1="8" y1="638" x2="48" y2="638" /><line x1="8" y1="654" x2="48" y2="654" /><line x1="8" y1="670" x2="48" y2="670" /><line x1="8" y1="766" x2="48" y2="766" /></g><rect x="8" y="632" width="32" height="6" fill="#00FF00" /><defs><linearGradient id="linGrad_0" x1="0" x2="0" y1="0" y2="1"><stop offset="0" stop-color="#00FF00" /><stop offset="1" stop-color="#FFFF00" /></linearGradient></defs><rect x="8" y="638" width="32" height="16" fill="url(#linGrad_0)" /><defs><linearGradient id="linGrad_1" x1="0" x2="0" y1="0" y2="1"><stop offset="0" stop-color="#FFFF00" /><stop offset="1" stop-color="#FF8000" /></linearGradient></defs><rect x="8" y="654" width="32" height="16" fill="url(#linGrad_1)" /><defs><linearGradient id="linGrad_2" x1="0" x2="0" y1="0" y2="1"><stop offset="0" stop-color="#FF0000" /><stop offset="1" stop-color="#1A0000" /></linearGradient></defs><rect x="8" y="670" width="32" height="96" fill="url(#linGrad_2)" /><rect x="8" y="766" width="32" height="6" fill="#1A0000" /><g font-size="12" fill="#000000" ><text x="56" y="644" >0.00%</text><text x="56" y="660" >50.00%</text><text x="56" y="676" >100.00%</text><text x="56" y="772" >400.00%</text></g><text x="8" y="804" font-size="24" fill="#000000" >Contact arrow length (weight transfert):</text><g stroke-width="1" stroke="#000000" fill-opacity="0" ><rect x="8" y="812" width="32" height="32" /><rect x="8" y="852" width="32" height="32" /></g><g stroke-width="1" stroke="#FFFFFF" fill="#00FF00" ><path d="M8 822 L14 828 L8 834 L8 831 L8 831 L8 825 L8 825 Z" /><path d="M18 862 L24 868 L18 874 L18 871 L8 871 L8 865 L18 865 Z" /></g><g font-size="12" fill="#000000" ><text x="48" y="834" >0 N</text><text x="48" y="874" >1e+06 N</text></g></svg>
