<svg width="592.0000228881836" height="812"  xmlns="http://www.w3.org/2000/svg" xmlns:xlink="http://www.w3.org/1999/xlink" version="1.1"><rect x="0" y="0" width="320" height="288" fill-opacity="0" stroke="#000000" stroke-width="1" /><g stroke="#000000" stroke-width="1" ><rect x="48" y="144" width="32" height="32" fill="#4D4D4D" /><rect x="48" y="176" width="32" height="32" fill="#4D4D4D" /><rect x="48" y="240" width="32" height="32" fill="#808080" /><g stroke="#000000" stroke-width="2" ><line x1="64" y1="240" x2="80" y2="256" /><line x1="48" y1="240" x2="80" y2="272" /><line x1="48" y1="256" x2="64" y2="272" /></g><rect x="176" y="240" width="32" height="32" fill="#808080" /><g stroke="#000000" stroke-width="2" ><line x1="192" y1="240" x2="208" y2="256" /><line x1="176" y1="240" x2="208" y2="272" /><line x1="176" y1="256" x2="192" y2="272" /></g><rect x="240" y="112" width="32" height="32" fill="#B3B3B3" /><rect x="272" y="240" width="32" height="32" fill="#808080" /><g stroke="#000000" stroke-width="2" ><line x1="288" y1="240" x2="304" y2="256" /><line x1="272" y1="240" x2="304" y2="272" /><line x1="272" y1="256" x2="288" y2="272" /></g><rect x="240" y="240" width="32" height="32" fill="#808080" /><g stroke="#000000" stroke-width="2" ><line x1="256" y1="240" x2="272" y2="256" /><line x1="240" y1="240" x2="272" y2="272" /><line x1="240" y1="256" x2="256" y2="272" /></g><rect x="144" y="112" width="32" height="32" fill="#B3B3B3" /><rect x="208" y="240" width="32" height="32" fill="#808080" /><g stroke="#000000" stroke-width="2" ><line x1="224" y1="240" x2="240" y2="256" /><line x1="208" y1="240" x2="240" y2="272" /><line x1="208" y1="256" x2="224" y2="272" /></g><rect x="240" y="208" width="32" height="32" fill="#4D4D4D" /><rect x="144" y="240" width="32" height="32" fill="#808080" /><g stroke="#000000" stroke-width="2" ><line x1="160" y1="240" x2="176" y2="256" /><line x1="144" y1="240" x2="176" y2="272" /><line x1="144" y1="256" x2="160" y2="272" /></g><rect x="112" y="240" width="32" height="32" fill="#808080" /><g stroke="#000000" stroke-width="2" ><line x1="128" y1="240" x2="144" y2="256" /><line x1="112" y1="240" x2="144" y2="272" /><line x1="112" y1="256" x2="128" y2="272" /></g><rect x="80" y="240" width="32" height="32" fill="#808080" /><g stroke="#000000" stroke-width="2" ><line x1="96" y1="240" x2="112" y2="256" /><line x1="80" y1="240" x2="112" y2="272" /><line x1="80" y1="256" x2="96" y2="272" /></g><rect x="48" y="208" width="32" height="32" fill="#4D4D4D" /><rect x="144" y="48" width="32" height="32" fill="#B3B3B3" /><rect x="144" y="80" width="32" height="32" fill="#B3B3B3" /><rect x="240" y="144" width="32" height="32" fill="#4D4D4D" /><rect x="144" y="144" width="32" height="32" fill="#B3B3B3" /><rect x="144" y="208" width="32" height="32" fill="#B3B3B3" /><rect x="144" y="176" width="32" height="32" fill="#B3B3B3" /><rect x="240" y="80" width="32" height="32" fill="#B3B3B3" /><rect x="240" y="16" width="32" height="32" fill="#B3B3B3" /><rect x="48" y="80" width="32" height="32" fill="#4D4D4D" /><rect x="48" y="48" width="32" height="32" fill="#4D4D4D" /><rect x="16" y="240" width="32" height="32" fill="#808080" /><g stroke="#000000" stroke-width="2" ><line x1="32" y1="240" x2="48" y2="256" /><line x1="16" y1="240" x2="48" y2="272" /><line x1="16" y1="256" x2="32" y2="272" /></g><rect x="240" y="176" width="32" height="32" fill="#4D4D4D" /><rect x="48" y="112" width="32" height="32" fill="#4D4D4D" /><rect x="240" y="48" width="32" height="32" fill="#B3B3B3" /></g><text x="8" y="320" fill="#000000" font-size="24" >Block color (type/material):</text><g stroke="#000000" stroke-width="1" ><rect x="8" y="328" width="32" height="32" fill="#808080" /><rect x="8" y="368" width="32" height="32" fill="#B3B3B3" /><rect x="8" y="408" width="32" height="32" fill="#4D4D4D" /></g><g fill="#000000" font-size="12" ><text x="48" y="350" >Ground</text><text x="48" y="390" >Light material</text><text x="48" y="430" >Heavy material</text></g><text x="8" y="472" font-size="24" fill="#000000" >Block hatching:</text><rect x="8" y="480" width="32" height="32" fill-opacity="0" stroke="#000000" stroke-width="1" /><g stroke="#000000" stroke-width="2" ><line x1="24" y1="480" x2="40" y2="496" /><line x1="8" y1="480" x2="40" y2="512" /><line x1="8" y1="496" x2="24" y2="512" /></g><text x="48" y="502" font-size="12" fill="#000000" >Foundation</text><g stroke="#FFFFFF" stroke-width="1" ><path d="M58 149 L64 155 L70 149 L67 149 L67 144 L61 144 L61 149 Z" fill="#FFED00" /><path d="M58 182.667 L64 188.667 L70 182.667 L67 182.667 L67 176 L61 176 L61 182.667 Z" fill="#FFBD00" /><path d="M58 250 L64 256 L70 250 L67 250 L67 240 L61 240 L61 250 Z" fill="#F40000" /><path d="M250 114.5 L256 120.5 L262 114.5 L259 114.5 L259 112 L253 112 L253 114.5 Z" fill="#FFED00" /><path d="M250 248.333 L256 254.333 L262 248.333 L259 248.333 L259 240 L253 240 L253 248.333 Z" fill="#FF8C00" /><path d="M154 113.667 L160 119.667 L166 113.667 L163 113.667 L163 112 L157 112 L157 113.667 Z" fill="#C2FF00" /><path d="M250 214.667 L256 220.667 L262 214.667 L259 214.667 L259 208 L253 208 L253 214.667 Z" fill="#FFBD00" /><path d="M154 245 L160 251 L166 245 L163 245 L163 240 L157 240 L157 245 Z" fill="#F40000" /><path d="M58 216.333 L64 222.333 L70 216.333 L67 216.333 L67 208 L61 208 L61 216.333 Z" fill="#FF8C00" /><path d="M154 80.8333 L160 86.8333 L166 80.8333 L163 80.8333 L163 80 L157 80 L157 80.8333 Z" fill="#61FF00" /><path d="M250 147.333 L256 153.333 L262 147.333 L259 147.333 L259 144 L253 144 L253 147.333 Z" fill="#FFBD00" /><path d="M154 146.5 L160 152.5 L166 146.5 L163 146.5 L163 144 L157 144 L157 146.5 Z" fill="#FFED00" /><path d="M154 212.167 L160 218.167 L166 212.167 L163 212.167 L163 208 L157 208 L157 212.167 Z" fill="#FF8C00" /><path d="M154 179.333 L160 185.333 L166 179.333 L163 179.333 L163 176 L157 176 L157 179.333 Z" fill="#FFBD00" /><path d="M250 81.6667 L256 87.6667 L262 81.6667 L259 81.6667 L259 80 L253 80 L253 81.6667 Z" fill="#C2FF00" /><path d="M58 81.6667 L64 87.6667 L70 81.6667 L67 81.6667 L67 80 L61 80 L61 81.6667 Z" fill="#61FF00" /><path d="M250 181 L256 187 L262 181 L259 181 L259 176 L253 176 L253 181 Z" fill="#FFED00" /><path d="M58 115.333 L64 121.333 L70 115.333 L67 115.333 L67 112 L61 112 L61 115.333 Z" fill="#C2FF00" /><path d="M250 48.8333 L256 54.8333 L262 48.8333 L259 48.8333 L259 48 L253 48 L253 48.8333 Z" fill="#61FF00" /></g><text x="8" y="544" font-size="24" fill="#000000" >Contact arrow color (max stress ratio):</text><g stroke="#000000" stroke-width="1" ><line x1="8" y1="558" x2="48" y2="558" /><line x1="8" y1="574" x2="48" y2="574" /><line x1="8" y1="590" x2="48" y2="590" /><line x1="8" y1="686" x2="48" y2="686" /></g><rect x="8" y="552" width="32" height="6" fill="#00FF00" /><defs><linearGradient id="linGrad_0" x1="0" x2="0" y1="0" y2="1"><stop offset="0" stop-color="#00FF00" /><stop offset="1" stop-color="#FFFF00" /></linearGradient></defs><rect x="8" y="558" width="32" height="16" fill="url(#linGrad_0)" /><defs><linearGradient id="linGrad_1" x1="0" x2="0" y1="0" y2="1"><stop offset="0" stop-color="#FFFF00" /><stop offset="1" stop-color="#FF8000" /></linearGradient></defs><rect x="8" y="574" width="32" height="16" fill="url(#linGrad_1)" /><defs><linearGradient id="linGrad_2" x1="0" x2="0" y1="0" y2="1"><stop offset="0" stop-color="#FF0000" /><stop offset="1" stop-color="#1A0000" /></linearGradient></defs><rect x="8" y="590" width="32" height="96" fill="url(#linGrad_2)" /><rect x="8" y="686" width="32" height="6" fill="#1A0000" /><g font-size="12" fill="#000000" ><text x="56" y="564" >0.00%</text><text x="56" y="580" >50.00%</text><text x="56" y="596" >100.00%</text><text x="56" y="692" >400.00%</text></g><text x="8" y="724" font-size="24" fill="#000000" >Contact arrow length (weight transfert):</text><g stroke-width="1" stroke="#000000" fill-opacity="0" ><rect x="8" y="732" width="32" height="32" /><rect x="8" y="772" width="32" height="32" /></g><g stroke-width="1" stroke="#FFFFFF" fill="#00FF00" ><path d="M8 742 L14 748 L8 754 L8 751 L8 751 L8 745 L8 745 Z" /><path d="M18 782 L24 788 L18 794 L18 791 L8 791 L8 785 L18 785 Z" /></g><g font-size="12" fill="#000000" ><text x="48" y="754" >0 N</text><text x="48" y="794" >1.14e+06 N</text></g></svg>
