<svg width="192" height="320"  xmlns="http://www.w3.org/2000/svg" xmlns:xlink="http://www.w3.org/1999/xlink" version="1.1"><rect x="0" y="0" width="192" height="320" fill-opacity="0" stroke="#000000" stroke-width="1" /><g stroke="#000000" stroke-width="1" ><rect x="144" y="272" width="32" height="32" fill="#808080" /><g stroke="#000000" stroke-width="2" ><line x1="160" y1="272" x2="176" y2="288" /><line x1="144" y1="272" x2="176" y2="304" /><line x1="144" y1="288" x2="160" y2="304" /></g><rect x="80" y="144" width="32" height="32" fill="#808080" /><rect x="112" y="144" width="32" height="32" fill="#808080" /><rect x="16" y="16" width="32" height="32" fill="#CCCCCC" /><rect x="16" y="48" width="32" height="32" fill="#CCCCCC" /><rect x="16" y="112" width="32" height="32" fill="#CCCCCC" /><rect x="144" y="16" width="32" height="32" fill="#CCCCCC" /><rect x="112" y="16" width="32" height="32" fill="#CCCCCC" /><rect x="144" y="144" width="32" height="32" fill="#808080" /><rect x="144" y="208" width="32" height="32" fill="#808080" /><rect x="16" y="176" width="32" height="32" fill="#808080" /><rect x="144" y="240" width="32" height="32" fill="#808080" /><rect x="16" y="272" width="32" height="32" fill="#808080" /><g stroke="#000000" stroke-width="2" ><line x1="32" y1="272" x2="48" y2="288" /><line x1="16" y1="272" x2="48" y2="304" /><line x1="16" y1="288" x2="32" y2="304" /></g><rect x="48" y="144" width="32" height="32" fill="#808080" /><rect x="16" y="240" width="32" height="32" fill="#808080" /><rect x="144" y="176" width="32" height="32" fill="#808080" /><rect x="16" y="144" width="32" height="32" fill="#808080" /><rect x="16" y="208" width="32" height="32" fill="#808080" /><rect x="16" y="80" width="32" height="32" fill="#CCCCCC" /></g><g stroke="#FFFFFF" stroke-width="1" ><path d="M154 280.371 L160 286.371 L166 280.371 L163 280.371 L163 272 L157 272 L157 280.371 Z" fill="#D1FF00" /><path d="M154 247.146 L160 253.146 L166 247.146 L163 247.146 L163 240 L157 240 L157 247.146 Z" fill="#B3FF00" /><path d="M154 213.92 L160 219.92 L166 213.92 L163 213.92 L163 208 L157 208 L157 213.92 Z" fill="#94FF00" /><path d="M81.0187 154 L87.0187 160 L81.0187 166 L81.0187 163 L80 163 L80 157 L81.0187 157 Z" fill="#19FF00" /><path d="M26 282 L32 288 L38 282 L35 282 L35 272 L29 272 L29 282 Z" fill="#FAFF00" /><path d="M47.7944 154 L41.7944 160 L47.7944 166 L47.7944 163 L48 163 L48 157 L47.7944 157 Z" fill="#05FF00" /><path d="M26 148.899 L32 154.899 L38 148.899 L35 148.899 L35 144 L29 144 L29 148.899 Z" fill="#EE0000" /><path d="M26 182.328 L32 188.328 L38 182.328 L35 182.328 L35 176 L29 176 L29 182.328 Z" fill="#9EFF00" /><path d="M154 180.694 L160 186.694 L166 180.694 L163 180.694 L163 176 L157 176 L157 180.694 Z" fill="#75FF00" /><path d="M26 248.776 L32 254.776 L38 248.776 L35 248.776 L35 240 L29 240 L29 248.776 Z" fill="#DBFF00" /><path d="M114.243 154 L120.243 160 L114.243 166 L114.243 163 L112 163 L112 157 L114.243 157 Z" fill="#38FF00" /><path d="M147.469 154 L153.469 160 L147.469 166 L147.469 163 L144 163 L144 157 L147.469 157 Z" fill="#57FF00" /><path d="M26 215.552 L32 221.552 L38 215.552 L35 215.552 L35 208 L29 208 L29 215.552 Z" fill="#BDFF00" /><path d="M26 82.4494 L32 88.4494 L38 82.4494 L35 82.4494 L35 80 L29 80 L29 82.4494 Z" fill="#FFE000" /><path d="M26 115.674 L32 121.674 L38 115.674 L35 115.674 L35 112 L29 112 L29 115.674 Z" fill="#FF8500" /><path d="M26 49.2247 L32 55.2247 L38 49.2247 L35 49.2247 L35 48 L29 48 L29 49.2247 Z" fill="#99FF00" /></g></svg>
