<svg width="832" height="2396"  xmlns="http://www.w3.org/2000/svg" xmlns:xlink="http://www.w3.org/1999/xlink" version="1.1"><rect x="0" y="0" width="832" height="1952" fill-opacity="0" stroke="#000000" stroke-width="1" /><g stroke="#000000" stroke-width="1" ><rect x="560" y="1648" width="32" height="32" fill="#808080" /><rect x="400" y="912" width="32" height="32" fill="#808080" /><rect x="464" y="1648" width="32" height="32" fill="#808080" /><rect x="400" y="1648" width="32" height="32" fill="#808080" /><rect x="304" y="1648" width="32" height="32" fill="#808080" /><rect x="624" y="1808" width="32" height="32" fill="#808080" /><rect x="240" y="1648" width="32" height="32" fill="#808080" /><rect x="176" y="1648" width="32" height="32" fill="#808080" /><rect x="592" y="1616" width="32" height="32" fill="#808080" /><rect x="272" y="1616" width="32" height="32" fill="#808080" /><rect x="496" y="1168" width="32" height="32" fill="#808080" /><rect x="240" y="1616" width="32" height="32" fill="#808080" /><rect x="464" y="1264" width="32" height="32" fill="#808080" /><rect x="432" y="1168" width="32" height="32" fill="#808080" /><rect x="496" y="1648" width="32" height="32" fill="#808080" /><rect x="496" y="1360" width="32" height="32" fill="#808080" /><rect x="336" y="176" width="32" height="32" fill="#808080" /><rect x="336" y="976" width="32" height="32" fill="#808080" /><rect x="592" y="1584" width="32" height="32" fill="#808080" /><rect x="496" y="1584" width="32" height="32" fill="#808080" /><rect x="368" y="1584" width="32" height="32" fill="#808080" /><rect x="240" y="1584" width="32" height="32" fill="#808080" /><rect x="624" y="1552" width="32" height="32" fill="#808080" /><rect x="400" y="720" width="32" height="32" fill="#808080" /><rect x="496" y="1552" width="32" height="32" fill="#808080" /><rect x="400" y="1616" width="32" height="32" fill="#808080" /><rect x="464" y="1552" width="32" height="32" fill="#808080" /><rect x="432" y="1648" width="32" height="32" fill="#808080" /><rect x="432" y="1552" width="32" height="32" fill="#808080" /><rect x="272" y="1456" width="32" height="32" fill="#808080" /><rect x="400" y="1552" width="32" height="32" fill="#808080" /><rect x="304" y="1552" width="32" height="32" fill="#808080" /><rect x="496" y="1136" width="32" height="32" fill="#808080" /><rect x="272" y="1552" width="32" height="32" fill="#808080" /><rect x="592" y="1776" width="32" height="32" fill="#808080" /><rect x="208" y="1552" width="32" height="32" fill="#808080" /><rect x="464" y="1232" width="32" height="32" fill="#808080" /><rect x="432" y="880" width="32" height="32" fill="#808080" /><rect x="176" y="1552" width="32" height="32" fill="#808080" /><rect x="400" y="1584" width="32" height="32" fill="#808080" /><rect x="464" y="1520" width="32" height="32" fill="#808080" /><rect x="496" y="1328" width="32" height="32" fill="#808080" /><rect x="656" y="1904" width="32" height="32" fill="#808080" /><g stroke="#000000" stroke-width="2" ><line x1="672" y1="1904" x2="688" y2="1920" /><line x1="656" y1="1904" x2="688" y2="1936" /><line x1="656" y1="1920" x2="672" y2="1936" /></g><rect x="432" y="1520" width="32" height="32" fill="#808080" /><rect x="208" y="1904" width="32" height="32" fill="#808080" /><g stroke="#000000" stroke-width="2" ><line x1="224" y1="1904" x2="240" y2="1920" /><line x1="208" y1="1904" x2="240" y2="1936" /><line x1="208" y1="1920" x2="224" y2="1936" /></g><rect x="272" y="1520" width="32" height="32" fill="#808080" /><rect x="336" y="912" width="32" height="32" fill="#808080" /><rect x="208" y="1520" width="32" height="32" fill="#808080" /><rect x="176" y="1520" width="32" height="32" fill="#808080" /><rect x="336" y="1200" width="32" height="32" fill="#808080" /><rect x="560" y="1712" width="32" height="32" fill="#808080" /><rect x="464" y="1584" width="32" height="32" fill="#808080" /><rect x="496" y="1392" width="32" height="32" fill="#808080" /><rect x="528" y="1488" width="32" height="32" fill="#808080" /><rect x="336" y="1008" width="32" height="32" fill="#808080" /><rect x="400" y="1168" width="32" height="32" fill="#808080" /><rect x="432" y="1584" width="32" height="32" fill="#808080" /><rect x="496" y="1488" width="32" height="32" fill="#808080" /><rect x="240" y="1552" width="32" height="32" fill="#808080" /><rect x="368" y="1552" width="32" height="32" fill="#808080" /><rect x="304" y="1488" width="32" height="32" fill="#808080" /><rect x="176" y="1808" width="32" height="32" fill="#808080" /><rect x="240" y="1488" width="32" height="32" fill="#808080" /><rect x="464" y="1136" width="32" height="32" fill="#808080" /><rect x="560" y="1456" width="32" height="32" fill="#808080" /><rect x="464" y="944" width="32" height="32" fill="#808080" /><rect x="400" y="976" width="32" height="32" fill="#808080" /><rect x="400" y="624" width="32" height="32" fill="#808080" /><rect x="464" y="720" width="32" height="32" fill="#808080" /><rect x="624" y="1680" width="32" height="32" fill="#808080" /><rect x="368" y="496" width="32" height="32" fill="#808080" /><rect x="368" y="752" width="32" height="32" fill="#808080" /><rect x="464" y="1616" width="32" height="32" fill="#808080" /><rect x="400" y="240" width="32" height="32" fill="#808080" /><rect x="560" y="1520" width="32" height="32" fill="#808080" /><rect x="336" y="1104" width="32" height="32" fill="#808080" /><rect x="464" y="1104" width="32" height="32" fill="#808080" /><rect x="464" y="1360" width="32" height="32" fill="#808080" /><rect x="304" y="1456" width="32" height="32" fill="#808080" /><rect x="400" y="784" width="32" height="32" fill="#808080" /><rect x="464" y="752" width="32" height="32" fill="#808080" /><rect x="336" y="752" width="32" height="32" fill="#808080" /><rect x="432" y="240" width="32" height="32" fill="#808080" /><rect x="368" y="880" width="32" height="32" fill="#808080" /><rect x="432" y="560" width="32" height="32" fill="#808080" /><rect x="432" y="816" width="32" height="32" fill="#808080" /><rect x="80" y="1840" width="32" height="32" fill="#808080" /><rect x="112" y="1904" width="32" height="32" fill="#808080" /><g stroke="#000000" stroke-width="2" ><line x1="128" y1="1904" x2="144" y2="1920" /><line x1="112" y1="1904" x2="144" y2="1936" /><line x1="112" y1="1920" x2="128" y2="1936" /></g><rect x="496" y="1456" width="32" height="32" fill="#808080" /><rect x="624" y="1648" width="32" height="32" fill="#808080" /><rect x="464" y="816" width="32" height="32" fill="#808080" /><rect x="464" y="1072" width="32" height="32" fill="#808080" /><rect x="240" y="1424" width="32" height="32" fill="#808080" /><rect x="400" y="336" width="32" height="32" fill="#808080" /><rect x="208" y="1648" width="32" height="32" fill="#808080" /><rect x="432" y="304" width="32" height="32" fill="#808080" /><rect x="496" y="1520" width="32" height="32" fill="#808080" /><rect x="336" y="1424" width="32" height="32" fill="#808080" /><rect x="432" y="1136" width="32" height="32" fill="#808080" /><rect x="272" y="1360" width="32" height="32" fill="#808080" /><rect x="688" y="1776" width="32" height="32" fill="#808080" /><rect x="400" y="880" width="32" height="32" fill="#808080" /><rect x="464" y="912" width="32" height="32" fill="#808080" /><rect x="400" y="848" width="32" height="32" fill="#808080" /><rect x="272" y="1168" width="32" height="32" fill="#808080" /><rect x="400" y="1520" width="32" height="32" fill="#808080" /><rect x="304" y="1520" width="32" height="32" fill="#808080" /><rect x="336" y="944" width="32" height="32" fill="#808080" /><rect x="336" y="1648" width="32" height="32" fill="#808080" /><rect x="272" y="1584" width="32" height="32" fill="#808080" /><rect x="80" y="1904" width="32" height="32" fill="#808080" /><g stroke="#000000" stroke-width="2" ><line x1="96" y1="1904" x2="112" y2="1920" /><line x1="80" y1="1904" x2="112" y2="1936" /><line x1="80" y1="1920" x2="96" y2="1936" /></g><rect x="720" y="1904" width="32" height="32" fill="#808080" /><g stroke="#000000" stroke-width="2" ><line x1="736" y1="1904" x2="752" y2="1920" /><line x1="720" y1="1904" x2="752" y2="1936" /><line x1="720" y1="1920" x2="736" y2="1936" /></g><rect x="592" y="1904" width="32" height="32" fill="#808080" /><g stroke="#000000" stroke-width="2" ><line x1="608" y1="1904" x2="624" y2="1920" /><line x1="592" y1="1904" x2="624" y2="1936" /><line x1="592" y1="1920" x2="608" y2="1936" /></g><rect x="304" y="1264" width="32" height="32" fill="#808080" /><rect x="400" y="1104" width="32" height="32" fill="#808080" /><rect x="464" y="1040" width="32" height="32" fill="#808080" /><rect x="720" y="1872" width="32" height="32" fill="#808080" /><rect x="432" y="176" width="32" height="32" fill="#808080" /><rect x="432" y="1008" width="32" height="32" fill="#808080" /><rect x="432" y="720" width="32" height="32" fill="#808080" /><rect x="368" y="1232" width="32" height="32" fill="#808080" /><rect x="336" y="1520" width="32" height="32" fill="#808080" /><rect x="48" y="1904" width="32" height="32" fill="#808080" /><g stroke="#000000" stroke-width="2" ><line x1="64" y1="1904" x2="80" y2="1920" /><line x1="48" y1="1904" x2="80" y2="1936" /><line x1="48" y1="1920" x2="64" y2="1936" /></g><rect x="208" y="1776" width="32" height="32" fill="#808080" /><rect x="656" y="1840" width="32" height="32" fill="#808080" /><rect x="368" y="1104" width="32" height="32" fill="#808080" /><rect x="336" y="1232" width="32" height="32" fill="#808080" /><rect x="304" y="1424" width="32" height="32" fill="#808080" /><rect x="400" y="1072" width="32" height="32" fill="#808080" /><rect x="464" y="1008" width="32" height="32" fill="#808080" /><rect x="624" y="1520" width="32" height="32" fill="#808080" /><rect x="368" y="464" width="32" height="32" fill="#808080" /><rect x="272" y="1488" width="32" height="32" fill="#808080" /><rect x="368" y="1200" width="32" height="32" fill="#808080" /><rect x="336" y="1552" width="32" height="32" fill="#808080" /><rect x="336" y="1040" width="32" height="32" fill="#808080" /><rect x="432" y="752" width="32" height="32" fill="#808080" /><rect x="176" y="1776" width="32" height="32" fill="#808080" /><rect x="144" y="1840" width="32" height="32" fill="#808080" /><rect x="688" y="1904" width="32" height="32" fill="#808080" /><g stroke="#000000" stroke-width="2" ><line x1="704" y1="1904" x2="720" y2="1920" /><line x1="688" y1="1904" x2="720" y2="1936" /><line x1="688" y1="1920" x2="704" y2="1936" /></g><rect x="144" y="1776" width="32" height="32" fill="#808080" /><rect x="368" y="1136" width="32" height="32" fill="#808080" /><rect x="208" y="1712" width="32" height="32" fill="#808080" /><rect x="688" y="1840" width="32" height="32" fill="#808080" /><rect x="624" y="1776" width="32" height="32" fill="#808080" /><rect x="400" y="1008" width="32" height="32" fill="#808080" /><rect x="272" y="1424" width="32" height="32" fill="#808080" /><rect x="336" y="1168" width="32" height="32" fill="#808080" /><rect x="400" y="752" width="32" height="32" fill="#808080" /><rect x="272" y="1200" width="32" height="32" fill="#808080" /><rect x="336" y="1136" width="32" height="32" fill="#808080" /><rect x="432" y="592" width="32" height="32" fill="#808080" /><rect x="48" y="1872" width="32" height="32" fill="#808080" /><rect x="400" y="80" width="32" height="32" fill="#808080" /><rect x="336" y="816" width="32" height="32" fill="#808080" /><rect x="624" y="1872" width="32" height="32" fill="#808080" /><rect x="656" y="1776" width="32" height="32" fill="#808080" /><rect x="496" y="1680" width="32" height="32" fill="#808080" /><rect x="176" y="1872" width="32" height="32" fill="#808080" /><rect x="592" y="1712" width="32" height="32" fill="#808080" /><rect x="752" y="1904" width="32" height="32" fill="#808080" /><g stroke="#000000" stroke-width="2" ><line x1="768" y1="1904" x2="784" y2="1920" /><line x1="752" y1="1904" x2="784" y2="1936" /><line x1="752" y1="1920" x2="768" y2="1936" /></g><rect x="528" y="1200" width="32" height="32" fill="#808080" /><rect x="464" y="1296" width="32" height="32" fill="#808080" /><rect x="336" y="1328" width="32" height="32" fill="#808080" /><rect x="560" y="1584" width="32" height="32" fill="#808080" /><rect x="752" y="1872" width="32" height="32" fill="#808080" /><rect x="560" y="1680" width="32" height="32" fill="#808080" /><rect x="528" y="1680" width="32" height="32" fill="#808080" /><rect x="304" y="1168" width="32" height="32" fill="#808080" /><rect x="688" y="1872" width="32" height="32" fill="#808080" /><rect x="336" y="848" width="32" height="32" fill="#808080" /><rect x="528" y="1584" width="32" height="32" fill="#808080" /><rect x="144" y="1872" width="32" height="32" fill="#808080" /><rect x="144" y="1904" width="32" height="32" fill="#808080" /><g stroke="#000000" stroke-width="2" ><line x1="160" y1="1904" x2="176" y2="1920" /><line x1="144" y1="1904" x2="176" y2="1936" /><line x1="144" y1="1920" x2="160" y2="1936" /></g><rect x="176" y="1712" width="32" height="32" fill="#808080" /><rect x="176" y="1904" width="32" height="32" fill="#808080" /><g stroke="#000000" stroke-width="2" ><line x1="192" y1="1904" x2="208" y2="1920" /><line x1="176" y1="1904" x2="208" y2="1936" /><line x1="176" y1="1920" x2="192" y2="1936" /></g><rect x="368" y="144" width="32" height="32" fill="#808080" /><rect x="112" y="1776" width="32" height="32" fill="#808080" /><rect x="16" y="1904" width="32" height="32" fill="#808080" /><g stroke="#000000" stroke-width="2" ><line x1="32" y1="1904" x2="48" y2="1920" /><line x1="16" y1="1904" x2="48" y2="1936" /><line x1="16" y1="1920" x2="32" y2="1936" /></g><rect x="624" y="1904" width="32" height="32" fill="#808080" /><g stroke="#000000" stroke-width="2" ><line x1="640" y1="1904" x2="656" y2="1920" /><line x1="624" y1="1904" x2="656" y2="1936" /><line x1="624" y1="1920" x2="640" y2="1936" /></g><rect x="176" y="1840" width="32" height="32" fill="#808080" /><rect x="592" y="1648" width="32" height="32" fill="#808080" /><rect x="432" y="1104" width="32" height="32" fill="#808080" /><rect x="272" y="1328" width="32" height="32" fill="#808080" /><rect x="336" y="1392" width="32" height="32" fill="#808080" /><rect x="656" y="1872" width="32" height="32" fill="#808080" /><rect x="208" y="1744" width="32" height="32" fill="#808080" /><rect x="304" y="1392" width="32" height="32" fill="#808080" /><rect x="432" y="688" width="32" height="32" fill="#808080" /><rect x="592" y="1744" width="32" height="32" fill="#808080" /><rect x="624" y="1712" width="32" height="32" fill="#808080" /><rect x="400" y="1040" width="32" height="32" fill="#808080" /><rect x="240" y="1680" width="32" height="32" fill="#808080" /><rect x="464" y="1328" width="32" height="32" fill="#808080" /><rect x="432" y="1232" width="32" height="32" fill="#808080" /><rect x="272" y="1680" width="32" height="32" fill="#808080" /><rect x="336" y="1584" width="32" height="32" fill="#808080" /><rect x="336" y="1072" width="32" height="32" fill="#808080" /><rect x="720" y="1840" width="32" height="32" fill="#808080" /><rect x="656" y="1712" width="32" height="32" fill="#808080" /><rect x="304" y="1296" width="32" height="32" fill="#808080" /><rect x="464" y="976" width="32" height="32" fill="#808080" /><rect x="592" y="1552" width="32" height="32" fill="#808080" /><rect x="656" y="1744" width="32" height="32" fill="#808080" /><rect x="304" y="1680" width="32" height="32" fill="#808080" /><rect x="240" y="1712" width="32" height="32" fill="#808080" /><rect x="176" y="1680" width="32" height="32" fill="#808080" /><rect x="112" y="1808" width="32" height="32" fill="#808080" /><rect x="112" y="1872" width="32" height="32" fill="#808080" /><rect x="432" y="496" width="32" height="32" fill="#808080" /><rect x="400" y="112" width="32" height="32" fill="#808080" /><rect x="368" y="816" width="32" height="32" fill="#808080" /><rect x="400" y="176" width="32" height="32" fill="#808080" /><rect x="400" y="464" width="32" height="32" fill="#808080" /><rect x="368" y="112" width="32" height="32" fill="#808080" /><rect x="368" y="176" width="32" height="32" fill="#808080" /><rect x="432" y="144" width="32" height="32" fill="#808080" /><rect x="368" y="336" width="32" height="32" fill="#808080" /><rect x="336" y="144" width="32" height="32" fill="#808080" /><rect x="144" y="1744" width="32" height="32" fill="#808080" /><rect x="528" y="1616" width="32" height="32" fill="#808080" /><rect x="496" y="1232" width="32" height="32" fill="#808080" /><rect x="368" y="208" width="32" height="32" fill="#808080" /><rect x="208" y="1616" width="32" height="32" fill="#808080" /><rect x="464" y="656" width="32" height="32" fill="#808080" /><rect x="464" y="880" width="32" height="32" fill="#808080" /><rect x="400" y="528" width="32" height="32" fill="#808080" /><rect x="400" y="1200" width="32" height="32" fill="#808080" /><rect x="528" y="1424" width="32" height="32" fill="#808080" /><rect x="368" y="272" width="32" height="32" fill="#808080" /><rect x="336" y="720" width="32" height="32" fill="#808080" /><rect x="400" y="592" width="32" height="32" fill="#808080" /><rect x="464" y="176" width="32" height="32" fill="#808080" /><rect x="400" y="656" width="32" height="32" fill="#808080" /><rect x="528" y="1552" width="32" height="32" fill="#808080" /><rect x="368" y="400" width="32" height="32" fill="#808080" /><rect x="400" y="944" width="32" height="32" fill="#808080" /><rect x="432" y="624" width="32" height="32" fill="#808080" /><rect x="432" y="112" width="32" height="32" fill="#808080" /><rect x="464" y="144" width="32" height="32" fill="#808080" /><rect x="368" y="240" width="32" height="32" fill="#808080" /><rect x="368" y="1520" width="32" height="32" fill="#808080" /><rect x="432" y="944" width="32" height="32" fill="#808080" /><rect x="368" y="560" width="32" height="32" fill="#808080" /><rect x="368" y="304" width="32" height="32" fill="#808080" /><rect x="432" y="272" width="32" height="32" fill="#808080" /><rect x="464" y="848" width="32" height="32" fill="#808080" /><rect x="368" y="432" width="32" height="32" fill="#808080" /><rect x="432" y="336" width="32" height="32" fill="#808080" /><rect x="208" y="1584" width="32" height="32" fill="#808080" /><rect x="400" y="272" width="32" height="32" fill="#808080" /><rect x="368" y="720" width="32" height="32" fill="#808080" /><rect x="432" y="464" width="32" height="32" fill="#808080" /><rect x="400" y="48" width="32" height="32" fill="#808080" /><rect x="400" y="400" width="32" height="32" fill="#808080" /><rect x="464" y="784" width="32" height="32" fill="#808080" /><rect x="368" y="368" width="32" height="32" fill="#808080" /><rect x="240" y="1520" width="32" height="32" fill="#808080" /><rect x="304" y="1584" width="32" height="32" fill="#808080" /><rect x="464" y="688" width="32" height="32" fill="#808080" /><rect x="400" y="816" width="32" height="32" fill="#808080" /><rect x="368" y="528" width="32" height="32" fill="#808080" /><rect x="336" y="880" width="32" height="32" fill="#808080" /><rect x="432" y="528" width="32" height="32" fill="#808080" /><rect x="368" y="592" width="32" height="32" fill="#808080" /><rect x="368" y="1168" width="32" height="32" fill="#808080" /><rect x="624" y="1840" width="32" height="32" fill="#808080" /><rect x="432" y="368" width="32" height="32" fill="#808080" /><rect x="336" y="784" width="32" height="32" fill="#808080" /><rect x="368" y="624" width="32" height="32" fill="#808080" /><rect x="528" y="1520" width="32" height="32" fill="#808080" /><rect x="304" y="1136" width="32" height="32" fill="#808080" /><rect x="336" y="656" width="32" height="32" fill="#808080" /><rect x="432" y="400" width="32" height="32" fill="#808080" /><rect x="368" y="656" width="32" height="32" fill="#808080" /><rect x="432" y="656" width="32" height="32" fill="#808080" /><rect x="432" y="432" width="32" height="32" fill="#808080" /><rect x="368" y="688" width="32" height="32" fill="#808080" /><rect x="592" y="1520" width="32" height="32" fill="#808080" /><rect x="528" y="1168" width="32" height="32" fill="#808080" /><rect x="336" y="688" width="32" height="32" fill="#808080" /><rect x="560" y="1424" width="32" height="32" fill="#808080" /><rect x="528" y="1456" width="32" height="32" fill="#808080" /><rect x="272" y="1392" width="32" height="32" fill="#808080" /><rect x="688" y="1808" width="32" height="32" fill="#808080" /><rect x="368" y="1008" width="32" height="32" fill="#808080" /><rect x="464" y="1168" width="32" height="32" fill="#808080" /><rect x="464" y="1392" width="32" height="32" fill="#808080" /><rect x="400" y="16" width="32" height="32" fill="#808080" /><rect x="432" y="208" width="32" height="32" fill="#808080" /><rect x="560" y="1552" width="32" height="32" fill="#808080" /><rect x="400" y="144" width="32" height="32" fill="#808080" /><rect x="304" y="1200" width="32" height="32" fill="#808080" /><rect x="432" y="1200" width="32" height="32" fill="#808080" /><rect x="464" y="1200" width="32" height="32" fill="#808080" /><rect x="336" y="1360" width="32" height="32" fill="#808080" /><rect x="336" y="1616" width="32" height="32" fill="#808080" /><rect x="368" y="944" width="32" height="32" fill="#808080" /><rect x="496" y="1200" width="32" height="32" fill="#808080" /><rect x="304" y="1232" width="32" height="32" fill="#808080" /><rect x="80" y="1872" width="32" height="32" fill="#808080" /><rect x="304" y="1360" width="32" height="32" fill="#808080" /><rect x="496" y="1264" width="32" height="32" fill="#808080" /><rect x="432" y="1296" width="32" height="32" fill="#808080" /><rect x="784" y="1904" width="32" height="32" fill="#808080" /><g stroke="#000000" stroke-width="2" ><line x1="800" y1="1904" x2="816" y2="1920" /><line x1="784" y1="1904" x2="816" y2="1936" /><line x1="784" y1="1920" x2="800" y2="1936" /></g><rect x="368" y="1296" width="32" height="32" fill="#808080" /><rect x="112" y="1840" width="32" height="32" fill="#808080" /><rect x="496" y="1296" width="32" height="32" fill="#808080" /><rect x="368" y="1648" width="32" height="32" fill="#808080" /><rect x="304" y="1328" width="32" height="32" fill="#808080" /><rect x="240" y="1456" width="32" height="32" fill="#808080" /><rect x="528" y="1328" width="32" height="32" fill="#808080" /><rect x="400" y="688" width="32" height="32" fill="#808080" /><rect x="336" y="1264" width="32" height="32" fill="#808080" /><rect x="528" y="1360" width="32" height="32" fill="#808080" /><rect x="560" y="1616" width="32" height="32" fill="#808080" /><rect x="400" y="208" width="32" height="32" fill="#808080" /><rect x="336" y="1296" width="32" height="32" fill="#808080" /><rect x="528" y="1392" width="32" height="32" fill="#808080" /><rect x="464" y="1424" width="32" height="32" fill="#808080" /><rect x="496" y="1424" width="32" height="32" fill="#808080" /><rect x="144" y="1712" width="32" height="32" fill="#808080" /><rect x="560" y="1488" width="32" height="32" fill="#808080" /></g><text x="8" y="1984" fill="#000000" font-size="24" >Block color (type/material):</text><g stroke="#000000" stroke-width="1" ><rect x="8" y="1992" width="32" height="32" fill="#808080" /></g><g fill="#000000" font-size="12" ><text x="48" y="2014" >Eiffel Steel</text></g><text x="8" y="2056" font-size="24" fill="#000000" >Block hatching:</text><rect x="8" y="2064" width="32" height="32" fill-opacity="0" stroke="#000000" stroke-width="1" /><g stroke="#000000" stroke-width="2" ><line x1="24" y1="2064" x2="40" y2="2080" /><line x1="8" y1="2064" x2="40" y2="2096" /><line x1="8" y1="2080" x2="24" y2="2096" /></g><text x="48" y="2086" font-size="12" fill="#000000" >Foundation</text><g stroke="#FFFFFF" stroke-width="1" ><path d="M593.199 1658 L599.199 1664 L593.199 1670 L593.199 1667 L592 1667 L592 1661 L593.199 1661 Z" fill="#19FF00" /><path d="M570 1654.14 L576 1660.14 L582 1654.14 L579 1654.14 L579 1648 L573 1648 L573 1654.14 Z" fill="#7EFF00" /><path d="M410 915.678 L416 921.678 L422 915.678 L419 915.678 L419 912 L413 912 L413 915.678 Z" fill="#4BFF00" /><path d="M499.409 1658 L505.409 1664 L499.409 1670 L499.409 1667 L496 1667 L496 1661 L499.409 1661 Z" fill="#46FF00" /><path d="M474 1650.31 L480 1656.31 L486 1650.31 L483 1650.31 L483 1648 L477 1648 L477 1650.31 Z" fill="#2FFF00" /><path d="M432.85 1658 L438.85 1664 L432.85 1670 L432.85 1667 L432 1667 L432 1661 L432.85 1661 Z" fill="#11FF00" /><path d="M410 1649.58 L416 1655.58 L422 1649.58 L419 1649.58 L419 1648 L413 1648 L413 1649.58 Z" fill="#20FF00" /><path d="M332.592 1658 L326.592 1664 L332.592 1670 L332.592 1667 L336 1667 L336 1661 L332.592 1661 Z" fill="#46FF00" /><path d="M634 1817.88 L640 1823.88 L646 1817.88 L643 1817.88 L643 1808 L637 1808 L637 1817.88 Z" fill="#CBFF00" /><path d="M250 1654.14 L256 1660.14 L262 1654.14 L259 1654.14 L259 1648 L253 1648 L253 1654.14 Z" fill="#7EFF00" /><path d="M200.636 1658 L194.636 1664 L200.636 1670 L200.636 1667 L208 1667 L208 1661 L200.636 1661 Z" fill="#97FF00" /><path d="M602 1620.61 L608 1626.61 L614 1620.61 L611 1620.61 L611 1616 L605 1616 L605 1620.61 Z" fill="#5FFF00" /><path d="M282 1618.92 L288 1624.92 L294 1618.92 L291 1618.92 L291 1616 L285 1616 L285 1618.92 Z" fill="#3CFF00" /><path d="M528.602 1178 L534.602 1184 L528.602 1190 L528.602 1187 L528 1187 L528 1181 L528.602 1181 Z" fill="#0CFF00" /><path d="M506 1169.88 L512 1175.88 L518 1169.88 L515 1169.88 L515 1168 L509 1168 L509 1169.88 Z" fill="#27FF00" /><path d="M268.952 1626 L262.952 1632 L268.952 1638 L268.952 1635 L272 1635 L272 1629 L268.952 1629 Z" fill="#3FFF00" /><path d="M250 1620.27 L256 1626.27 L262 1620.27 L259 1620.27 L259 1616 L253 1616 L253 1620.27 Z" fill="#58FF00" /><path d="M496.244 1274 L502.244 1280 L496.244 1286 L496.244 1283 L496 1283 L496 1277 L496.244 1277 Z" fill="#05FF00" /><path d="M474 1268.75 L480 1274.75 L486 1268.75 L483 1268.75 L483 1264 L477 1264 L477 1268.75 Z" fill="#62FF00" /><path d="M464.381 1178 L470.381 1184 L464.381 1190 L464.381 1187 L464 1187 L464 1181 L464.381 1181 Z" fill="#08FF00" /><path d="M442 1170.84 L448 1176.84 L454 1170.84 L451 1170.84 L451 1168 L445 1168 L445 1170.84 Z" fill="#3AFF00" /><path d="M528.982 1370 L534.982 1376 L528.982 1382 L528.982 1379 L528 1379 L528 1373 L528.982 1373 Z" fill="#14FF00" /><path d="M506 1363.76 L512 1369.76 L518 1363.76 L515 1363.76 L515 1360 L509 1360 L509 1363.76 Z" fill="#4DFF00" /><path d="M368.244 186 L374.244 192 L368.244 198 L368.244 195 L368 195 L368 189 L368.244 189 Z" fill="#05FF00" /><path d="M346 176.119 L352 182.119 L358 176.119 L355 176.119 L355 176 L349 176 L349 176.119 Z" fill="#02FF00" /><path d="M346 980.046 L352 986.046 L358 980.046 L355 980.046 L355 976 L349 976 L349 980.046 Z" fill="#53FF00" /><path d="M602 1587.52 L608 1593.52 L614 1587.52 L611 1587.52 L611 1584 L605 1584 L605 1587.52 Z" fill="#48FF00" /><path d="M529.738 1594 L535.738 1600 L529.738 1606 L529.738 1603 L528 1603 L528 1597 L529.738 1597 Z" fill="#24FF00" /><path d="M506 1585.66 L512 1591.66 L518 1585.66 L515 1585.66 L515 1584 L509 1584 L509 1585.66 Z" fill="#22FF00" /><path d="M400.241 1594 L406.241 1600 L400.241 1606 L400.241 1603 L400 1603 L400 1597 L400.241 1597 Z" fill="#05FF00" /><path d="M378 1584.71 L384 1590.71 L390 1584.71 L387 1584.71 L387 1584 L381 1584 L381 1584.71 Z" fill="#0FFF00" /><path d="M270.303 1594 L264.303 1600 L270.303 1606 L270.303 1603 L272 1603 L272 1597 L270.303 1597 Z" fill="#23FF00" /><path d="M250 1587.42 L256 1593.42 L262 1587.42 L259 1587.42 L259 1584 L253 1584 L253 1587.42 Z" fill="#46FF00" /><path d="M634 1552.6 L640 1558.6 L646 1552.6 L643 1552.6 L643 1552 L637 1552 L637 1552.6 Z" fill="#0CFF00" /><path d="M431.969 730 L425.969 736 L431.969 742 L431.969 739 L432 739 L432 733 L431.969 733 Z" fill="#01FF00" /><path d="M410 721.681 L416 727.681 L422 721.681 L419 721.681 L419 720 L413 720 L413 721.681 Z" fill="#22FF00" /><path d="M528.64 1562 L534.64 1568 L528.64 1574 L528.64 1571 L528 1571 L528 1565 L528.64 1565 Z" fill="#0DFF00" /><path d="M506 1554.47 L512 1560.47 L518 1554.47 L515 1554.47 L515 1552 L509 1552 L509 1554.47 Z" fill="#33FF00" /><path d="M410 1617.45 L416 1623.45 L422 1617.45 L419 1617.45 L419 1616 L413 1616 L413 1617.45 Z" fill="#1EFF00" /><path d="M495.71 1562 L489.71 1568 L495.71 1574 L495.71 1571 L496 1571 L496 1565 L495.71 1565 Z" fill="#06FF00" /><path d="M474 1553.12 L480 1559.12 L486 1553.12 L483 1553.12 L483 1552 L477 1552 L477 1553.12 Z" fill="#17FF00" /><path d="M464.974 1658 L470.974 1664 L464.974 1670 L464.974 1667 L464 1667 L464 1661 L464.974 1661 Z" fill="#14FF00" /><path d="M463.887 1562 L457.887 1568 L463.887 1574 L463.887 1571 L464 1571 L464 1565 L463.887 1565 Z" fill="#02FF00" /><path d="M442 1552.58 L448 1558.58 L454 1552.58 L451 1552.58 L451 1552 L445 1552 L445 1552.58 Z" fill="#0CFF00" /><path d="M303.283 1466 L297.283 1472 L303.283 1478 L303.283 1475 L304 1475 L304 1469 L303.283 1469 Z" fill="#0FFF00" /><path d="M282 1459.95 L288 1465.95 L294 1459.95 L291 1459.95 L291 1456 L285 1456 L285 1459.95 Z" fill="#51FF00" /><path d="M431.891 1562 L425.891 1568 L431.891 1574 L431.891 1571 L432 1571 L432 1565 L431.891 1565 Z" fill="#02FF00" /><path d="M410 1552.5 L416 1558.5 L422 1552.5 L419 1552.5 L419 1552 L413 1552 L413 1552.5 Z" fill="#0AFF00" /><path d="M336.291 1562 L342.291 1568 L336.291 1574 L336.291 1571 L336 1571 L336 1565 L336.291 1565 Z" fill="#06FF00" /><path d="M314 1554.47 L320 1560.47 L326 1554.47 L323 1554.47 L323 1552 L317 1552 L317 1554.47 Z" fill="#33FF00" /><path d="M303.36 1562 L297.36 1568 L303.36 1574 L303.36 1571 L304 1571 L304 1565 L303.36 1565 Z" fill="#0DFF00" /><path d="M282 1555.03 L288 1561.03 L294 1555.03 L291 1555.03 L291 1552 L285 1552 L285 1555.03 Z" fill="#3EFF00" /><path d="M632.949 1786 L638.949 1792 L632.949 1798 L632.949 1795 L624 1795 L624 1789 L632.949 1789 Z" fill="#B8FF00" /><path d="M602 1784.82 L608 1790.82 L614 1784.82 L611 1784.82 L611 1776 L605 1776 L605 1784.82 Z" fill="#B5FF00" /><path d="M239.14 1562 L233.14 1568 L239.14 1574 L239.14 1571 L240 1571 L240 1565 L239.14 1565 Z" fill="#12FF00" /><path d="M218 1553.81 L224 1559.81 L230 1553.81 L227 1553.81 L227 1552 L221 1552 L221 1553.81 Z" fill="#25FF00" /><path d="M496.676 1242 L502.676 1248 L496.676 1254 L496.676 1251 L496 1251 L496 1245 L496.676 1245 Z" fill="#0EFF00" /><path d="M474 1235.21 L480 1241.21 L486 1235.21 L483 1235.21 L483 1232 L477 1232 L477 1235.21 Z" fill="#42FF00" /><path d="M464.094 890 L470.094 896 L464.094 902 L464.094 899 L464 899 L464 893 L464.094 893 Z" fill="#02FF00" /><path d="M208.728 1562 L214.728 1568 L208.728 1574 L208.728 1571 L208 1571 L208 1565 L208.728 1565 Z" fill="#0FFF00" /><path d="M186 1552.6 L192 1558.6 L198 1552.6 L195 1552.6 L195 1552 L189 1552 L189 1552.6 Z" fill="#0CFF00" /><path d="M431.759 1594 L425.759 1600 L431.759 1606 L431.759 1603 L432 1603 L432 1597 L431.759 1597 Z" fill="#05FF00" /><path d="M410 1584.84 L416 1590.84 L422 1584.84 L419 1584.84 L419 1584 L413 1584 L413 1584.84 Z" fill="#11FF00" /><path d="M494.359 1530 L488.359 1536 L494.359 1542 L494.359 1539 L496 1539 L496 1533 L494.359 1533 Z" fill="#22FF00" /><path d="M530.307 1338 L536.307 1344 L530.307 1350 L530.307 1347 L528 1347 L528 1341 L530.307 1341 Z" fill="#2FFF00" /><path d="M506 1333.11 L512 1339.11 L518 1333.11 L515 1333.11 L515 1328 L509 1328 L509 1333.11 Z" fill="#69FF00" /><path d="M666 1908.7 L672 1914.7 L678 1908.7 L675 1908.7 L675 1904 L669 1904 L669 1908.7 Z" fill="#60FF00" /><path d="M463.353 1530 L457.353 1536 L463.353 1542 L463.353 1539 L464 1539 L464 1533 L463.353 1533 Z" fill="#0DFF00" /><path d="M303.927 1530 L297.927 1536 L303.927 1542 L303.927 1539 L304 1539 L304 1533 L303.927 1533 Z" fill="#01FF00" /><path d="M282 1523.79 L288 1529.79 L294 1523.79 L291 1523.79 L291 1520 L285 1520 L285 1523.79 Z" fill="#4EFF00" /><path d="M346 915.69 L352 921.69 L358 915.69 L355 915.69 L355 912 L349 912 L349 915.69 Z" fill="#4CFF00" /><path d="M237.834 1530 L231.834 1536 L237.834 1542 L237.834 1539 L240 1539 L240 1533 L237.834 1533 Z" fill="#2CFF00" /><path d="M207.521 1530 L201.521 1536 L207.521 1542 L207.521 1539 L208 1539 L208 1533 L207.521 1533 Z" fill="#0AFF00" /><path d="M367.142 1210 L361.142 1216 L367.142 1222 L367.142 1219 L368 1219 L368 1213 L367.142 1213 Z" fill="#12FF00" /><path d="M346 1202.59 L352 1208.59 L358 1202.59 L355 1202.59 L355 1200 L349 1200 L349 1202.59 Z" fill="#35FF00" /><path d="M601.099 1722 L607.099 1728 L601.099 1734 L601.099 1731 L592 1731 L592 1725 L601.099 1725 Z" fill="#BBFF00" /><path d="M570 1720.97 L576 1726.97 L582 1720.97 L579 1720.97 L579 1712 L573 1712 L573 1720.97 Z" fill="#B8FF00" /><path d="M495.952 1594 L489.952 1600 L495.952 1606 L495.952 1603 L496 1603 L496 1597 L495.952 1597 Z" fill="#01FF00" /><path d="M474 1585.42 L480 1591.42 L486 1585.42 L483 1585.42 L483 1584 L477 1584 L477 1585.42 Z" fill="#1DFF00" /><path d="M528.91 1402 L534.91 1408 L528.91 1414 L528.91 1411 L528 1411 L528 1405 L528.91 1405 Z" fill="#13FF00" /><path d="M506 1395.61 L512 1401.61 L518 1395.61 L515 1395.61 L515 1392 L509 1392 L509 1395.61 Z" fill="#4AFF00" /><path d="M560.55 1498 L566.55 1504 L560.55 1510 L560.55 1507 L560 1507 L560 1501 L560.55 1501 Z" fill="#0BFF00" /><path d="M538 1491.89 L544 1497.89 L550 1491.89 L547 1491.89 L547 1488 L541 1488 L541 1491.89 Z" fill="#50FF00" /><path d="M367.808 1018 L361.808 1024 L367.808 1030 L367.808 1027 L368 1027 L368 1021 L367.808 1021 Z" fill="#04FF00" /><path d="M346 1012.17 L352 1018.17 L358 1012.17 L355 1012.17 L355 1008 L349 1008 L349 1012.17 Z" fill="#56FF00" /><path d="M431.534 1178 L425.534 1184 L431.534 1190 L431.534 1187 L432 1187 L432 1181 L431.534 1181 Z" fill="#0AFF00" /><path d="M464.595 1594 L470.595 1600 L464.595 1606 L464.595 1603 L464 1603 L464 1597 L464.595 1597 Z" fill="#0CFF00" /><path d="M442 1584.71 L448 1590.71 L454 1584.71 L451 1584.71 L451 1584 L445 1584 L445 1584.71 Z" fill="#0FFF00" /><path d="M528.335 1498 L534.335 1504 L528.335 1510 L528.335 1507 L528 1507 L528 1501 L528.335 1501 Z" fill="#07FF00" /><path d="M506 1492.27 L512 1498.27 L518 1492.27 L515 1492.27 L515 1488 L509 1488 L509 1492.27 Z" fill="#58FF00" /><path d="M270.961 1562 L264.961 1568 L270.961 1574 L270.961 1571 L272 1571 L272 1565 L270.961 1565 Z" fill="#15FF00" /><path d="M250 1555.12 L256 1561.12 L262 1555.12 L259 1555.12 L259 1552 L253 1552 L253 1555.12 Z" fill="#40FF00" /><path d="M400.109 1562 L406.109 1568 L400.109 1574 L400.109 1571 L400 1571 L400 1565 L400.109 1565 Z" fill="#02FF00" /><path d="M378 1552.58 L384 1558.58 L390 1552.58 L387 1552.58 L387 1552 L381 1552 L381 1552.58 Z" fill="#0CFF00" /><path d="M314 1492.27 L320 1498.27 L326 1492.27 L323 1492.27 L323 1488 L317 1488 L317 1492.27 Z" fill="#58FF00" /><path d="M186 1817.88 L192 1823.88 L198 1817.88 L195 1817.88 L195 1808 L189 1808 L189 1817.88 Z" fill="#CBFF00" /><path d="M271.45 1498 L265.45 1504 L271.45 1510 L271.45 1507 L272 1507 L272 1501 L271.45 1501 Z" fill="#0BFF00" /><path d="M250 1491.53 L256 1497.53 L262 1491.53 L259 1491.53 L259 1488 L253 1488 L253 1491.53 Z" fill="#48FF00" /><path d="M497.757 1146 L503.757 1152 L497.757 1158 L497.757 1155 L496 1155 L496 1149 L497.757 1149 Z" fill="#24FF00" /><path d="M474 1140.14 L480 1146.14 L486 1140.14 L483 1140.14 L483 1136 L477 1136 L477 1140.14 Z" fill="#55FF00" /><path d="M570 1458.49 L576 1464.49 L582 1458.49 L579 1458.49 L579 1456 L573 1456 L573 1458.49 Z" fill="#33FF00" /><path d="M474 947.815 L480 953.815 L486 947.815 L483 947.815 L483 944 L477 944 L477 947.815 Z" fill="#4EFF00" /><path d="M410 979.96 L416 985.96 L422 979.96 L419 979.96 L419 976 L413 976 L413 979.96 Z" fill="#51FF00" /><path d="M431.885 634 L425.885 640 L431.885 646 L431.885 643 L432 643 L432 637 L431.885 637 Z" fill="#02FF00" /><path d="M410 625.642 L416 631.642 L422 625.642 L419 625.642 L419 624 L413 624 L413 625.642 Z" fill="#22FF00" /><path d="M474 721.521 L480 727.521 L486 721.521 L483 721.521 L483 720 L477 720 L477 721.521 Z" fill="#1FFF00" /><path d="M634 1687.49 L640 1693.49 L646 1687.49 L643 1687.49 L643 1680 L637 1680 L637 1687.49 Z" fill="#9AFF00" /><path d="M378 498.485 L384 504.485 L390 498.485 L387 498.485 L387 496 L381 496 L381 498.485 Z" fill="#33FF00" /><path d="M400.557 762 L406.557 768 L400.557 774 L400.557 771 L400 771 L400 765 L400.557 765 Z" fill="#0BFF00" /><path d="M378 753.342 L384 759.342 L390 753.342 L387 753.342 L387 752 L381 752 L381 753.342 Z" fill="#1CFF00" /><path d="M474 1618.19 L480 1624.19 L486 1618.19 L483 1618.19 L483 1616 L477 1616 L477 1618.19 Z" fill="#2DFF00" /><path d="M432.083 250 L438.083 256 L432.083 262 L432.083 259 L432 259 L432 253 L432.083 253 Z" fill="#02FF00" /><path d="M410 240.736 L416 246.736 L422 240.736 L419 240.736 L419 240 L413 240 L413 240.736 Z" fill="#0FFF00" /><path d="M594.166 1530 L600.166 1536 L594.166 1542 L594.166 1539 L592 1539 L592 1533 L594.166 1533 Z" fill="#2CFF00" /><path d="M570 1524.2 L576 1530.2 L582 1524.2 L579 1524.2 L579 1520 L573 1520 L573 1524.2 Z" fill="#56FF00" /><path d="M368.719 1114 L374.719 1120 L368.719 1126 L368.719 1123 L368 1123 L368 1117 L368.719 1117 Z" fill="#0FFF00" /><path d="M346 1108.74 L352 1114.74 L358 1108.74 L355 1108.74 L355 1104 L349 1104 L349 1108.74 Z" fill="#61FF00" /><path d="M474 1108.74 L480 1114.74 L486 1108.74 L483 1108.74 L483 1104 L477 1104 L477 1108.74 Z" fill="#61FF00" /><path d="M496.711 1370 L502.711 1376 L496.711 1382 L496.711 1379 L496 1379 L496 1373 L496.711 1373 Z" fill="#0FFF00" /><path d="M474 1363.88 L480 1369.88 L486 1363.88 L483 1363.88 L483 1360 L477 1360 L477 1363.88 Z" fill="#50FF00" /><path d="M314 1460.86 L320 1466.86 L326 1460.86 L323 1460.86 L323 1456 L317 1456 L317 1460.86 Z" fill="#64FF00" /><path d="M410 787.105 L416 793.105 L422 787.105 L419 787.105 L419 784 L413 784 L413 787.105 Z" fill="#40FF00" /><path d="M474 753.949 L480 759.949 L486 753.949 L483 753.949 L483 752 L477 752 L477 753.949 Z" fill="#28FF00" /><path d="M367.09 762 L361.09 768 L367.09 774 L367.09 771 L368 771 L368 765 L367.09 765 Z" fill="#13FF00" /><path d="M346 753.949 L352 759.949 L358 753.949 L355 753.949 L355 752 L349 752 L349 753.949 Z" fill="#28FF00" /><path d="M442 240.812 L448 246.812 L454 240.812 L451 240.812 L451 240 L445 240 L445 240.812 Z" fill="#11FF00" /><path d="M400.03 890 L406.03 896 L400.03 902 L400.03 899 L400 899 L400 893 L400.03 893 Z" fill="#01FF00" /><path d="M442 562.796 L448 568.796 L454 562.796 L451 562.796 L451 560 L445 560 L445 562.796 Z" fill="#39FF00" /><path d="M464.116 826 L470.116 832 L464.116 838 L464.116 835 L464 835 L464 829 L464.116 829 Z" fill="#02FF00" /><path d="M109.021 1850 L103.021 1856 L109.021 1862 L109.021 1859 L112 1859 L112 1853 L109.021 1853 Z" fill="#3DFF00" /><path d="M122 1908.23 L128 1914.23 L134 1908.23 L131 1908.23 L131 1904 L125 1904 L125 1908.23 Z" fill="#57FF00" /><path d="M528.717 1466 L534.717 1472 L528.717 1478 L528.717 1475 L528 1475 L528 1469 L528.717 1469 Z" fill="#0FFF00" /><path d="M506 1460.86 L512 1466.86 L518 1460.86 L515 1460.86 L515 1456 L509 1456 L509 1460.86 Z" fill="#64FF00" /><path d="M474 819.107 L480 825.107 L486 819.107 L483 819.107 L483 816 L477 816 L477 819.107 Z" fill="#40FF00" /><path d="M474 1076.61 L480 1082.61 L486 1076.61 L483 1076.61 L483 1072 L477 1072 L477 1076.61 Z" fill="#5FFF00" /><path d="M269.631 1434 L263.631 1440 L269.631 1446 L269.631 1443 L272 1443 L272 1437 L269.631 1437 Z" fill="#31FF00" /><path d="M432.062 346 L438.062 352 L432.062 358 L432.062 355 L432 355 L432 349 L432.062 349 Z" fill="#01FF00" /><path d="M238.801 1658 L232.801 1664 L238.801 1670 L238.801 1667 L240 1667 L240 1661 L238.801 1661 Z" fill="#19FF00" /><path d="M218 1654.04 L224 1660.04 L230 1654.04 L227 1654.04 L227 1648 L221 1648 L221 1654.04 Z" fill="#7CFF00" /><path d="M442 305.553 L448 311.553 L454 305.553 L451 305.553 L451 304 L445 304 L445 305.553 Z" fill="#20FF00" /><path d="M528.073 1530 L534.073 1536 L528.073 1542 L528.073 1539 L528 1539 L528 1533 L528.073 1533 Z" fill="#01FF00" /><path d="M506 1524.06 L512 1530.06 L518 1524.06 L515 1524.06 L515 1520 L509 1520 L509 1524.06 Z" fill="#53FF00" /><path d="M346 1426.38 L352 1432.38 L358 1426.38 L355 1426.38 L355 1424 L349 1424 L349 1426.38 Z" fill="#31FF00" /><path d="M464.355 1146 L470.355 1152 L464.355 1158 L464.355 1155 L464 1155 L464 1149 L464.355 1149 Z" fill="#07FF00" /><path d="M442 1139.07 L448 1145.07 L454 1139.07 L451 1139.07 L451 1136 L445 1136 L445 1139.07 Z" fill="#3FFF00" /><path d="M303.018 1370 L297.018 1376 L303.018 1382 L303.018 1379 L304 1379 L304 1373 L303.018 1373 Z" fill="#14FF00" /><path d="M282 1362.43 L288 1368.43 L294 1362.43 L291 1362.43 L291 1360 L285 1360 L285 1362.43 Z" fill="#32FF00" /><path d="M431.97 890 L425.97 896 L431.97 902 L431.97 899 L432 899 L432 893 L431.97 893 Z" fill="#01FF00" /><path d="M410 883.494 L416 889.494 L422 883.494 L419 883.494 L419 880 L413 880 L413 883.494 Z" fill="#48FF00" /><path d="M474 915.69 L480 921.69 L486 915.69 L483 915.69 L483 912 L477 912 L477 915.69 Z" fill="#4CFF00" /><path d="M410 851.369 L416 857.369 L422 851.369 L419 851.369 L419 848 L413 848 L413 851.369 Z" fill="#45FF00" /><path d="M303.398 1178 L297.398 1184 L303.398 1190 L303.398 1187 L304 1187 L304 1181 L303.398 1181 Z" fill="#0CFF00" /><path d="M431.811 1530 L425.811 1536 L431.811 1542 L431.811 1539 L432 1539 L432 1533 L431.811 1533 Z" fill="#04FF00" /><path d="M337.641 1530 L343.641 1536 L337.641 1542 L337.641 1539 L336 1539 L336 1533 L337.641 1533 Z" fill="#22FF00" /><path d="M314 1524.06 L320 1530.06 L326 1524.06 L323 1524.06 L323 1520 L317 1520 L317 1524.06 Z" fill="#53FF00" /><path d="M367.893 954 L361.893 960 L367.893 966 L367.893 963 L368 963 L368 957 L367.893 957 Z" fill="#02FF00" /><path d="M346 947.815 L352 953.815 L358 947.815 L355 947.815 L355 944 L349 944 L349 947.815 Z" fill="#4EFF00" /><path d="M367.026 1658 L361.026 1664 L367.026 1670 L367.026 1667 L368 1667 L368 1661 L367.026 1661 Z" fill="#14FF00" /><path d="M346 1650.31 L352 1656.31 L358 1650.31 L355 1650.31 L355 1648 L349 1648 L349 1650.31 Z" fill="#2FFF00" /><path d="M302.262 1594 L296.262 1600 L302.262 1606 L302.262 1603 L304 1603 L304 1597 L302.262 1597 Z" fill="#24FF00" /><path d="M282 1586.76 L288 1592.76 L294 1586.76 L291 1586.76 L291 1584 L285 1584 L285 1586.76 Z" fill="#39FF00" /><path d="M90 1907.01 L96 1913.01 L102 1907.01 L99 1907.01 L99 1904 L93 1904 L93 1907.01 Z" fill="#3EFF00" /><path d="M730 1907.01 L736 1913.01 L742 1907.01 L739 1907.01 L739 1904 L733 1904 L733 1907.01 Z" fill="#3EFF00" /><path d="M335.756 1274 L329.756 1280 L335.756 1286 L335.756 1283 L336 1283 L336 1277 L335.756 1277 Z" fill="#05FF00" /><path d="M314 1268.32 L320 1274.32 L326 1268.32 L323 1268.32 L323 1264 L317 1264 L317 1268.32 Z" fill="#59FF00" /><path d="M434.223 1114 L440.223 1120 L434.223 1126 L434.223 1123 L432 1123 L432 1117 L434.223 1117 Z" fill="#2EFF00" /><path d="M410 1108.32 L416 1114.32 L422 1108.32 L419 1108.32 L419 1104 L413 1104 L413 1108.32 Z" fill="#59FF00" /><path d="M474 1044.49 L480 1050.49 L486 1044.49 L483 1044.49 L483 1040 L477 1040 L477 1044.49 Z" fill="#5CFF00" /><path d="M753.442 1882 L759.442 1888 L753.442 1894 L753.442 1891 L752 1891 L752 1885 L753.442 1885 Z" fill="#1EFF00" /><path d="M730 1875.1 L736 1881.1 L742 1875.1 L739 1875.1 L739 1872 L733 1872 L733 1875.1 Z" fill="#40FF00" /><path d="M463.756 186 L457.756 192 L463.756 198 L463.756 195 L464 195 L464 189 L463.756 189 Z" fill="#05FF00" /><path d="M442 176.358 L448 182.358 L454 176.358 L451 176.358 L451 176 L445 176 L445 176.358 Z" fill="#07FF00" /><path d="M464.192 1018 L470.192 1024 L464.192 1030 L464.192 1027 L464 1027 L464 1021 L464.192 1021 Z" fill="#04FF00" /><path d="M464.303 730 L470.303 736 L464.303 742 L464.303 739 L464 739 L464 733 L464.303 733 Z" fill="#06FF00" /><path d="M442 721.552 L448 727.552 L454 721.552 L451 721.552 L451 720 L445 720 L445 721.552 Z" fill="#20FF00" /><path d="M378 1233.97 L384 1239.97 L390 1233.97 L387 1233.97 L387 1232 L381 1232 L381 1233.97 Z" fill="#28FF00" /><path d="M368.648 1530 L374.648 1536 L368.648 1542 L368.648 1539 L368 1539 L368 1533 L368.648 1533 Z" fill="#0DFF00" /><path d="M58 1905.57 L64 1911.57 L70 1905.57 L67 1905.57 L67 1904 L61 1904 L61 1905.57 Z" fill="#20FF00" /><path d="M218 1784.83 L224 1790.83 L230 1784.83 L227 1784.83 L227 1776 L221 1776 L221 1784.83 Z" fill="#B5FF00" /><path d="M687.638 1850 L681.638 1856 L687.638 1862 L687.638 1859 L688 1859 L688 1853 L687.638 1853 Z" fill="#07FF00" /><path d="M397.777 1114 L391.777 1120 L397.777 1126 L397.777 1123 L400 1123 L400 1117 L397.777 1117 Z" fill="#2EFF00" /><path d="M365.905 1242 L359.905 1248 L365.905 1254 L365.905 1251 L368 1251 L368 1245 L365.905 1245 Z" fill="#2BFF00" /><path d="M346 1235.21 L352 1241.21 L358 1235.21 L355 1235.21 L355 1232 L349 1232 L349 1235.21 Z" fill="#42FF00" /><path d="M333.494 1434 L327.494 1440 L333.494 1446 L333.494 1443 L336 1443 L336 1437 L333.494 1437 Z" fill="#33FF00" /><path d="M314 1427.86 L320 1433.86 L326 1427.86 L323 1427.86 L323 1424 L317 1424 L317 1427.86 Z" fill="#4FFF00" /><path d="M410 1076.2 L416 1082.2 L422 1076.2 L419 1076.2 L419 1072 L413 1072 L413 1076.2 Z" fill="#56FF00" /><path d="M474 1012.17 L480 1018.17 L486 1012.17 L483 1012.17 L483 1008 L477 1008 L477 1012.17 Z" fill="#56FF00" /><path d="M399.938 474 L393.938 480 L399.938 486 L399.938 483 L400 483 L400 477 L399.938 477 Z" fill="#01FF00" /><path d="M378 466.299 L384 472.299 L390 466.299 L387 466.299 L387 464 L381 464 L381 466.299 Z" fill="#2FFF00" /><path d="M303.665 1498 L297.665 1504 L303.665 1510 L303.665 1507 L304 1507 L304 1501 L303.665 1501 Z" fill="#07FF00" /><path d="M282 1491.89 L288 1497.89 L294 1491.89 L291 1491.89 L291 1488 L285 1488 L285 1491.89 Z" fill="#50FF00" /><path d="M399.41 1210 L393.41 1216 L399.41 1222 L399.41 1219 L400 1219 L400 1213 L399.41 1213 Z" fill="#0CFF00" /><path d="M378 1202.11 L384 1208.11 L390 1202.11 L387 1202.11 L387 1200 L381 1200 L381 1202.11 Z" fill="#2BFF00" /><path d="M368.113 1562 L374.113 1568 L368.113 1574 L368.113 1571 L368 1571 L368 1565 L368.113 1565 Z" fill="#02FF00" /><path d="M346 1553.12 L352 1559.12 L358 1553.12 L355 1553.12 L355 1552 L349 1552 L349 1553.12 Z" fill="#17FF00" /><path d="M346 1044.49 L352 1050.49 L358 1044.49 L355 1044.49 L355 1040 L349 1040 L349 1044.49 Z" fill="#5CFF00" /><path d="M464.91 762 L470.91 768 L464.91 774 L464.91 771 L464 771 L464 765 L464.91 765 Z" fill="#13FF00" /><path d="M442 753.342 L448 759.342 L454 753.342 L451 753.342 L451 752 L445 752 L445 753.342 Z" fill="#1CFF00" /><path d="M199.051 1786 L193.051 1792 L199.051 1798 L199.051 1795 L208 1795 L208 1789 L199.051 1789 Z" fill="#B8FF00" /><path d="M172.453 1850 L166.453 1856 L172.453 1862 L172.453 1859 L176 1859 L176 1853 L172.453 1853 Z" fill="#49FF00" /><path d="M698 1908.23 L704 1914.23 L710 1908.23 L707 1908.23 L707 1904 L701 1904 L701 1908.23 Z" fill="#57FF00" /><path d="M176.802 1786 L182.802 1792 L176.802 1798 L176.802 1795 L176 1795 L176 1789 L176.802 1789 Z" fill="#10FF00" /><path d="M154 1784.51 L160 1790.51 L166 1784.51 L163 1784.51 L163 1776 L157 1776 L157 1784.51 Z" fill="#AFFF00" /><path d="M378 1139.07 L384 1145.07 L390 1139.07 L387 1139.07 L387 1136 L381 1136 L381 1139.07 Z" fill="#3FFF00" /><path d="M230.901 1722 L224.901 1728 L230.901 1734 L230.901 1731 L240 1731 L240 1725 L230.901 1725 Z" fill="#BBFF00" /><path d="M722.979 1850 L728.979 1856 L722.979 1862 L722.979 1859 L720 1859 L720 1853 L722.979 1853 Z" fill="#3DFF00" /><path d="M698 1848.08 L704 1854.08 L710 1848.08 L707 1848.08 L707 1840 L701 1840 L701 1848.08 Z" fill="#A6FF00" /><path d="M655.198 1786 L649.198 1792 L655.198 1798 L655.198 1795 L656 1795 L656 1789 L655.198 1789 Z" fill="#10FF00" /><path d="M432.068 1018 L438.068 1024 L432.068 1030 L432.068 1027 L432 1027 L432 1021 L432.068 1021 Z" fill="#01FF00" /><path d="M410 1012.08 L416 1018.08 L422 1012.08 L419 1012.08 L419 1008 L413 1008 L413 1012.08 Z" fill="#54FF00" /><path d="M302.375 1434 L296.375 1440 L302.375 1446 L302.375 1443 L304 1443 L304 1437 L302.375 1437 Z" fill="#21FF00" /><path d="M282 1428.57 L288 1434.57 L294 1428.57 L291 1428.57 L291 1424 L285 1424 L285 1428.57 Z" fill="#5EFF00" /><path d="M367.62 1178 L361.62 1184 L367.62 1190 L367.62 1187 L368 1187 L368 1181 L367.62 1181 Z" fill="#08FF00" /><path d="M346 1170.86 L352 1176.86 L358 1170.86 L355 1170.86 L355 1168 L349 1168 L349 1170.86 Z" fill="#3BFF00" /><path d="M431.443 762 L425.443 768 L431.443 774 L431.443 771 L432 771 L432 765 L431.443 765 Z" fill="#0BFF00" /><path d="M410 753.868 L416 759.868 L422 753.868 L419 753.868 L419 752 L413 752 L413 753.868 Z" fill="#26FF00" /><path d="M304.851 1210 L310.851 1216 L304.851 1222 L304.851 1219 L304 1219 L304 1213 L304.851 1213 Z" fill="#11FF00" /><path d="M282 1200.73 L288 1206.73 L294 1200.73 L291 1200.73 L291 1200 L285 1200 L285 1200.73 Z" fill="#0FFF00" /><path d="M367.646 1146 L361.646 1152 L367.646 1158 L367.646 1155 L368 1155 L368 1149 L367.646 1149 Z" fill="#07FF00" /><path d="M346 1140.14 L352 1146.14 L358 1140.14 L355 1140.14 L355 1136 L349 1136 L349 1140.14 Z" fill="#55FF00" /><path d="M442 594.92 L448 600.92 L454 594.92 L451 594.92 L451 592 L445 592 L445 594.92 Z" fill="#3CFF00" /><path d="M78.5582 1882 L72.5582 1888 L78.5582 1894 L78.5582 1891 L80 1891 L80 1885 L78.5582 1885 Z" fill="#1EFF00" /><path d="M410 80.2485 L416 86.2485 L422 80.2485 L419 80.2485 L419 80 L413 80 L413 80.2485 Z" fill="#05FF00" /><path d="M367.884 826 L361.884 832 L367.884 838 L367.884 835 L368 835 L368 829 L367.884 829 Z" fill="#02FF00" /><path d="M346 819.107 L352 825.107 L358 819.107 L355 819.107 L355 816 L349 816 L349 819.107 Z" fill="#40FF00" /><path d="M657.003 1882 L663.003 1888 L657.003 1894 L657.003 1891 L656 1891 L656 1885 L657.003 1885 Z" fill="#15FF00" /><path d="M634 1878.58 L640 1884.58 L646 1878.58 L643 1878.58 L643 1872 L637 1872 L637 1878.58 Z" fill="#87FF00" /><path d="M695.83 1786 L701.83 1792 L695.83 1798 L695.83 1795 L688 1795 L688 1789 L695.83 1789 Z" fill="#A1FF00" /><path d="M666 1784.51 L672 1790.51 L678 1784.51 L675 1784.51 L675 1776 L669 1776 L669 1784.51 Z" fill="#AFFF00" /><path d="M531.657 1690 L537.657 1696 L531.657 1702 L531.657 1699 L528 1699 L528 1693 L531.657 1693 Z" fill="#4BFF00" /><path d="M506 1683.53 L512 1689.53 L518 1683.53 L515 1683.53 L515 1680 L509 1680 L509 1683.53 Z" fill="#49FF00" /><path d="M186 1878.58 L192 1884.58 L198 1878.58 L195 1878.58 L195 1872 L189 1872 L189 1878.58 Z" fill="#87FF00" /><path d="M624.522 1722 L630.522 1728 L624.522 1734 L624.522 1731 L624 1731 L624 1725 L624.522 1725 Z" fill="#0BFF00" /><path d="M762 1905.57 L768 1911.57 L774 1905.57 L771 1905.57 L771 1904 L765 1904 L765 1905.57 Z" fill="#20FF00" /><path d="M538 1200.73 L544 1206.73 L550 1200.73 L547 1200.73 L547 1200 L541 1200 L541 1200.73 Z" fill="#0FFF00" /><path d="M496.299 1306 L502.299 1312 L496.299 1318 L496.299 1315 L496 1315 L496 1309 L496.299 1309 Z" fill="#06FF00" /><path d="M474 1300.63 L480 1306.63 L486 1300.63 L483 1300.63 L483 1296 L477 1296 L477 1300.63 Z" fill="#5FFF00" /><path d="M346 1332.58 L352 1338.58 L358 1332.58 L355 1332.58 L355 1328 L349 1328 L349 1332.58 Z" fill="#5EFF00" /><path d="M592.965 1594 L598.965 1600 L592.965 1606 L592.965 1603 L592 1603 L592 1597 L592.965 1597 Z" fill="#14FF00" /><path d="M570 1587.42 L576 1593.42 L582 1587.42 L579 1587.42 L579 1584 L573 1584 L573 1587.42 Z" fill="#46FF00" /><path d="M570 1685.07 L576 1691.07 L582 1685.07 L579 1685.07 L579 1680 L573 1680 L573 1685.07 Z" fill="#68FF00" /><path d="M563.781 1690 L569.781 1696 L563.781 1702 L563.781 1699 L560 1699 L560 1693 L563.781 1693 Z" fill="#4EFF00" /><path d="M335.224 1178 L329.224 1184 L335.224 1190 L335.224 1187 L336 1187 L336 1181 L335.224 1181 Z" fill="#10FF00" /><path d="M314 1169.88 L320 1175.88 L326 1169.88 L323 1169.88 L323 1168 L317 1168 L317 1169.88 Z" fill="#27FF00" /><path d="M721.222 1882 L727.222 1888 L721.222 1894 L721.222 1891 L720 1891 L720 1885 L721.222 1885 Z" fill="#19FF00" /><path d="M698 1876.86 L704 1882.86 L710 1876.86 L707 1876.86 L707 1872 L701 1872 L701 1876.86 Z" fill="#64FF00" /><path d="M346 851.347 L352 857.347 L358 851.347 L355 851.347 L355 848 L349 848 L349 851.347 Z" fill="#45FF00" /><path d="M561.698 1594 L567.698 1600 L561.698 1606 L561.698 1603 L560 1603 L560 1597 L561.698 1597 Z" fill="#23FF00" /><path d="M538 1586.76 L544 1592.76 L550 1586.76 L547 1586.76 L547 1584 L541 1584 L541 1586.76 Z" fill="#39FF00" /><path d="M174.997 1882 L168.997 1888 L174.997 1894 L174.997 1891 L176 1891 L176 1885 L174.997 1885 Z" fill="#15FF00" /><path d="M154 1876.03 L160 1882.03 L166 1876.03 L163 1876.03 L163 1872 L157 1872 L157 1876.03 Z" fill="#53FF00" /><path d="M154 1908.7 L160 1914.7 L166 1908.7 L163 1908.7 L163 1904 L157 1904 L157 1908.7 Z" fill="#60FF00" /><path d="M207.478 1722 L201.478 1728 L207.478 1734 L207.478 1731 L208 1731 L208 1725 L207.478 1725 Z" fill="#0BFF00" /><path d="M186 1719.61 L192 1725.61 L198 1719.61 L195 1719.61 L195 1712 L189 1712 L189 1719.61 Z" fill="#9CFF00" /><path d="M186 1909.7 L192 1915.7 L198 1909.7 L195 1909.7 L195 1904 L189 1904 L189 1909.7 Z" fill="#75FF00" /><path d="M399.991 154 L393.991 160 L399.991 166 L399.991 163 L400 163 L400 157 L399.991 157 Z" fill="#00FF00" /><path d="M378 144.22 L384 150.22 L390 144.22 L387 144.22 L387 144 L381 144 L381 144.22 Z" fill="#05FF00" /><path d="M136.17 1786 L130.17 1792 L136.17 1798 L136.17 1795 L144 1795 L144 1789 L136.17 1789 Z" fill="#A1FF00" /><path d="M634 1909.7 L640 1915.7 L646 1909.7 L643 1909.7 L643 1904 L637 1904 L637 1909.7 Z" fill="#75FF00" /><path d="M186 1850 L192 1856 L198 1850 L195 1850 L195 1840 L189 1840 L189 1850 Z" fill="#CDFF00" /><path d="M631.364 1658 L637.364 1664 L631.364 1670 L631.364 1667 L624 1667 L624 1661 L631.364 1661 Z" fill="#97FF00" /><path d="M602 1654.04 L608 1660.04 L614 1654.04 L611 1654.04 L611 1648 L605 1648 L605 1654.04 Z" fill="#7CFF00" /><path d="M463.281 1114 L457.281 1120 L463.281 1126 L463.281 1123 L464 1123 L464 1117 L463.281 1117 Z" fill="#0FFF00" /><path d="M301.693 1338 L295.693 1344 L301.693 1350 L301.693 1347 L304 1347 L304 1341 L301.693 1341 Z" fill="#2FFF00" /><path d="M346 1395.29 L352 1401.29 L358 1395.29 L355 1395.29 L355 1392 L349 1392 L349 1395.29 Z" fill="#44FF00" /><path d="M688.466 1882 L694.466 1888 L688.466 1894 L688.466 1891 L688 1891 L688 1885 L688.466 1885 Z" fill="#0AFF00" /><path d="M666 1876.03 L672 1882.03 L678 1876.03 L675 1876.03 L675 1872 L669 1872 L669 1876.03 Z" fill="#53FF00" /><path d="M218 1752.7 L224 1758.7 L230 1752.7 L227 1752.7 L227 1744 L221 1744 L221 1752.7 Z" fill="#B3FF00" /><path d="M334.968 1402 L328.968 1408 L334.968 1414 L334.968 1411 L336 1411 L336 1405 L334.968 1405 Z" fill="#15FF00" /><path d="M314 1395.61 L320 1401.61 L326 1395.61 L323 1395.61 L323 1392 L317 1392 L317 1395.61 Z" fill="#4AFF00" /><path d="M464.335 698 L470.335 704 L464.335 710 L464.335 707 L464 707 L464 701 L464.335 701 Z" fill="#07FF00" /><path d="M442 689.665 L448 695.665 L454 689.665 L451 689.665 L451 688 L445 688 L445 689.665 Z" fill="#22FF00" /><path d="M602 1752.7 L608 1758.7 L614 1752.7 L611 1752.7 L611 1744 L605 1744 L605 1752.7 Z" fill="#B3FF00" /><path d="M664.259 1722 L670.259 1728 L664.259 1734 L664.259 1731 L656 1731 L656 1725 L664.259 1725 Z" fill="#AAFF00" /><path d="M634 1719.61 L640 1725.61 L646 1719.61 L643 1719.61 L643 1712 L637 1712 L637 1719.61 Z" fill="#9CFF00" /><path d="M410 1044.07 L416 1050.07 L422 1044.07 L419 1044.07 L419 1040 L413 1040 L413 1044.07 Z" fill="#54FF00" /><path d="M268.219 1690 L262.219 1696 L268.219 1702 L268.219 1699 L272 1699 L272 1693 L268.219 1693 Z" fill="#4EFF00" /><path d="M250 1685.07 L256 1691.07 L262 1685.07 L259 1685.07 L259 1680 L253 1680 L253 1685.07 Z" fill="#68FF00" /><path d="M496.829 1338 L502.829 1344 L496.829 1350 L496.829 1347 L496 1347 L496 1341 L496.829 1341 Z" fill="#11FF00" /><path d="M474 1332.58 L480 1338.58 L486 1332.58 L483 1332.58 L483 1328 L477 1328 L477 1332.58 Z" fill="#5EFF00" /><path d="M466.095 1242 L472.095 1248 L466.095 1254 L466.095 1251 L464 1251 L464 1245 L466.095 1245 Z" fill="#2BFF00" /><path d="M442 1233.97 L448 1239.97 L454 1233.97 L451 1233.97 L451 1232 L445 1232 L445 1233.97 Z" fill="#28FF00" /><path d="M300.343 1690 L294.343 1696 L300.343 1702 L300.343 1699 L304 1699 L304 1693 L300.343 1693 Z" fill="#4BFF00" /><path d="M367.406 1594 L361.406 1600 L367.406 1606 L367.406 1603 L368 1603 L368 1597 L367.406 1597 Z" fill="#0CFF00" /><path d="M346 1585.42 L352 1591.42 L358 1585.42 L355 1585.42 L355 1584 L349 1584 L349 1585.42 Z" fill="#1DFF00" /><path d="M346 1076.61 L352 1082.61 L358 1076.61 L355 1076.61 L355 1072 L349 1072 L349 1076.61 Z" fill="#5FFF00" /><path d="M335.701 1306 L329.701 1312 L335.701 1318 L335.701 1315 L336 1315 L336 1309 L335.701 1309 Z" fill="#06FF00" /><path d="M314 1300.69 L320 1306.69 L326 1300.69 L323 1300.69 L323 1296 L317 1296 L317 1300.69 Z" fill="#60FF00" /><path d="M474 980.046 L480 986.046 L486 980.046 L483 980.046 L483 976 L477 976 L477 980.046 Z" fill="#53FF00" /><path d="M623.272 1562 L617.272 1568 L623.272 1574 L623.272 1571 L624 1571 L624 1565 L623.272 1565 Z" fill="#0FFF00" /><path d="M602 1553.81 L608 1559.81 L614 1553.81 L611 1553.81 L611 1552 L605 1552 L605 1553.81 Z" fill="#25FF00" /><path d="M666 1752.38 L672 1758.38 L678 1752.38 L675 1752.38 L675 1744 L669 1744 L669 1752.38 Z" fill="#ACFF00" /><path d="M314 1683.53 L320 1689.53 L326 1683.53 L323 1683.53 L323 1680 L317 1680 L317 1683.53 Z" fill="#49FF00" /><path d="M250 1720.97 L256 1726.97 L262 1720.97 L259 1720.97 L259 1712 L253 1712 L253 1720.97 Z" fill="#B8FF00" /><path d="M186 1687.49 L192 1693.49 L198 1687.49 L195 1687.49 L195 1680 L189 1680 L189 1687.49 Z" fill="#9AFF00" /><path d="M122 1815.95 L128 1821.95 L134 1815.95 L131 1815.95 L131 1808 L125 1808 L125 1815.95 Z" fill="#A3FF00" /><path d="M143.534 1882 L137.534 1888 L143.534 1894 L143.534 1891 L144 1891 L144 1885 L143.534 1885 Z" fill="#0AFF00" /><path d="M122 1876.86 L128 1882.86 L134 1876.86 L131 1876.86 L131 1872 L125 1872 L125 1876.86 Z" fill="#64FF00" /><path d="M442 498.485 L448 504.485 L454 498.485 L451 498.485 L451 496 L445 496 L445 498.485 Z" fill="#33FF00" /><path d="M432.095 122 L438.095 128 L432.095 134 L432.095 131 L432 131 L432 125 L432.095 125 Z" fill="#02FF00" /><path d="M410 112.373 L416 118.373 L422 112.373 L419 112.373 L419 112 L413 112 L413 112.373 Z" fill="#08FF00" /><path d="M400.008 826 L406.008 832 L400.008 838 L400.008 835 L400 835 L400 829 L400.008 829 Z" fill="#00FF00" /><path d="M431.955 186 L425.955 192 L431.955 198 L431.955 195 L432 195 L432 189 L431.955 189 Z" fill="#01FF00" /><path d="M410 176.412 L416 182.412 L422 176.412 L419 176.412 L419 176 L413 176 L413 176.412 Z" fill="#08FF00" /><path d="M432.062 474 L438.062 480 L432.062 486 L432.062 483 L432 483 L432 477 L432.062 477 Z" fill="#01FF00" /><path d="M399.905 122 L393.905 128 L399.905 134 L399.905 131 L400 131 L400 125 L399.905 125 Z" fill="#02FF00" /><path d="M400.045 186 L406.045 192 L400.045 198 L400.045 195 L400 195 L400 189 L400.045 189 Z" fill="#01FF00" /><path d="M378 176.358 L384 182.358 L390 176.358 L387 176.358 L387 176 L381 176 L381 176.358 Z" fill="#07FF00" /><path d="M463.995 154 L457.995 160 L463.995 166 L463.995 163 L464 163 L464 157 L463.995 157 Z" fill="#00FF00" /><path d="M442 144.22 L448 150.22 L454 144.22 L451 144.22 L451 144 L445 144 L445 144.22 Z" fill="#05FF00" /><path d="M399.938 346 L393.938 352 L399.938 358 L399.938 355 L400 355 L400 349 L399.938 349 Z" fill="#01FF00" /><path d="M378 337.677 L384 343.677 L390 337.677 L387 337.677 L387 336 L381 336 L381 337.677 Z" fill="#22FF00" /><path d="M368.005 154 L374.005 160 L368.005 166 L368.005 163 L368 163 L368 157 L368.005 157 Z" fill="#00FF00" /><path d="M154 1752.38 L160 1758.38 L166 1752.38 L163 1752.38 L163 1744 L157 1744 L157 1752.38 Z" fill="#ACFF00" /><path d="M563.048 1626 L569.048 1632 L563.048 1638 L563.048 1635 L560 1635 L560 1629 L563.048 1629 Z" fill="#3FFF00" /><path d="M538 1618.92 L544 1624.92 L550 1618.92 L547 1618.92 L547 1616 L541 1616 L541 1618.92 Z" fill="#3CFF00" /><path d="M506 1235.52 L512 1241.52 L518 1235.52 L515 1235.52 L515 1232 L509 1232 L509 1235.52 Z" fill="#48FF00" /><path d="M399.992 218 L393.992 224 L399.992 230 L399.992 227 L400 227 L400 221 L399.992 221 Z" fill="#00FF00" /><path d="M378 208.68 L384 214.68 L390 208.68 L387 208.68 L387 208 L381 208 L381 208.68 Z" fill="#0EFF00" /><path d="M238.697 1626 L232.697 1632 L238.697 1638 L238.697 1635 L240 1635 L240 1629 L238.697 1629 Z" fill="#1BFF00" /><path d="M218 1620.61 L224 1626.61 L230 1620.61 L227 1620.61 L227 1616 L221 1616 L221 1620.61 Z" fill="#5FFF00" /><path d="M474 883.472 L480 889.472 L486 883.472 L483 883.472 L483 880 L477 880 L477 883.472 Z" fill="#47FF00" /><path d="M432.062 538 L438.062 544 L432.062 550 L432.062 547 L432 547 L432 541 L432.062 541 Z" fill="#01FF00" /><path d="M432.591 1210 L438.591 1216 L432.591 1222 L432.591 1219 L432 1219 L432 1213 L432.591 1213 Z" fill="#0CFF00" /><path d="M410 1201.06 L416 1207.06 L422 1201.06 L419 1201.06 L419 1200 L413 1200 L413 1201.06 Z" fill="#16FF00" /><path d="M562.369 1434 L568.369 1440 L562.369 1446 L562.369 1443 L560 1443 L560 1437 L562.369 1437 Z" fill="#31FF00" /><path d="M538 1428.57 L544 1434.57 L550 1428.57 L547 1428.57 L547 1424 L541 1424 L541 1428.57 Z" fill="#5EFF00" /><path d="M399.591 282 L393.591 288 L399.591 294 L399.591 291 L400 291 L400 285 L399.591 285 Z" fill="#08FF00" /><path d="M378 273.02 L384 279.02 L390 273.02 L387 273.02 L387 272 L381 272 L381 273.02 Z" fill="#15FF00" /><path d="M367.697 730 L361.697 736 L367.697 742 L367.697 739 L368 739 L368 733 L367.697 733 Z" fill="#06FF00" /><path d="M346 721.521 L352 727.521 L358 721.521 L355 721.521 L355 720 L349 720 L349 721.521 Z" fill="#1FFF00" /><path d="M431.241 602 L425.241 608 L431.241 614 L431.241 611 L432 611 L432 605 L431.241 605 Z" fill="#10FF00" /><path d="M474 176.119 L480 182.119 L486 176.119 L483 176.119 L483 176 L477 176 L477 176.119 Z" fill="#02FF00" /><path d="M432.184 666 L438.184 672 L432.184 678 L432.184 675 L432 675 L432 669 L432.184 669 Z" fill="#04FF00" /><path d="M410 657.996 L416 663.996 L422 657.996 L419 657.996 L419 656 L413 656 L413 657.996 Z" fill="#29FF00" /><path d="M561.039 1562 L567.039 1568 L561.039 1574 L561.039 1571 L560 1571 L560 1565 L561.039 1565 Z" fill="#15FF00" /><path d="M538 1555.03 L544 1561.03 L550 1555.03 L547 1555.03 L547 1552 L541 1552 L541 1555.03 Z" fill="#3EFF00" /><path d="M399.938 410 L393.938 416 L399.938 422 L399.938 419 L400 419 L400 413 L399.938 413 Z" fill="#01FF00" /><path d="M378 401.988 L384 407.988 L390 401.988 L387 401.988 L387 400 L381 400 L381 401.988 Z" fill="#29FF00" /><path d="M431.983 954 L425.983 960 L431.983 966 L431.983 963 L432 963 L432 957 L431.983 957 Z" fill="#00FF00" /><path d="M410 947.802 L416 953.802 L422 947.802 L419 947.802 L419 944 L413 944 L413 947.802 Z" fill="#4EFF00" /><path d="M442 626.285 L448 632.285 L454 626.285 L451 626.285 L451 624 L445 624 L445 626.285 Z" fill="#2FFF00" /><path d="M399.917 250 L393.917 256 L399.917 262 L399.917 259 L400 259 L400 253 L399.917 253 Z" fill="#02FF00" /><path d="M378 240.812 L384 246.812 L390 240.812 L387 240.812 L387 240 L381 240 L381 240.812 Z" fill="#11FF00" /><path d="M400.189 1530 L406.189 1536 L400.189 1542 L400.189 1539 L400 1539 L400 1533 L400.189 1533 Z" fill="#04FF00" /><path d="M464.107 954 L470.107 960 L464.107 966 L464.107 963 L464 963 L464 957 L464.107 957 Z" fill="#02FF00" /><path d="M378 562.796 L384 568.796 L390 562.796 L387 562.796 L387 560 L381 560 L381 562.796 Z" fill="#39FF00" /><path d="M378 305.553 L384 311.553 L390 305.553 L387 305.553 L387 304 L381 304 L381 305.553 Z" fill="#20FF00" /><path d="M442 273.02 L448 279.02 L454 273.02 L451 273.02 L451 272 L445 272 L445 273.02 Z" fill="#15FF00" /><path d="M474 851.347 L480 857.347 L486 851.347 L483 851.347 L483 848 L477 848 L477 851.347 Z" fill="#45FF00" /><path d="M378 434.174 L384 440.174 L390 434.174 L387 434.174 L387 432 L381 432 L381 434.174 Z" fill="#2DFF00" /><path d="M442 337.677 L448 343.677 L454 337.677 L451 337.677 L451 336 L445 336 L445 337.677 Z" fill="#22FF00" /><path d="M239.035 1594 L233.035 1600 L239.035 1606 L239.035 1603 L240 1603 L240 1597 L239.035 1597 Z" fill="#14FF00" /><path d="M218 1587.52 L224 1593.52 L230 1587.52 L227 1587.52 L227 1584 L221 1584 L221 1587.52 Z" fill="#48FF00" /><path d="M432.409 282 L438.409 288 L432.409 294 L432.409 291 L432 291 L432 285 L432.409 285 Z" fill="#08FF00" /><path d="M410 272.694 L416 278.694 L422 272.694 L419 272.694 L419 272 L413 272 L413 272.694 Z" fill="#0EFF00" /><path d="M400.031 730 L406.031 736 L400.031 742 L400.031 739 L400 739 L400 733 L400.031 733 Z" fill="#01FF00" /><path d="M378 721.552 L384 727.552 L390 721.552 L387 721.552 L387 720 L381 720 L381 721.552 Z" fill="#20FF00" /><path d="M442 466.299 L448 472.299 L454 466.299 L451 466.299 L451 464 L445 464 L445 466.299 Z" fill="#2FFF00" /><path d="M410 48.1242 L416 54.1242 L422 48.1242 L419 48.1242 L419 48 L413 48 L413 48.1242 Z" fill="#03FF00" /><path d="M432.062 410 L438.062 416 L432.062 422 L432.062 419 L432 419 L432 413 L432.062 413 Z" fill="#01FF00" /><path d="M474 786.983 L480 792.983 L486 786.983 L483 786.983 L483 784 L477 784 L477 786.983 Z" fill="#3DFF00" /><path d="M378 369.864 L384 375.864 L390 369.864 L387 369.864 L387 368 L381 368 L381 369.864 Z" fill="#26FF00" /><path d="M271.043 1530 L265.043 1536 L271.043 1542 L271.043 1539 L272 1539 L272 1533 L271.043 1533 Z" fill="#14FF00" /><path d="M250 1524.2 L256 1530.2 L262 1524.2 L259 1524.2 L259 1520 L253 1520 L253 1524.2 Z" fill="#56FF00" /><path d="M336.048 1594 L342.048 1600 L336.048 1606 L336.048 1603 L336 1603 L336 1597 L336.048 1597 Z" fill="#01FF00" /><path d="M314 1585.66 L320 1591.66 L326 1585.66 L323 1585.66 L323 1584 L317 1584 L317 1585.66 Z" fill="#22FF00" /><path d="M474 689.062 L480 695.062 L486 689.062 L483 689.062 L483 688 L477 688 L477 689.062 Z" fill="#16FF00" /><path d="M431.992 826 L425.992 832 L431.992 838 L431.992 835 L432 835 L432 829 L431.992 829 Z" fill="#00FF00" /><path d="M410 819.229 L416 825.229 L422 819.229 L419 819.229 L419 816 L413 816 L413 819.229 Z" fill="#42FF00" /><path d="M399.938 538 L393.938 544 L399.938 550 L399.938 547 L400 547 L400 541 L399.938 541 Z" fill="#01FF00" /><path d="M378 530.609 L384 536.609 L390 530.609 L387 530.609 L387 528 L381 528 L381 530.609 Z" fill="#36FF00" /><path d="M367.906 890 L361.906 896 L367.906 902 L367.906 899 L368 899 L368 893 L367.906 893 Z" fill="#02FF00" /><path d="M346 883.472 L352 889.472 L358 883.472 L355 883.472 L355 880 L349 880 L349 883.472 Z" fill="#47FF00" /><path d="M442 530.609 L448 536.609 L454 530.609 L451 530.609 L451 528 L445 528 L445 530.609 Z" fill="#36FF00" /><path d="M400.759 602 L406.759 608 L400.759 614 L400.759 611 L400 611 L400 605 L400.759 605 Z" fill="#10FF00" /><path d="M378 594.92 L384 600.92 L390 594.92 L387 594.92 L387 592 L381 592 L381 594.92 Z" fill="#3CFF00" /><path d="M400.466 1178 L406.466 1184 L400.466 1190 L400.466 1187 L400 1187 L400 1181 L400.466 1181 Z" fill="#0AFF00" /><path d="M378 1170.84 L384 1176.84 L390 1170.84 L387 1170.84 L387 1168 L381 1168 L381 1170.84 Z" fill="#3AFF00" /><path d="M659.547 1850 L665.547 1856 L659.547 1862 L659.547 1859 L656 1859 L656 1853 L659.547 1853 Z" fill="#49FF00" /><path d="M634 1850 L640 1856 L646 1850 L643 1850 L643 1840 L637 1840 L637 1850 Z" fill="#CDFF00" /><path d="M442 369.864 L448 375.864 L454 369.864 L451 369.864 L451 368 L445 368 L445 369.864 Z" fill="#26FF00" /><path d="M346 786.983 L352 792.983 L358 786.983 L355 786.983 L355 784 L349 784 L349 786.983 Z" fill="#3DFF00" /><path d="M400.115 634 L406.115 640 L400.115 646 L400.115 643 L400 643 L400 637 L400.115 637 Z" fill="#02FF00" /><path d="M378 626.285 L384 632.285 L390 626.285 L387 626.285 L387 624 L381 624 L381 626.285 Z" fill="#2FFF00" /><path d="M560.957 1530 L566.957 1536 L560.957 1542 L560.957 1539 L560 1539 L560 1533 L560.957 1533 Z" fill="#14FF00" /><path d="M538 1523.79 L544 1529.79 L550 1523.79 L547 1523.79 L547 1520 L541 1520 L541 1523.79 Z" fill="#4EFF00" /><path d="M334.243 1146 L328.243 1152 L334.243 1158 L334.243 1155 L336 1155 L336 1149 L334.243 1149 Z" fill="#24FF00" /><path d="M367.062 666 L361.062 672 L367.062 678 L367.062 675 L368 675 L368 669 L367.062 669 Z" fill="#13FF00" /><path d="M442 401.988 L448 407.988 L454 401.988 L451 401.988 L451 400 L445 400 L445 401.988 Z" fill="#29FF00" /><path d="M399.816 666 L393.816 672 L399.816 678 L399.816 675 L400 675 L400 669 L399.816 669 Z" fill="#04FF00" /><path d="M378 658.295 L384 664.295 L390 658.295 L387 658.295 L387 656 L381 656 L381 658.295 Z" fill="#2FFF00" /><path d="M464.938 666 L470.938 672 L464.938 678 L464.938 675 L464 675 L464 669 L464.938 669 Z" fill="#13FF00" /><path d="M442 658.295 L448 664.295 L454 658.295 L451 658.295 L451 656 L445 656 L445 658.295 Z" fill="#2FFF00" /><path d="M442 434.174 L448 440.174 L454 434.174 L451 434.174 L451 432 L445 432 L445 434.174 Z" fill="#2DFF00" /><path d="M399.902 698 L393.902 704 L399.902 710 L399.902 707 L400 707 L400 701 L399.902 701 Z" fill="#02FF00" /><path d="M378 689.665 L384 695.665 L390 689.665 L387 689.665 L387 688 L381 688 L381 689.665 Z" fill="#22FF00" /><path d="M624.479 1530 L630.479 1536 L624.479 1542 L624.479 1539 L624 1539 L624 1533 L624.479 1533 Z" fill="#0AFF00" /><path d="M367.665 698 L361.665 704 L367.665 710 L367.665 707 L368 707 L368 701 L367.665 701 Z" fill="#07FF00" /><path d="M346 689.062 L352 695.062 L358 689.062 L355 689.062 L355 688 L349 688 L349 689.062 Z" fill="#16FF00" /><path d="M560.909 1466 L566.909 1472 L560.909 1478 L560.909 1475 L560 1475 L560 1469 L560.909 1469 Z" fill="#13FF00" /><path d="M538 1459.95 L544 1465.95 L550 1459.95 L547 1459.95 L547 1456 L541 1456 L541 1459.95 Z" fill="#51FF00" /><path d="M303.09 1402 L297.09 1408 L303.09 1414 L303.09 1411 L304 1411 L304 1405 L303.09 1405 Z" fill="#13FF00" /><path d="M282 1395.54 L288 1401.54 L294 1395.54 L291 1395.54 L291 1392 L285 1392 L285 1395.54 Z" fill="#49FF00" /><path d="M698 1815.95 L704 1821.95 L710 1815.95 L707 1815.95 L707 1808 L701 1808 L701 1815.95 Z" fill="#A3FF00" /><path d="M399.932 1018 L393.932 1024 L399.932 1030 L399.932 1027 L400 1027 L400 1021 L399.932 1021 Z" fill="#01FF00" /><path d="M496.776 1178 L502.776 1184 L496.776 1190 L496.776 1187 L496 1187 L496 1181 L496.776 1181 Z" fill="#10FF00" /><path d="M474 1170.86 L480 1176.86 L486 1170.86 L483 1170.86 L483 1168 L477 1168 L477 1170.86 Z" fill="#3BFF00" /><path d="M497.032 1402 L503.032 1408 L497.032 1414 L497.032 1411 L496 1411 L496 1405 L497.032 1405 Z" fill="#15FF00" /><path d="M474 1395.29 L480 1401.29 L486 1395.29 L483 1395.29 L483 1392 L477 1392 L477 1395.29 Z" fill="#44FF00" /><path d="M442 208.68 L448 214.68 L454 208.68 L451 208.68 L451 208 L445 208 L445 208.68 Z" fill="#0EFF00" /><path d="M592.861 1562 L598.861 1568 L592.861 1574 L592.861 1571 L592 1571 L592 1565 L592.861 1565 Z" fill="#12FF00" /><path d="M570 1555.12 L576 1561.12 L582 1555.12 L579 1555.12 L579 1552 L573 1552 L573 1555.12 Z" fill="#40FF00" /><path d="M432.009 154 L438.009 160 L432.009 166 L432.009 163 L432 163 L432 157 L432.009 157 Z" fill="#00FF00" /><path d="M410 144.306 L416 150.306 L422 144.306 L419 144.306 L419 144 L413 144 L413 144.306 Z" fill="#06FF00" /><path d="M335.635 1210 L329.635 1216 L335.635 1222 L335.635 1219 L336 1219 L336 1213 L335.635 1213 Z" fill="#07FF00" /><path d="M314 1202.18 L320 1208.18 L326 1202.18 L323 1202.18 L323 1200 L317 1200 L317 1202.18 Z" fill="#2DFF00" /><path d="M464.858 1210 L470.858 1216 L464.858 1222 L464.858 1219 L464 1219 L464 1213 L464.858 1213 Z" fill="#12FF00" /><path d="M442 1202.11 L448 1208.11 L454 1202.11 L451 1202.11 L451 1200 L445 1200 L445 1202.11 Z" fill="#2BFF00" /><path d="M496.365 1210 L502.365 1216 L496.365 1222 L496.365 1219 L496 1219 L496 1213 L496.365 1213 Z" fill="#07FF00" /><path d="M474 1202.59 L480 1208.59 L486 1202.59 L483 1202.59 L483 1200 L477 1200 L477 1202.59 Z" fill="#35FF00" /><path d="M346 1363.88 L352 1369.88 L358 1363.88 L355 1363.88 L355 1360 L349 1360 L349 1363.88 Z" fill="#50FF00" /><path d="M346 1618.19 L352 1624.19 L358 1618.19 L355 1618.19 L355 1616 L349 1616 L349 1618.19 Z" fill="#2DFF00" /><path d="M400.017 954 L406.017 960 L400.017 966 L400.017 963 L400 963 L400 957 L400.017 957 Z" fill="#00FF00" /><path d="M527.149 1210 L521.149 1216 L527.149 1222 L527.149 1219 L528 1219 L528 1213 L527.149 1213 Z" fill="#11FF00" /><path d="M506 1202.18 L512 1208.18 L518 1202.18 L515 1202.18 L515 1200 L509 1200 L509 1202.18 Z" fill="#2DFF00" /><path d="M335.324 1242 L329.324 1248 L335.324 1254 L335.324 1251 L336 1251 L336 1245 L335.324 1245 Z" fill="#0EFF00" /><path d="M314 1235.52 L320 1241.52 L326 1235.52 L323 1235.52 L323 1232 L317 1232 L317 1235.52 Z" fill="#48FF00" /><path d="M110.778 1882 L104.778 1888 L110.778 1894 L110.778 1891 L112 1891 L112 1885 L110.778 1885 Z" fill="#19FF00" /><path d="M90 1875.1 L96 1881.1 L102 1875.1 L99 1875.1 L99 1872 L93 1872 L93 1875.1 Z" fill="#40FF00" /><path d="M335.289 1370 L329.289 1376 L335.289 1382 L335.289 1379 L336 1379 L336 1373 L335.289 1373 Z" fill="#0FFF00" /><path d="M314 1363.76 L320 1369.76 L326 1363.76 L323 1363.76 L323 1360 L317 1360 L317 1363.76 Z" fill="#4DFF00" /><path d="M506 1268.32 L512 1274.32 L518 1268.32 L515 1268.32 L515 1264 L509 1264 L509 1268.32 Z" fill="#59FF00" /><path d="M464.124 1306 L470.124 1312 L464.124 1318 L464.124 1315 L464 1315 L464 1309 L464.124 1309 Z" fill="#03FF00" /><path d="M144.362 1850 L150.362 1856 L144.362 1862 L144.362 1859 L144 1859 L144 1853 L144.362 1853 Z" fill="#07FF00" /><path d="M122 1848.08 L128 1854.08 L134 1848.08 L131 1848.08 L131 1840 L125 1840 L125 1848.08 Z" fill="#A6FF00" /><path d="M506 1300.69 L512 1306.69 L518 1300.69 L515 1300.69 L515 1296 L509 1296 L509 1300.69 Z" fill="#60FF00" /><path d="M399.151 1658 L393.151 1664 L399.151 1670 L399.151 1667 L400 1667 L400 1661 L399.151 1661 Z" fill="#11FF00" /><path d="M335.171 1338 L329.171 1344 L335.171 1350 L335.171 1347 L336 1347 L336 1341 L335.171 1341 Z" fill="#11FF00" /><path d="M314 1333.11 L320 1339.11 L326 1333.11 L323 1333.11 L323 1328 L317 1328 L317 1333.11 Z" fill="#69FF00" /><path d="M271.091 1466 L265.091 1472 L271.091 1478 L271.091 1475 L272 1475 L272 1469 L271.091 1469 Z" fill="#13FF00" /><path d="M250 1458.49 L256 1464.49 L262 1458.49 L259 1458.49 L259 1456 L253 1456 L253 1458.49 Z" fill="#33FF00" /><path d="M432.098 698 L438.098 704 L432.098 710 L432.098 707 L432 707 L432 701 L432.098 701 Z" fill="#02FF00" /><path d="M410 689.752 L416 695.752 L422 689.752 L419 689.752 L419 688 L413 688 L413 689.752 Z" fill="#24FF00" /><path d="M346 1268.75 L352 1274.75 L358 1268.75 L355 1268.75 L355 1264 L349 1264 L349 1268.75 Z" fill="#62FF00" /><path d="M538 1362.43 L544 1368.43 L550 1362.43 L547 1362.43 L547 1360 L541 1360 L541 1362.43 Z" fill="#32FF00" /><path d="M593.303 1626 L599.303 1632 L593.303 1638 L593.303 1635 L592 1635 L592 1629 L593.303 1629 Z" fill="#1BFF00" /><path d="M570 1620.28 L576 1626.28 L582 1620.28 L579 1620.28 L579 1616 L573 1616 L573 1620.28 Z" fill="#58FF00" /><path d="M432.008 218 L438.008 224 L432.008 230 L432.008 227 L432 227 L432 221 L432.008 221 Z" fill="#00FF00" /><path d="M410 208.627 L416 214.627 L422 208.627 L419 208.627 L419 208 L413 208 L413 208.627 Z" fill="#0DFF00" /><path d="M367.876 1306 L361.876 1312 L367.876 1318 L367.876 1315 L368 1315 L368 1309 L367.876 1309 Z" fill="#03FF00" /><path d="M346 1300.63 L352 1306.63 L358 1300.63 L355 1300.63 L355 1296 L349 1296 L349 1300.63 Z" fill="#5FFF00" /><path d="M538 1395.54 L544 1401.54 L550 1395.54 L547 1395.54 L547 1392 L541 1392 L541 1395.54 Z" fill="#49FF00" /><path d="M498.506 1434 L504.506 1440 L498.506 1446 L498.506 1443 L496 1443 L496 1437 L498.506 1437 Z" fill="#33FF00" /><path d="M474 1426.38 L480 1432.38 L486 1426.38 L483 1426.38 L483 1424 L477 1424 L477 1426.38 Z" fill="#31FF00" /><path d="M529.626 1434 L535.626 1440 L529.626 1446 L529.626 1443 L528 1443 L528 1437 L529.626 1437 Z" fill="#21FF00" /><path d="M506 1427.86 L512 1433.86 L518 1427.86 L515 1427.86 L515 1424 L509 1424 L509 1427.86 Z" fill="#4FFF00" /><path d="M167.741 1722 L161.741 1728 L167.741 1734 L167.741 1731 L176 1731 L176 1725 L167.741 1725 Z" fill="#AAFF00" /><path d="M570 1491.53 L576 1497.53 L582 1491.53 L579 1491.53 L579 1488 L573 1488 L573 1491.53 Z" fill="#48FF00" /></g><text x="8" y="2128" font-size="24" fill="#000000" >Contact arrow color (max stress ratio):</text><g stroke="#000000" stroke-width="1" ><line x1="8" y1="2142" x2="48" y2="2142" /><line x1="8" y1="2158" x2="48" y2="2158" /><line x1="8" y1="2174" x2="48" y2="2174" /><line x1="8" y1="2270" x2="48" y2="2270" /></g><rect x="8" y="2136" width="32" height="6" fill="#00FF00" /><defs><linearGradient id="linGrad_0" x1="0" x2="0" y1="0" y2="1"><stop offset="0" stop-color="#00FF00" /><stop offset="1" stop-color="#FFFF00" /></linearGradient></defs><rect x="8" y="2142" width="32" height="16" fill="url(#linGrad_0)" /><defs><linearGradient id="linGrad_1" x1="0" x2="0" y1="0" y2="1"><stop offset="0" stop-color="#FFFF00" /><stop offset="1" stop-color="#FF8000" /></linearGradient></defs><rect x="8" y="2158" width="32" height="16" fill="url(#linGrad_1)" /><defs><linearGradient id="linGrad_2" x1="0" x2="0" y1="0" y2="1"><stop offset="0" stop-color="#FF0000" /><stop offset="1" stop-color="#1A0000" /></linearGradient></defs><rect x="8" y="2174" width="32" height="96" fill="url(#linGrad_2)" /><rect x="8" y="2270" width="32" height="6" fill="#1A0000" /><g font-size="12" fill="#000000" ><text x="56" y="2148" >0.00%</text><text x="56" y="2164" >50.00%</text><text x="56" y="2180" >100.00%</text><text x="56" y="2276" >400.00%</text></g><text x="8" y="2308" font-size="24" fill="#000000" >Contact arrow length (weight transfert):</text><g stroke-width="1" stroke="#000000" fill-opacity="0" ><rect x="8" y="2316" width="32" height="32" /><rect x="8" y="2356" width="32" height="32" /></g><g stroke-width="1" stroke="#FFFFFF" fill="#00FF00" ><path d="M8 2326 L14 2332 L8 2338 L8 2335 L8 2335 L8 2329 L8 2329 Z" /><path d="M18 2366 L24 2372 L18 2378 L18 2375 L8 2375 L8 2369 L18 2369 Z" /></g><g font-size="12" fill="#000000" ><text x="48" y="2338" >0 N</text><text x="48" y="2378" >4.02416e+06 N</text></g></svg>
