<svg width="592.0000228881836" height="732"  xmlns="http://www.w3.org/2000/svg" xmlns:xlink="http://www.w3.org/1999/xlink" version="1.1"><rect x="0" y="0" width="128" height="288" fill-opacity="0" stroke="#000000" stroke-width="1" /><g stroke="#000000" stroke-width="1" ><rect x="16" y="240" width="32" height="32" fill="#808080" /><g stroke="#000000" stroke-width="2" ><line x1="32" y1="240" x2="48" y2="256" /><line x1="16" y1="240" x2="48" y2="272" /><line x1="16" y1="256" x2="32" y2="272" /></g><rect x="48" y="112" width="32" height="32" fill="#808080" /><rect x="48" y="240" width="32" height="32" fill="#808080" /><g stroke="#000000" stroke-width="2" ><line x1="64" y1="240" x2="80" y2="256" /><line x1="48" y1="240" x2="80" y2="272" /><line x1="48" y1="256" x2="64" y2="272" /></g><rect x="48" y="208" width="32" height="32" fill="#808080" /><rect x="80" y="240" width="32" height="32" fill="#808080" /><g stroke="#000000" stroke-width="2" ><line x1="96" y1="240" x2="112" y2="256" /><line x1="80" y1="240" x2="112" y2="272" /><line x1="80" y1="256" x2="96" y2="272" /></g><rect x="48" y="176" width="32" height="32" fill="#808080" /><rect x="48" y="48" width="32" height="32" fill="#808080" /><rect x="48" y="144" width="32" height="32" fill="#808080" /><rect x="48" y="80" width="32" height="32" fill="#808080" /><rect x="48" y="16" width="32" height="32" fill="#808080" /></g><text x="8" y="320" fill="#000000" font-size="24" >Block color (type/material):</text><g stroke="#000000" stroke-width="1" ><rect x="8" y="328" width="32" height="32" fill="#808080" /></g><g fill="#000000" font-size="12" ><text x="48" y="350" >Demo material</text></g><text x="8" y="392" font-size="24" fill="#000000" >Block hatching:</text><rect x="8" y="400" width="32" height="32" fill-opacity="0" stroke="#000000" stroke-width="1" /><g stroke="#000000" stroke-width="2" ><line x1="24" y1="400" x2="40" y2="416" /><line x1="8" y1="400" x2="40" y2="432" /><line x1="8" y1="416" x2="24" y2="432" /></g><text x="48" y="422" font-size="12" fill="#000000" >Foundation</text><g stroke="#FFFFFF" stroke-width="1" ><path d="M58 116.286 L64 122.286 L70 116.286 L67 116.286 L67 112 L61 112 L61 116.286 Z" fill="#FFE600" /><path d="M58 250 L64 256 L70 250 L67 250 L67 240 L61 240 L61 250 Z" fill="#E00000" /><path d="M58 216.571 L64 222.571 L70 216.571 L67 216.571 L67 208 L61 208 L61 216.571 Z" fill="#F00000" /><path d="M58 183.143 L64 189.143 L70 183.143 L67 183.143 L67 176 L61 176 L61 183.143 Z" fill="#FF8000" /><path d="M58 49.4286 L64 55.4286 L70 49.4286 L67 49.4286 L67 48 L61 48 L61 49.4286 Z" fill="#66FF00" /><path d="M58 149.714 L64 155.714 L70 149.714 L67 149.714 L67 144 L61 144 L61 149.714 Z" fill="#FFB300" /><path d="M58 82.8571 L64 88.8571 L70 82.8571 L67 82.8571 L67 80 L61 80 L61 82.8571 Z" fill="#CCFF00" /></g><text x="8" y="464" font-size="24" fill="#000000" >Contact arrow color (max stress ratio):</text><g stroke="#000000" stroke-width="1" ><line x1="8" y1="478" x2="48" y2="478" /><line x1="8" y1="494" x2="48" y2="494" /><line x1="8" y1="510" x2="48" y2="510" /><line x1="8" y1="606" x2="48" y2="606" /></g><rect x="8" y="472" width="32" height="6" fill="#00FF00" /><defs><linearGradient id="linGrad_0" x1="0" x2="0" y1="0" y2="1"><stop offset="0" stop-color="#00FF00" /><stop offset="1" stop-color="#FFFF00" /></linearGradient></defs><rect x="8" y="478" width="32" height="16" fill="url(#linGrad_0)" /><defs><linearGradient id="linGrad_1" x1="0" x2="0" y1="0" y2="1"><stop offset="0" stop-color="#FFFF00" /><stop offset="1" stop-color="#FF8000" /></linearGradient></defs><rect x="8" y="494" width="32" height="16" fill="url(#linGrad_1)" /><defs><linearGradient id="linGrad_2" x1="0" x2="0" y1="0" y2="1"><stop offset="0" stop-color="#FF0000" /><stop offset="1" stop-color="#1A0000" /></linearGradient></defs><rect x="8" y="510" width="32" height="96" fill="url(#linGrad_2)" /><rect x="8" y="606" width="32" height="6" fill="#1A0000" /><g font-size="12" fill="#000000" ><text x="56" y="484" >0.00%</text><text x="56" y="500" >50.00%</text><text x="56" y="516" >100.00%</text><text x="56" y="612" >400.00%</text></g><text x="8" y="644" font-size="24" fill="#000000" >Contact arrow length (weight transfert):</text><g stroke-width="1" stroke="#000000" fill-opacity="0" ><rect x="8" y="652" width="32" height="32" /><rect x="8" y="692" width="32" height="32" /></g><g stroke-width="1" stroke="#FFFFFF" fill="#00FF00" ><path d="M8 662 L14 668 L8 674 L8 671 L8 671 L8 665 L8 665 Z" /><path d="M18 702 L24 708 L18 714 L18 711 L8 711 L8 705 L18 705 Z" /></g><g font-size="12" fill="#000000" ><text x="48" y="674" >0 N</text><text x="48" y="714" >1.4e+06 N</text></g></svg>
